<?xml version="1.0" standalone="no"?>
<!DOCTYPE svg PUBLIC "-//W3C//DTD SVG 1.1//EN" "http://www.w3.org/Graphics/SVG/1.1/DTD/svg11.dtd" >
<svg xmlns="http://www.w3.org/2000/svg">
<metadata>Generated by IcoMoon</metadata>
<defs>
<font id="icomoon" horiz-adv-x="1024">
<font-face units-per-em="1024" ascent="960" descent="-64" />
<missing-glyph horiz-adv-x="1024" />
<glyph unicode="&#x20;" horiz-adv-x="512" d="" />
<glyph unicode="&#xe900;" glyph-name="you" d="M446.171 283.429c-7.314 0-10.971 0-18.286 3.657-10.971 7.314-18.286 18.286-18.286 32.914v256c0 14.629 7.314 25.6 18.286 32.914s25.6 7.314 36.571 0l190.171-128c10.971-7.314 14.629-18.286 14.629-29.257s-7.314-21.943-14.629-29.257l-190.171-128c-3.657-7.314-10.971-10.971-18.286-10.971zM482.743 506.514v-120.686l87.771 58.514-87.771 62.171zM508.343 89.6c-25.6 0-234.057 0-365.714 51.2-14.629 7.314-29.257 14.629-40.229 25.6s-18.286 25.6-21.943 40.229c-7.314 47.543-21.943 120.686-21.943 241.371s10.971 193.829 21.943 234.057c3.657 14.629 10.971 29.257 21.943 40.229s25.6 21.943 40.229 25.6c138.971 58.514 358.4 58.514 369.371 58.514 7.314 0 230.4 0 369.371-51.2 14.629-7.314 29.257-14.629 40.229-25.6s18.286-25.6 21.943-40.229c10.971-40.229 21.943-113.371 21.943-234.057s-10.971-193.829-21.943-234.057c-3.657-14.629-10.971-29.257-21.943-40.229s-25.6-21.943-40.229-25.6c-138.971-65.829-362.057-62.171-373.029-65.829 3.657 0 3.657 0 0 0zM512 733.257c-14.629 0-219.429 0-343.771-47.543-3.657 0-7.314-3.657-10.971-7.314 0-3.657-3.657-10.971-3.657-14.629-7.314-29.257-21.943-95.086-21.943-215.771s14.629-186.514 21.943-215.771c0-3.657 3.657-7.314 7.314-10.971s7.314-7.314 10.971-7.314c124.343-47.543 340.114-47.543 343.771-47.543s215.771 0 343.771 47.543c3.657 0 7.314 3.657 10.971 7.314s3.657 7.314 7.314 10.971c7.314 29.257 21.943 95.086 21.943 215.771s-14.629 186.514-21.943 215.771c0 3.657-3.657 7.314-7.314 10.971s-7.314 7.314-10.971 7.314c-131.657 51.2-343.771 47.543-347.429 51.2 0 0 0 0 0 0z" />
<glyph unicode="&#xe901;" glyph-name="tg" d="M702.171 60.343c-3.657 0-10.971 0-14.629 0-10.971 3.657-21.943 7.314-32.914 14.629l-354.743 310.857-226.743 43.886c-14.629 3.657-25.6 10.971-32.914 18.286-7.314 10.971-14.629 21.943-14.629 36.571s3.657 25.6 7.314 36.571c7.314 10.971 18.286 18.286 29.257 25.6l815.543 318.171c7.314 3.657 14.629 3.657 21.943 3.657s14.629-3.657 18.286-7.314c7.314-3.657 10.971-10.971 14.629-18.286s3.657-14.629 0-21.943l-164.571-709.486c-3.657-10.971-7.314-21.943-14.629-29.257s-18.286-14.629-29.257-18.286c-7.314-3.657-14.629-3.657-21.943-3.657zM705.829 129.829v0 0zM131.657 495.543l197.486-40.229c7.314 0 10.971-3.657 18.286-7.314l354.743-310.857 146.286 640-716.8-281.6zM95.086 480.914v0c0 0 0 0 0 0zM321.829 382.171c-10.971 0-21.943 3.657-29.257 14.629-10.971 14.629-7.314 40.229 7.314 51.2l574.171 413.257c18.286 10.971 40.229 7.314 51.2-7.314s7.314-40.229-10.971-51.2l-574.171-413.257c-3.657-3.657-10.971-7.314-18.286-7.314zM351.086 89.6c-7.314 0-18.286 0-25.6 3.657-10.971 3.657-21.943 14.629-32.914 25.6-7.314 10.971-10.971 25.6-10.971 36.571v259.657c0 21.943 14.629 36.571 36.571 36.571s36.571-14.629 36.571-36.571v-248.686l113.371 120.686c14.629 14.629 36.571 14.629 51.2 0s14.629-36.571 0-51.2l-117.029-124.343c-10.971-10.971-21.943-18.286-36.571-18.286-3.657 0-7.314-3.657-14.629-3.657zM358.4 159.086v0 0 0z" />
<glyph unicode="&#xe902;" glyph-name="fb" d="M512 27.429c-230.4 0-420.571 190.171-420.571 420.571s190.171 420.571 420.571 420.571c230.4 0 420.571-190.171 420.571-420.571s-190.171-420.571-420.571-420.571zM512 795.429c-190.171 0-347.429-157.257-347.429-347.429s157.257-347.429 347.429-347.429 347.429 157.257 347.429 347.429-157.257 347.429-347.429 347.429zM512 27.429c-21.943 0-36.571 14.629-36.571 36.571v449.829c0 36.571 14.629 69.486 40.229 95.086s58.514 40.229 95.086 40.229h65.829c21.943 0 36.571-14.629 36.571-36.571s-14.629-36.571-36.571-36.571h-65.829c-14.629 0-29.257-7.314-40.229-18.286s-18.286-25.6-18.286-40.229v-446.171c-3.657-29.257-18.286-43.886-40.229-43.886zM640 345.6h-256c-21.943 0-36.571 14.629-36.571 36.571s14.629 36.571 36.571 36.571h256c21.943 0 36.571-14.629 36.571-36.571s-14.629-36.571-36.571-36.571z" />
<glyph unicode="&#xe903;" glyph-name="insta" d="M724.114-16.457h-424.229c-138.971 0-248.686 113.371-248.686 248.686v427.886c0 138.971 113.371 248.686 248.686 248.686h427.886c138.971 0 248.686-113.371 248.686-248.686v-427.886c0-135.314-113.371-248.686-252.343-248.686zM299.886 839.314c-98.743 0-175.543-80.457-175.543-175.543v-427.886c0-98.743 80.457-175.543 175.543-175.543h427.886c98.743 0 175.543 80.457 175.543 175.543v424.229c0 98.743-80.457 175.543-175.543 175.543h-427.886zM515.657 243.2c-10.971 0-21.943 0-32.914 3.657-43.886 3.657-84.114 25.6-117.029 54.857-29.257 29.257-51.2 69.486-58.514 113.371s0 87.771 18.286 124.343c18.286 40.229 51.2 69.486 91.429 91.429s84.114 29.257 124.343 21.943c43.886-7.314 84.114-25.6 117.029-58.514s51.2-73.143 58.514-117.029c0 0 0 0 0 0 7.314-43.886 0-87.771-21.943-124.343-21.943-40.229-51.2-69.486-91.429-91.429-25.6-10.971-58.514-18.286-87.771-18.286zM512 583.314c-21.943 0-43.886-3.657-62.171-14.629-25.6-14.629-43.886-32.914-58.514-58.514-10.971-25.6-18.286-54.857-10.971-80.457 3.657-29.257 18.286-54.857 36.571-73.143s43.886-32.914 73.143-36.571 54.857 0 80.457 10.971c25.6 10.971 43.886 32.914 58.514 58.514s18.286 54.857 14.629 80.457c-3.657 29.257-18.286 54.857-36.571 76.8-21.943 21.943-47.543 32.914-76.8 36.571-3.657 0-10.971 0-18.286 0zM746.057 645.486c-21.943 0-36.571 14.629-36.571 36.571s14.629 36.571 36.571 36.571v0c21.943 0 36.571-14.629 36.571-36.571s-14.629-36.571-36.571-36.571z" />
<glyph unicode="&#xe904;" glyph-name="minus" d="M864 384h-704c-38.4 0-64 25.6-64 64s25.6 64 64 64h704c38.4 0 64-25.6 64-64s-25.6-64-64-64z" />
<glyph unicode="&#xe905;" glyph-name="right" horiz-adv-x="2219" d="M1984 405.333h-1728c-25.6 0-42.667 17.067-42.667 42.667s17.067 42.667 42.667 42.667h1728c25.6 0 42.667-17.067 42.667-42.667s-17.067-42.667-42.667-42.667zM1685.333 106.667c-12.8 0-21.333 4.267-29.867 12.8-17.067 17.067-17.067 42.667 0 59.733l268.8 268.8-268.8 268.8c-17.067 17.067-17.067 42.667 0 59.733s42.667 17.067 59.733 0l298.667-298.667c17.067-17.067 17.067-42.667 0-59.733l-298.667-298.667c-8.533-8.533-17.067-12.8-29.867-12.8z" />
<glyph unicode="&#xe906;" glyph-name="prev" d="M640 89.6c-10.971 0-18.286 3.657-25.6 10.971l-321.829 321.829c-14.629 14.629-14.629 36.571 0 51.2l321.829 321.829c14.629 14.629 36.571 14.629 51.2 0s14.629-36.571 0-51.2l-292.571-292.571 292.571-292.571c14.629-14.629 14.629-36.571 0-51.2-7.314-14.629-14.629-18.286-25.6-18.286z" />
<glyph unicode="&#xe907;" glyph-name="next" d="M384 89.6c-10.971 0-18.286 3.657-25.6 10.971-14.629 14.629-14.629 36.571 0 51.2l292.571 292.571-292.571 292.571c-14.629 14.629-14.629 36.571 0 51.2s36.571 14.629 51.2 0l321.829-321.829c14.629-14.629 14.629-36.571 0-51.2l-321.829-321.829c-7.314 0-14.629-3.657-25.6-3.657z" />
<glyph unicode="&#xe908;" glyph-name="cart" d="M968.533-76.8h-913.067c-12.8 0-25.6 4.267-34.133 17.067-8.533 8.533-12.8 21.333-8.533 34.133l115.2 708.267c4.267 21.333 21.333 34.133 42.667 34.133h682.667c21.333 0 38.4-17.067 42.667-34.133l115.2-708.267c0-12.8 0-25.6-8.533-34.133-8.533-12.8-21.333-17.067-34.133-17.067zM106.667 8.533h810.667l-102.4 622.933h-605.867l-102.4-622.933zM682.667 448c-25.6 0-42.667 17.067-42.667 42.667v238.933c0 81.067-55.467 145.067-128 145.067s-128-64-128-145.067v-238.933c0-25.6-17.067-42.667-42.667-42.667s-42.667 17.067-42.667 42.667v238.933c0 128 93.867 230.4 213.333 230.4s213.333-102.4 213.333-230.4v-238.933c0-25.6-17.067-42.667-42.667-42.667z" />
<glyph unicode="&#xe909;" glyph-name="fav" d="M512 12.8v0c-12.8 0-21.333 4.267-29.867 12.8l-375.467 375.467c-51.2 51.2-81.067 123.733-81.067 196.267s29.867 145.067 81.067 196.267 119.467 81.067 196.267 81.067c72.533 0 145.067-29.867 196.267-81.067l12.8-17.067 17.067 17.067c25.6 25.6 55.467 46.933 89.6 59.733 68.267 29.867 145.067 29.867 213.333 0 34.133-12.8 64-34.133 89.6-59.733v0c25.6-25.6 42.667-55.467 59.733-89.6 12.8-34.133 21.333-68.267 21.333-106.667s-8.533-72.533-21.333-106.667c-12.8-34.133-34.133-64-59.733-89.6l-375.467-375.467c-12.8-8.533-21.333-12.8-34.133-12.8zM302.933 789.333c-55.467 0-102.4-21.333-136.533-55.467s-55.467-85.333-55.467-136.533 21.333-98.133 55.467-136.533l345.6-345.6 345.6 345.6c17.067 17.067 29.867 38.4 42.667 64 8.533 21.333 12.8 46.933 12.8 72.533s-4.267 51.2-12.8 72.533c-8.533 21.333-25.6 42.667-42.667 64 0 0 0 0 0 0-17.067 17.067-38.4 29.867-64 42.667-46.933 21.333-98.133 21.333-145.067 0-21.333-8.533-42.667-25.6-64-42.667l-46.933-46.933c-17.067-17.067-42.667-17.067-59.733 0l-46.933 46.933c-29.867 34.133-76.8 55.467-128 55.467z" />
<glyph unicode="&#xe90a;" glyph-name="user" d="M853.333 21.333c-25.6 0-42.667 17.067-42.667 42.667v85.333c0 34.133-12.8 68.267-38.4 89.6s-55.467 38.4-89.6 38.4h-341.333c-34.133 0-68.267-12.8-89.6-38.4-25.6-21.333-38.4-55.467-38.4-89.6v-85.333c0-25.6-17.067-42.667-42.667-42.667s-42.667 17.067-42.667 42.667v85.333c0 55.467 21.333 110.933 64 149.333 38.4 42.667 93.867 64 149.333 64h341.333c55.467 0 110.933-21.333 149.333-64s64-93.867 64-149.333v-85.333c0-25.6-17.067-42.667-42.667-42.667zM512 448c-119.467 0-213.333 93.867-213.333 213.333s93.867 213.333 213.333 213.333 213.333-93.867 213.333-213.333-93.867-213.333-213.333-213.333zM512 789.333c-72.533 0-128-55.467-128-128s55.467-128 128-128 128 55.467 128 128-55.467 128-128 128z" />
<glyph unicode="&#xe90b;" glyph-name="search" d="M469.333 106.667c-213.333 0-384 170.667-384 384s170.667 384 384 384c213.333 0 384-170.667 384-384s-170.667-384-384-384zM469.333 789.333c-166.4 0-298.667-132.267-298.667-298.667s132.267-298.667 298.667-298.667c166.4 0 298.667 132.267 298.667 298.667s-132.267 298.667-298.667 298.667zM896 21.333c-12.8 0-21.333 4.267-29.867 12.8l-187.733 183.467c-17.067 17.067-17.067 42.667 0 59.733s42.667 17.067 59.733 0l187.733-183.467c17.067-17.067 17.067-42.667 0-59.733-8.533-8.533-17.067-12.8-29.867-12.8z" />
<glyph unicode="&#xe90c;" glyph-name="down" d="M512 265.956c-17.067 0-28.444 5.689-39.822 17.067l-256 250.311c-22.756 22.756-22.756 56.889 0 79.644s56.889 22.756 79.644 0l216.178-210.489 216.178 216.178c22.756 22.756 56.889 22.756 79.644 0s22.756-56.889 0-79.644l-256-261.689c-11.378-11.378-22.756-11.378-39.822-11.378z" />
<glyph unicode="&#xe90d;" glyph-name="close" d="M225.28 135.68c-5.12 0-15.36 0-20.48 5.12-10.24 10.24-10.24 25.6 0 35.84l578.56 578.56c10.24 10.24 25.6 10.24 35.84 0s10.24-25.6 0-35.84l-578.56-578.56c-5.12-5.12-10.24-5.12-15.36-5.12zM798.72 135.68c-5.12 0-15.36 0-20.48 5.12l-573.44 578.56c-10.24 10.24-10.24 25.6 0 35.84s25.6 10.24 35.84 0l578.56-578.56c10.24-10.24 10.24-25.6 0-35.84-5.12-5.12-10.24-5.12-20.48-5.12z" />
<glyph unicode="&#xe90e;" glyph-name="plus" d="M864 384h-704c-38.4 0-64 25.6-64 64s25.6 64 64 64h704c38.4 0 64-25.6 64-64s-25.6-64-64-64zM512 32c-38.4 0-64 25.6-64 64v704c0 38.4 25.6 64 64 64s64-25.6 64-64v-704c0-38.4-25.6-64-64-64z" />
<glyph unicode="&#xe90f;" glyph-name="trash" d="M865.28 668.16h-706.56c-30.72 0-51.2 20.48-51.2 51.2s20.48 51.2 51.2 51.2h706.56c30.72 0 51.2-20.48 51.2-51.2s-25.6-51.2-51.2-51.2zM670.72 796.16h-317.44c-30.72 0-51.2 20.48-51.2 51.2s20.48 51.2 51.2 51.2h317.44c30.72 0 51.2-20.48 51.2-51.2s-20.48-51.2-51.2-51.2zM768 28.16h-512c-20.48 0-40.96 10.24-56.32 25.6s-25.6 35.84-25.6 56.32v609.28c0 30.72 20.48 51.2 51.2 51.2s51.2-20.48 51.2-51.2v-588.8h471.040v588.8c0 30.72 20.48 51.2 51.2 51.2s51.2-20.48 51.2-51.2v-609.28c0-20.48-10.24-40.96-25.6-56.32s-35.84-25.6-56.32-25.6z" />
<glyph unicode="&#xe910;" glyph-name="right2" d="M807.822 419.556h-591.644c-17.067 0-34.133 11.378-34.133 28.444s11.378 28.444 28.444 28.444h597.333c17.067 0 28.444-11.378 28.444-28.444s-11.378-28.444-28.444-28.444zM512 118.044c-5.689 0-17.067 0-22.756 5.689-11.378 11.378-11.378 28.444 0 39.822l278.756 284.444-278.756 278.756c-11.378 11.378-11.378 28.444 0 39.822s28.444 11.378 39.822 0l295.822-295.822c11.378-11.378 11.378-28.444 0-39.822l-295.822-295.822c0-11.378-11.378-17.067-17.067-17.067z" />
<glyph unicode="&#xe911;" glyph-name="more" horiz-adv-x="1067" d="M887.467 533.333h-192c-25.6 0-42.667 17.067-42.667 42.667s17.067 42.667 42.667 42.667h149.333v149.333c0 25.6 17.067 42.667 42.667 42.667s42.667-17.067 42.667-42.667v-192c0-25.6-21.333-42.667-42.667-42.667zM887.467 533.333c-12.8 0-21.333 4.267-29.867 12.8l-115.2 115.2c-59.733 59.733-136.533 89.6-217.6 89.6s-157.867-29.867-217.6-89.6c-17.067-17.067-42.667-17.067-59.733 0s-17.067 42.667 0 59.733c76.8 72.533 174.933 110.933 277.333 115.2 106.667 0 204.8-42.667 277.333-115.2l115.2-115.2c17.067-17.067 17.067-42.667 0-59.733-8.533-8.533-21.333-12.8-29.867-12.8zM179.2 85.333c-25.6 0-42.667 17.067-42.667 42.667v192c0 25.6 17.067 42.667 42.667 42.667h192c25.6 0 42.667-17.067 42.667-42.667s-17.067-42.667-42.667-42.667h-149.333v-149.333c0-25.6-17.067-42.667-42.667-42.667zM541.867 59.733c0 0 0 0 0 0-106.667 0-204.8 42.667-277.333 115.2l-115.2 115.2c-17.067 17.067-17.067 42.667 0 59.733s42.667 17.067 59.733 0l115.2-115.2c59.733-59.733 136.533-89.6 217.6-89.6 0 0 0 0 0 0 81.067 0 157.867 29.867 217.6 89.6 17.067 17.067 42.667 17.067 59.733 0s17.067-42.667 0-59.733c-72.533-72.533-170.667-115.2-277.333-115.2z" />
<glyph unicode="&#xe912;" glyph-name="filter" d="M768 366.080h-512c-30.72 0-51.2 20.48-51.2 51.2s20.48 51.2 51.2 51.2h512c30.72 0 51.2-20.48 51.2-51.2s-20.48-51.2-51.2-51.2zM926.72 555.52h-829.44c-30.72 0-51.2 20.48-51.2 51.2s20.48 51.2 51.2 51.2h829.44c30.72 0 51.2-20.48 51.2-51.2s-20.48-51.2-51.2-51.2zM609.28 171.52h-194.56c-30.72 0-51.2 20.48-51.2 51.2s20.48 51.2 51.2 51.2h194.56c30.72 0 51.2-20.48 51.2-51.2s-25.6-51.2-51.2-51.2z" />
<glyph unicode="&#xe913;" glyph-name="play" d="M288 800.47v-704.961c0.104-5.627 1.691-11.121 4.598-15.939s7.033-8.786 11.962-11.5c4.929-2.714 10.486-4.081 16.111-3.958 5.625 0.118 11.12 1.715 15.929 4.639l576.322 352.476c4.603 2.79 8.407 6.717 11.049 11.402 2.642 4.69 4.035 9.979 4.035 15.36s-1.393 10.671-4.035 15.358c-2.642 4.688-6.446 8.615-11.049 11.401l-576.322 352.48c-4.81 2.92-10.304 4.52-15.929 4.639s-11.182-1.247-16.111-3.961c-4.929-2.714-9.055-6.679-11.962-11.496s-4.493-10.315-4.598-15.941z" />
<glyph unicode="&#xe914;" glyph-name="share" d="M110.933 115.2c-8.533 0-17.067 0-25.6 4.267-12.8 4.267-21.333 12.8-25.6 25.6s-8.533 25.6-8.533 34.133c34.133 268.8 294.4 477.867 512 499.2v153.6c0 17.067 8.533 34.133 25.6 38.4 17.067 8.533 38.4 4.267 51.2-8.533l320-320c17.067-17.067 17.067-42.667 0-59.733l-320-320c-12.8-12.8-29.867-17.067-46.933-8.533s-25.6 21.333-25.6 38.4v149.333c-217.6-17.067-366.933-157.867-409.6-204.8-8.533-8.533-21.333-17.067-29.867-17.067s-12.8-4.267-17.067-4.267zM136.533 174.933c0 0 0 0 0 0s0 0 0 0zM648.533 729.6v-89.6c0-25.6-17.067-42.667-42.667-42.667-166.4 0-384-145.067-452.267-341.333 89.6 76.8 243.2 170.667 452.267 170.667 25.6 0 42.667-17.067 42.667-42.667v-89.6l217.6 217.6-217.6 217.6z" />
<glyph unicode="&#xe915;" glyph-name="rozmir" horiz-adv-x="3072" d="M2952.533 226.133h-2833.067c-42.667 0-76.8 34.133-76.8 76.8 0 25.6 17.067 42.667 42.667 42.667 21.333 0 38.4-12.8 42.667-34.133h2816c4.267 17.067 21.333 34.133 42.667 34.133 25.6 0 42.667-17.067 42.667-42.667 0-46.933-34.133-76.8-76.8-76.8zM2990.933 277.333c-25.6 0-42.667 17.067-42.667 42.667v307.2c0 25.6 17.067 42.667 42.667 42.667s42.667-17.067 42.667-42.667v-307.2c0-25.6-17.067-42.667-42.667-42.667zM1536 234.667c-25.6 0-42.667 17.067-42.667 42.667v349.867c0 25.6 17.067 42.667 42.667 42.667s42.667-17.067 42.667-42.667v-349.867c0-25.6-17.067-42.667-42.667-42.667zM345.6 234.667c-25.6 0-42.667 17.067-42.667 42.667v192c0 25.6 17.067 42.667 42.667 42.667s42.667-17.067 42.667-42.667v-192c0-25.6-17.067-42.667-42.667-42.667zM1800.533 234.667c-25.6 0-42.667 17.067-42.667 42.667v192c0 25.6 17.067 42.667 42.667 42.667s42.667-17.067 42.667-42.667v-192c0-25.6-17.067-42.667-42.667-42.667zM520.533 234.667c-25.6 0-42.667 17.067-42.667 42.667v192c0 25.6 17.067 42.667 42.667 42.667s42.667-17.067 42.667-42.667v-192c0-25.6-17.067-42.667-42.667-42.667zM1979.733 234.667c-25.6 0-42.667 17.067-42.667 42.667v192c0 25.6 17.067 42.667 42.667 42.667s42.667-17.067 42.667-42.667v-192c0-25.6-21.333-42.667-42.667-42.667zM699.733 234.667c-25.6 0-42.667 17.067-42.667 42.667v192c0 25.6 17.067 42.667 42.667 42.667s42.667-17.067 42.667-42.667v-192c0-25.6-21.333-42.667-42.667-42.667zM2154.667 234.667c-25.6 0-42.667 17.067-42.667 42.667v192c0 25.6 17.067 42.667 42.667 42.667s42.667-17.067 42.667-42.667v-192c0-25.6-17.067-42.667-42.667-42.667zM874.667 234.667c-25.6 0-42.667 17.067-42.667 42.667v192c0 25.6 17.067 42.667 42.667 42.667s42.667-17.067 42.667-42.667v-192c0-25.6-17.067-42.667-42.667-42.667zM2329.6 234.667c-25.6 0-42.667 17.067-42.667 42.667v192c0 25.6 17.067 42.667 42.667 42.667s42.667-17.067 42.667-42.667v-192c0-25.6-17.067-42.667-42.667-42.667zM1049.6 234.667c-25.6 0-42.667 17.067-42.667 42.667v192c0 25.6 17.067 42.667 42.667 42.667s42.667-17.067 42.667-42.667v-192c0-25.6-17.067-42.667-42.667-42.667zM2508.8 234.667c-25.6 0-42.667 17.067-42.667 42.667v192c0 25.6 17.067 42.667 42.667 42.667s42.667-17.067 42.667-42.667v-192c0-25.6-21.333-42.667-42.667-42.667zM1228.8 234.667c-25.6 0-42.667 17.067-42.667 42.667v192c0 25.6 17.067 42.667 42.667 42.667s42.667-17.067 42.667-42.667v-192c0-25.6-21.333-42.667-42.667-42.667zM2683.733 234.667c-25.6 0-42.667 17.067-42.667 42.667v192c0 25.6 17.067 42.667 42.667 42.667s42.667-17.067 42.667-42.667v-192c0-25.6-21.333-42.667-42.667-42.667zM89.6 256c-25.6 0-42.667 17.067-42.667 42.667v328.533c0 25.6 17.067 42.667 42.667 42.667s42.667-17.067 42.667-42.667v-328.533c0-25.6-17.067-42.667-42.667-42.667z" />
<glyph unicode="&#xe916;" glyph-name="cabinet6" d="M448 55.467h-256c-25.6 0-42.667 17.067-42.667 42.667v699.733c0 25.6 17.067 42.667 42.667 42.667h256c25.6 0 42.667-17.067 42.667-42.667s-17.067-42.667-42.667-42.667h-213.333v-618.667h213.333c25.6 0 42.667-17.067 42.667-42.667s-17.067-38.4-42.667-38.4zM896 405.333h-448c-25.6 0-42.667 17.067-42.667 42.667s17.067 42.667 42.667 42.667h448c25.6 0 42.667-17.067 42.667-42.667s-17.067-42.667-42.667-42.667zM733.867 243.2c-12.8 0-21.333 4.267-29.867 12.8-17.067 17.067-17.067 42.667 0 59.733l128 128-128 128c-17.067 17.067-17.067 42.667 0 59.733s42.667 17.067 59.733 0l162.133-162.133c17.067-17.067 17.067-42.667 0-59.733l-157.867-153.6c-8.533-8.533-21.333-12.8-34.133-12.8z" />
<glyph unicode="&#xe917;" glyph-name="cabinet5" d="M832 55.467h-640c-21.333 0-38.4 8.533-51.2 21.333s-21.333 34.133-21.333 51.2v541.867c0 8.533 0 12.8 4.267 17.067l64 128c4.267 17.067 21.333 25.6 34.133 25.6h576c17.067 0 29.867-8.533 38.4-25.6l64-128c4.267-4.267 4.267-12.8 4.267-17.067v-546.133c0-21.333-8.533-38.4-21.333-51.2s-29.867-17.067-51.2-17.067zM204.8 140.8h618.667v520.533l-46.933 93.867h-524.8l-46.933-93.867v-520.533zM861.867 627.2h-699.733c-25.6 0-42.667 17.067-42.667 42.667s17.067 42.667 42.667 42.667h704c25.6 0 42.667-17.067 42.667-42.667s-21.333-42.667-46.933-42.667zM512 183.467c-25.6 0-42.667 17.067-42.667 42.667v315.733c0 25.6 17.067 42.667 42.667 42.667s42.667-17.067 42.667-42.667v-320c0-21.333-17.067-38.4-42.667-38.4zM512 183.467c-12.8 0-21.333 4.267-29.867 12.8l-128 128c-17.067 17.067-17.067 42.667 0 59.733s42.667 17.067 59.733 0l98.133-98.133 98.133 98.133c17.067 17.067 42.667 17.067 59.733 0s17.067-42.667 0-59.733l-128-128c-8.533-12.8-17.067-12.8-29.867-12.8z" />
<glyph unicode="&#xe918;" glyph-name="cabinet4" d="M512 21.333c-8.533 0-12.8 0-21.333 4.267-17.067 8.533-439.467 238.933-439.467 524.8 0 68.267 25.6 132.267 76.8 183.467 46.933 46.933 115.2 76.8 183.467 76.8 81.067 0 153.6-34.133 200.533-89.6 46.933 55.467 119.467 89.6 200.533 89.6 68.267 0 132.267-25.6 183.467-76.8 46.933-46.933 76.8-115.2 76.8-183.467 0-285.867-422.4-516.267-439.467-524.8-8.533-4.267-12.8-4.267-21.333-4.267zM311.467 725.333c-46.933 0-89.6-17.067-123.733-51.2-29.867-34.133-51.2-76.8-51.2-123.733 0-204.8 294.4-392.533 375.467-439.467 81.067 46.933 375.467 234.667 375.467 439.467 0 46.933-17.067 89.6-51.2 123.733s-76.8 51.2-123.733 51.2c-72.533 0-136.533-38.4-162.133-102.4-8.533-17.067-21.333-25.6-38.4-25.6s-34.133 8.533-38.4 25.6c-25.6 64-89.6 102.4-162.133 102.4z" />
<glyph unicode="&#xe919;" glyph-name="cabinet3" d="M802.133-12.8h-580.267c-25.6 0-42.667 17.067-42.667 42.667s17.067 42.667 42.667 42.667h576c25.6 0 42.667-17.067 42.667-42.667s-17.067-42.667-38.4-42.667zM512 371.2c-93.867 0-170.667 76.8-170.667 170.667s76.8 170.667 170.667 170.667c93.867 0 170.667-76.8 170.667-170.667s-76.8-170.667-170.667-170.667zM512 627.2c-46.933 0-85.333-38.4-85.333-85.333s38.4-85.333 85.333-85.333c46.933 0 85.333 38.4 85.333 85.333s-38.4 85.333-85.333 85.333zM512-12.8c-8.533 0-17.067 4.267-25.6 8.533-12.8 8.533-337.067 238.933-337.067 546.133 0 98.133 38.4 187.733 106.667 256s157.867 106.667 256 106.667c98.133 0 187.733-38.4 256-106.667s106.667-157.867 106.667-256c0-307.2-324.267-537.6-337.067-546.133-8.533-4.267-17.067-8.533-25.6-8.533zM512 823.467c-72.533 0-145.067-29.867-196.267-81.067s-81.067-123.733-81.067-200.533c0-217.6 204.8-401.067 277.333-456.533 72.533 55.467 277.333 243.2 277.333 456.533 0 72.533-29.867 145.067-81.067 196.267-51.2 55.467-123.733 85.333-196.267 85.333z" />
<glyph unicode="&#xe91a;" glyph-name="cabinet2" d="M832 12.8h-640c-42.667 0-76.8 34.133-76.8 76.8v443.733c0 42.667 34.133 76.8 76.8 76.8h640c42.667 0 76.8-34.133 76.8-76.8v-448c-4.267-42.667-34.133-72.533-76.8-72.533zM204.8 98.133h618.667v426.667h-618.667v-426.667zM832 524.8v0 0zM349.867 524.8c-25.6 0-42.667 17.067-42.667 42.667v128c0 55.467 21.333 106.667 59.733 145.067 38.4 34.133 89.6 55.467 145.067 55.467 98.133 0 183.467-68.267 200.533-162.133 4.267-21.333-8.533-46.933-34.133-51.2-21.333-4.267-46.933 8.533-51.2 34.133-12.8 55.467-59.733 93.867-119.467 93.867-29.867 0-59.733-12.8-81.067-34.133s-34.133-51.2-34.133-81.067v-128c0-25.6-17.067-42.667-42.667-42.667z" />
<glyph unicode="&#xe91b;" glyph-name="cabinet1" d="M512 21.333c-234.667 0-426.667 192-426.667 426.667s192 426.667 426.667 426.667c234.667 0 426.667-192 426.667-426.667s-192-426.667-426.667-426.667zM512 789.333c-187.733 0-341.333-153.6-341.333-341.333s153.6-341.333 341.333-341.333 341.333 153.6 341.333 341.333-153.6 341.333-341.333 341.333zM512 277.333c-110.933 0-204.8 89.6-204.8 204.8s93.867 200.533 204.8 200.533 204.8-89.6 204.8-204.8-93.867-200.533-204.8-200.533zM512 597.333c-64 0-119.467-51.2-119.467-119.467s55.467-115.2 119.467-115.2 119.467 51.2 119.467 119.467-55.467 115.2-119.467 115.2zM768 119.467c-17.067 0-29.867 8.533-38.4 21.333-21.333 38.4-51.2 72.533-89.6 98.133-76.8 46.933-179.2 46.933-256 0-38.4-25.6-68.267-55.467-89.6-98.133-8.533-21.333-38.4-29.867-55.467-17.067-21.333 8.533-29.867 38.4-17.067 55.467 25.6 55.467 68.267 98.133 123.733 132.267 102.4 64 243.2 64 345.6 0 51.2-29.867 93.867-76.8 123.733-132.267 8.533-21.333 4.267-46.933-17.067-55.467-17.067-4.267-21.333-4.267-29.867-4.267z" />
<glyph unicode="&#xe91c;" glyph-name="fav2" d="M512 64c0 0-414.72 225.28-414.72 486.4 0 56.32 20.48 112.64 61.44 153.6s97.28 61.44 153.6 61.44c92.16 0 168.96-51.2 199.68-128 30.72 76.8 107.52 128 199.68 128 56.32 0 112.64-20.48 153.6-61.44s61.44-97.28 61.44-153.6c0-261.12-414.72-486.4-414.72-486.4zM512 12.8c-10.24 0-15.36 0-25.6 5.12-15.36 10.24-440.32 240.64-440.32 532.48 0 71.68 25.6 138.24 76.8 189.44s117.76 76.8 189.44 76.8c76.8 0 148.48-30.72 199.68-81.92 51.2 51.2 122.88 87.040 199.68 87.040 71.68 0 138.24-25.6 189.44-76.8s76.8-117.76 76.8-189.44c0-291.84-424.96-522.24-445.44-532.48-5.12-10.24-10.24-10.24-20.48-10.24zM312.32 714.24c-46.080 0-87.040-15.36-117.76-46.080s-46.080-71.68-46.080-117.76c0-179.2 245.76-358.4 363.52-430.080 122.88 71.68 363.52 250.88 363.52 430.080 0 46.080-15.36 87.040-46.080 117.76s-71.68 46.080-117.76 46.080c-71.68 0-128-35.84-153.6-97.28-5.12-15.36-25.6-25.6-46.080-25.6s-40.96 10.24-46.080 30.72c-25.6 56.32-81.92 92.16-153.6 92.16z" />
<glyph unicode="&#xe91d;" glyph-name="order" d="M512-8.533c-25.6 0-42.667 17.067-42.667 42.667v409.6c0 25.6 17.067 42.667 42.667 42.667s42.667-17.067 42.667-42.667v-409.6c0-25.6-17.067-42.667-42.667-42.667zM512 401.067c-8.533 0-12.8 0-21.333 4.267l-379.733 209.067c-21.333 12.8-29.867 38.4-17.067 59.733s38.4 29.867 59.733 17.067l358.4-200.533 362.667 196.267c21.333 12.8 46.933 4.267 59.733-17.067s4.267-46.933-17.067-59.733l-384-204.8c-8.533-4.267-12.8-4.267-21.333-4.267zM512-12.8c-12.8 0-25.6 4.267-34.133 8.533l-354.133 196.267c-12.8 4.267-21.333 17.067-29.867 25.6-4.267 12.8-8.533 25.6-8.533 38.4v384c0 12.8 4.267 25.6 8.533 38.4 8.533 8.533 17.067 21.333 29.867 25.6l349.867 192c21.333 12.8 51.2 12.8 72.533 0l354.133-192c12.8-8.533 21.333-17.067 29.867-25.6s8.533-25.6 8.533-38.4v-384c0-12.8-4.267-25.6-8.533-38.4-8.533-12.8-17.067-21.333-29.867-25.6l-354.133-192c-8.533-8.533-21.333-12.8-34.133-12.8zM170.667 264.533l341.333-187.733 341.333 187.733v366.933l-341.333 187.733-341.333-187.733v-366.933zM704 311.467c-25.6 0-42.667 17.067-42.667 42.667v179.2l-354.133 196.267c-21.333 12.8-29.867 38.4-17.067 59.733 8.533 17.067 34.133 25.6 55.467 12.8l379.733-204.8c12.8-8.533 21.333-21.333 21.333-38.4v-209.067c0-21.333-17.067-38.4-42.667-38.4z" />
<glyph unicode="&#xe91e;" glyph-name="m4" d="M640 149.333c-4.267 0-8.533 0-8.533 0l-256 64c-4.267 0-8.533 4.267-12.8 8.533l-221.867 162.133c-17.067 12.8-25.6 38.4-8.533 59.733 12.8 21.333 38.4 25.6 59.733 8.533l217.6-153.6 226.133-55.467 140.8 140.8c17.067 17.067 42.667 17.067 59.733 0s17.067-42.667 0-59.733l-162.133-162.133c-12.8-8.533-21.333-12.8-34.133-12.8zM733.867 635.733c-4.267 0-8.533 0-12.8 0l-209.067 55.467-209.067-55.467c-25.6-4.267-46.933 8.533-55.467 29.867-4.267 25.6 8.533 46.933 34.133 51.2l221.867 59.733c8.533 0 12.8 0 21.333 0l221.867-59.733c21.333-4.267 38.4-29.867 29.867-51.2-8.533-17.067-25.6-29.867-42.667-29.867zM157.867 371.2c-8.533 0-12.8 0-17.067 4.267l-110.933 55.467c-17.067 8.533-29.867 25.6-38.4 42.667-4.267 17.067-4.267 38.4 4.267 55.467l102.4 204.8c4.267 12.8 12.8 21.333 17.067 25.6 8.533 4.267 17.067 12.8 25.6 12.8 12.8 4.267 21.333 8.533 29.867 4.267 8.533 0 17.067-4.267 29.867-8.533l110.933-55.467c8.533-4.267 17.067-12.8 21.333-25.6s4.267-21.333-4.267-34.133l-132.267-260.267c-4.267-8.533-12.8-17.067-25.6-21.333 0 4.267-4.267 0-12.8 0zM76.8 503.467l64-29.867 93.867 183.467-64 34.133-93.867-187.733zM174.933 699.733v0c0 0 0 0 0 0v0zM861.867 371.2c-4.267 0-8.533 0-12.8 4.267-12.8 4.267-21.333 12.8-25.6 21.333l-132.267 260.267c-4.267 8.533-4.267 21.333-4.267 34.133s12.8 21.333 21.333 25.6l110.933 55.467c8.533 4.267 17.067 8.533 29.867 8.533 8.533 0 21.333 0 29.867-4.267s17.067-8.533 25.6-12.8c8.533-8.533 12.8-12.8 17.067-21.333l102.4-204.8c8.533-17.067 8.533-38.4 4.267-55.467s-21.333-34.133-38.4-42.667l-110.933-55.467c0-8.533-8.533-12.8-17.067-12.8zM789.333 657.067l93.867-183.467 64 29.867-93.867 187.733-64-34.133zM802.133 311.467c-8.533 0-17.067 4.267-25.6 8.533l-136.533 102.4c-81.067-64-183.467-68.267-264.533-17.067-8.533 4.267-17.067 12.8-21.333 25.6-8.533 12.8-12.8 21.333-12.8 34.133s0 21.333 4.267 34.133c4.267 8.533 8.533 21.333 17.067 29.867l183.467 174.933c8.533 8.533 17.067 12.8 29.867 12.8h162.133c25.6 0 42.667-17.067 42.667-42.667s-17.067-42.667-42.667-42.667h-140.8l-157.867-153.6c46.933-25.6 115.2-25.6 174.933 34.133 17.067 17.067 38.4 17.067 55.467 4.267l132.267-102.4 38.4 38.4c17.067 17.067 42.667 17.067 59.733 0s17.067-42.667 0-59.733l-68.267-72.533c-8.533-8.533-21.333-8.533-29.867-8.533zM422.4 482.133c0 0 0 0 0 0s0 0 0 0zM494.933 55.467c-4.267 0-8.533 0-8.533 0l-166.4 42.667c-4.267 0-8.533 4.267-12.8 8.533l-106.667 76.8c-17.067 12.8-25.6 38.4-8.533 59.733 12.8 21.333 38.4 25.6 59.733 8.533l98.133-72.533 157.867-38.4c21.333-4.267 38.4-29.867 29.867-51.2-4.267-21.333-21.333-34.133-42.667-34.133z" />
<glyph unicode="&#xe91f;" glyph-name="m3" d="M512 277.333c-110.933 0-204.8 89.6-204.8 204.8s93.867 200.533 204.8 200.533 204.8-89.6 204.8-204.8-93.867-200.533-204.8-200.533zM512 597.333c-64 0-119.467-51.2-119.467-119.467s55.467-115.2 119.467-115.2 119.467 51.2 119.467 119.467-55.467 115.2-119.467 115.2zM256 119.467c-8.533 0-12.8 0-21.333 4.267-21.333 8.533-29.867 38.4-17.067 55.467 25.6 55.467 68.267 98.133 123.733 132.267 102.4 64 243.2 64 345.6 0 51.2-29.867 93.867-76.8 123.733-132.267 8.533-21.333 4.267-46.933-17.067-55.467-21.333-12.8-46.933-4.267-55.467 17.067-21.333 38.4-51.2 72.533-89.6 98.133-76.8 46.933-179.2 46.933-256 0-38.4-25.6-68.267-55.467-89.6-98.133-17.067-12.8-34.133-21.333-46.933-21.333zM512 21.333c-21.333 0-42.667 0-68.267 4.267-89.6 12.8-170.667 55.467-234.667 119.467s-106.667 145.067-119.467 234.667c-12.8 89.6 0 179.2 42.667 260.267s106.667 145.067 187.733 187.733c81.067 42.667 170.667 55.467 260.267 38.4 21.333-4.267 38.4-25.6 34.133-51.2-4.267-21.333-25.6-38.4-51.2-34.133-72.533 12.8-145.067 0-209.067-29.867-64-34.133-115.2-85.333-149.333-149.333s-46.933-136.533-34.133-209.067c12.8-72.533 42.667-136.533 93.867-187.733s115.2-85.333 187.733-93.867c72.533-12.8 145.067 0 209.067 34.133s115.2 85.333 149.333 149.333 42.667 136.533 29.867 209.067c-4.267 21.333 12.8 46.933 34.133 51.2s46.933-12.8 51.2-34.133c17.067-89.6 0-179.2-38.4-260.267-42.667-81.067-106.667-145.067-187.733-187.733-51.2-34.133-119.467-51.2-187.733-51.2zM802.133 627.2c-12.8 0-21.333 4.267-29.867 12.8l-68.267 64c-17.067 17.067-17.067 42.667 0 59.733s42.667 17.067 59.733 0l34.133-34.133 98.133 102.4c17.067 17.067 42.667 17.067 59.733 0s17.067-42.667 0-59.733l-128-128c-4.267-12.8-17.067-17.067-25.6-17.067z" />
<glyph unicode="&#xe920;" glyph-name="m2" d="M512 192c25.6 0 46.933 21.333 46.933 46.933s-21.333 46.933-46.933 46.933-46.933-21.333-46.933-46.933 21.333-46.933 46.933-46.933zM512 341.333c-25.6 0-42.667 17.067-42.667 42.667v34.133c0 25.6 17.067 42.667 42.667 42.667 46.933 0 85.333 29.867 85.333 68.267s-38.4 68.267-85.333 68.267c-46.933 0-85.333-29.867-85.333-68.267v-17.067c0-25.6-17.067-42.667-42.667-42.667s-42.667 17.067-42.667 42.667v17.067c0 85.333 76.8 153.6 170.667 153.6s170.667-68.267 170.667-153.6c0-72.533-55.467-132.267-128-149.333-4.267-21.333-21.333-38.4-42.667-38.4zM512 21.333c-234.667 0-426.667 192-426.667 426.667s192 426.667 426.667 426.667c234.667 0 426.667-192 426.667-426.667s-192-426.667-426.667-426.667zM512 789.333c-187.733 0-341.333-153.6-341.333-341.333s153.6-341.333 341.333-341.333 341.333 153.6 341.333 341.333-153.6 341.333-341.333 341.333z" />
<glyph unicode="&#xe921;" glyph-name="m1" d="M418.133 21.333c-149.333 0-264.533 187.733-264.533 426.667s110.933 426.667 264.533 426.667 264.533-187.733 264.533-426.667-115.2-426.667-264.533-426.667zM418.133 789.333c-98.133 0-179.2-157.867-179.2-341.333s81.067-341.333 179.2-341.333 179.2 157.867 179.2 341.333c0 183.467-81.067 341.333-179.2 341.333zM605.867 21.333h-187.733c-25.6 0-42.667 17.067-42.667 42.667s17.067 42.667 42.667 42.667h192c98.133 0 179.2 157.867 179.2 341.333s-81.067 341.333-179.2 341.333h-192c-25.6 0-42.667 17.067-42.667 42.667s17.067 42.667 42.667 42.667h192c149.333 0 264.533-187.733 264.533-426.667s-115.2-426.667-268.8-426.667zM776.533 661.333h-192c-25.6 0-42.667 17.067-42.667 42.667s17.067 42.667 42.667 42.667h192c25.6 0 42.667-17.067 42.667-42.667s-21.333-42.667-42.667-42.667zM832 405.333h-192c-25.6 0-42.667 17.067-42.667 42.667s17.067 42.667 42.667 42.667h192c25.6 0 42.667-17.067 42.667-42.667s-17.067-42.667-42.667-42.667zM776.533 149.333h-192c-25.6 0-42.667 17.067-42.667 42.667s17.067 42.667 42.667 42.667h192c25.6 0 42.667-17.067 42.667-42.667s-21.333-42.667-42.667-42.667z" />
<glyph unicode="&#xe922;" glyph-name="wtt" d="M29.257-71.314c-10.971 0-18.286 3.657-25.6 10.971s-10.971 21.943-10.971 32.914l58.514 234.057c-40.229 73.143-58.514 157.257-58.514 241.371 0 285.257 234.057 519.314 519.314 519.314s519.314-234.057 519.314-519.314c0-285.257-234.057-519.314-519.314-519.314-84.114 0-164.571 21.943-241.371 58.514l-234.057-58.514c0 0-3.657 0-7.314 0zM277.943 64c7.314 0 10.971 0 18.286-3.657 65.829-36.571 142.629-54.857 215.771-54.857 245.029 0 446.171 201.143 446.171 446.171s-201.143 442.514-446.171 442.514-446.171-201.143-446.171-446.171c0-76.8 18.286-149.943 54.857-215.771 3.657-7.314 7.314-18.286 3.657-25.6l-47.543-186.514 186.514 47.543c7.314-3.657 10.971-3.657 14.629-3.657zM654.629 144.457c-117.029 0-245.029 95.086-296.229 149.943-73.143 73.143-230.4 288.914-98.743 420.571 29.257 25.6 58.514 40.229 91.429 40.229 40.229 0 65.829-21.943 76.8-32.914 73.143-73.143 84.114-131.657 36.571-179.2-7.314-7.314-21.943-18.286-36.571-29.257-3.657-3.657-7.314-7.314-10.971-7.314 3.657-18.286 36.571-58.514 65.829-91.429 29.257-29.257 73.143-58.514 91.429-65.829 3.657 3.657 7.314 7.314 7.314 10.971 10.971 14.629 18.286 25.6 29.257 36.571 69.486 69.486 149.943-10.971 179.2-36.571 10.971-10.971 32.914-36.571 32.914-76.8 0-32.914-14.629-62.171-43.886-91.429-36.571-32.914-80.457-47.543-124.343-47.543zM351.086 682.057c-14.629 0-29.257-10.971-36.571-21.943-91.429-91.429 54.857-274.286 98.743-318.171s226.743-186.514 318.171-98.743c10.971 10.971 21.943 25.6 21.943 36.571s-7.314 21.943-10.971 25.6c-54.857 54.857-69.486 43.886-73.143 36.571-3.657-3.657-14.629-18.286-21.943-29.257s-14.629-21.943-18.286-25.6c-54.857-54.857-149.943 32.914-190.171 69.486v0c-40.229 40.229-124.343 135.314-69.486 190.171 3.657 3.657 14.629 10.971 25.6 18.286s21.943 18.286 29.257 21.943c7.314 7.314 18.286 18.286-36.571 73.143-14.629 14.629-25.6 21.943-36.571 21.943 0 0 0 0 0 0z" />
<glyph unicode="&#xe923;" glyph-name="tgg" d="M702.171 60.343c-3.657 0-10.971 0-14.629 0-10.971 3.657-21.943 7.314-32.914 14.629l-354.743 310.857-226.743 43.886c-14.629 3.657-25.6 10.971-32.914 18.286-7.314 10.971-14.629 21.943-14.629 36.571s3.657 25.6 7.314 36.571c7.314 10.971 18.286 18.286 29.257 25.6l815.543 318.171c7.314 3.657 14.629 3.657 21.943 3.657s14.629-3.657 18.286-7.314c7.314-3.657 10.971-10.971 14.629-18.286s3.657-14.629 0-21.943l-164.571-709.486c-3.657-10.971-7.314-21.943-14.629-29.257s-18.286-14.629-29.257-18.286c-7.314-3.657-14.629-3.657-21.943-3.657zM705.829 129.829v0 0zM131.657 495.543l197.486-40.229c7.314 0 10.971-3.657 18.286-7.314l354.743-310.857 146.286 640-716.8-281.6zM95.086 480.914v0c0 0 0 0 0 0zM321.829 382.171c-10.971 0-21.943 3.657-29.257 14.629-10.971 14.629-7.314 40.229 7.314 51.2l574.171 413.257c18.286 10.971 40.229 7.314 51.2-7.314s7.314-40.229-10.971-51.2l-574.171-413.257c-3.657-3.657-10.971-7.314-18.286-7.314zM351.086 89.6c-7.314 0-18.286 0-25.6 3.657-10.971 3.657-21.943 14.629-32.914 25.6-7.314 10.971-10.971 25.6-10.971 36.571v259.657c0 21.943 14.629 36.571 36.571 36.571s36.571-14.629 36.571-36.571v-248.686l113.371 120.686c14.629 14.629 36.571 14.629 51.2 0s14.629-36.571 0-51.2l-117.029-124.343c-10.971-10.971-21.943-18.286-36.571-18.286-3.657 0-7.314-3.657-14.629-3.657zM358.4 159.086v0 0 0z" />
<glyph unicode="&#xe924;" glyph-name="fbb" d="M512 27.429c-230.4 0-420.571 190.171-420.571 420.571s190.171 420.571 420.571 420.571c230.4 0 420.571-190.171 420.571-420.571s-190.171-420.571-420.571-420.571zM512 795.429c-190.171 0-347.429-157.257-347.429-347.429s157.257-347.429 347.429-347.429 347.429 157.257 347.429 347.429-157.257 347.429-347.429 347.429zM512 27.429c-21.943 0-36.571 14.629-36.571 36.571v449.829c0 36.571 14.629 69.486 40.229 95.086s58.514 40.229 95.086 40.229h65.829c21.943 0 36.571-14.629 36.571-36.571s-14.629-36.571-36.571-36.571h-65.829c-14.629 0-29.257-7.314-40.229-18.286s-18.286-25.6-18.286-40.229v-446.171c-3.657-29.257-18.286-43.886-40.229-43.886zM640 345.6h-256c-21.943 0-36.571 14.629-36.571 36.571s14.629 36.571 36.571 36.571h256c21.943 0 36.571-14.629 36.571-36.571s-14.629-36.571-36.571-36.571z" />
<glyph unicode="&#xe925;" glyph-name="vbb" d="M470.246 929.288c36.29 1.282 72.624 0.741 108.859-1.607 51.877-2.187 103.303-10.754 153.073-25.536 36.893-10.624 71.998-26.694 104.141-47.679 31.32-21.475 56.649-50.582 73.607-84.536 19.931-39.653 33.474-82.204 40.144-126.072 4.33-26.044 7.186-52.313 8.536-78.677 1.894-32.688 1.668-65.532 0.428-98.074-1.24-32.534-3.994-64.121-8.002-96-5.065-47.854-19.789-94.204-43.286-136.214-30.585-53.142-79.587-93.268-137.75-112.823-39.764-13.908-80.83-23.793-122.569-29.535-30.537-4.22-61.173-7.296-91.93-8.536-23.537-1.090-47.071-0.79-70.608-0.428-13.334 0-26.595 1.302-39.856 2.465-1.302 0.245-2.673 0.124-3.895-0.391-1.211-0.519-2.238-1.401-2.962-2.501-26.818-32.176-54.656-63.488-82.715-94.643-5.111-5.683-11.036-10.602-17.571-14.57-4.288-2.809-9.19-4.571-14.286-5.146-5.097-0.571-10.264 0.073-15.071 1.858-4.806 1.785-9.125 4.67-12.607 8.43-3.485 3.76-6.054 8.287-7.464 13.213-2.775 8.752-4.144 17.891-4.071 27.074-0.073 14.413-0.071 28.624-0.071 42.818v48.252c0.113 0.651 0.083 1.32-0.071 1.964-0.158 0.647-0.454 1.287-0.857 1.821-0.398 0.523-0.893 0.962-1.464 1.287-0.579 0.325-1.232 0.534-1.893 0.607-39.916 11.326-76.762 31.51-107.786 59.034-22.605 20.542-41.426 44.891-55.607 71.929-19.986 39.055-33.291 81.167-39.357 124.606-7.515 54.495-10.148 109.575-7.822 164.539 0.51 25.618 1.835 50.951 4.75 76.57 4.649 48.689 16.937 96.346 36.429 141.214 24.071 55.171 67.762 99.475 122.607 124.393 37.36 17.076 76.658 29.562 117.036 37.143 39.597 7.491 79.698 12.082 119.963 13.75zM553.461 860.931c-35.811 1.844-71.709 1.661-107.498-0.572-25.732-1.908-51.328-5.347-76.643-10.321-37.246-6.781-73.291-19.079-106.929-36.429-19.499-9.841-37.189-22.903-52.321-38.643-24.527-27.381-42.541-59.958-52.643-95.286-11.982-41.137-18.494-83.667-19.429-126.501-2.345-42.84-1.841-85.804 1.571-128.571 2.123-25.45 6.422-50.692 12.786-75.429 9.469-38.532 27.818-74.32 53.607-104.499 27.851-30.793 63.865-53.109 103.857-64.358 5.029-1.529 7.286-3.284 7.286-8.964-0.437-20.963 0-41.929 0-62.892l-0.357-107.359 3.429 3.178 60.857 67.5c23.417 25.962 46.808 51.957 70.177 77.967 1.148 1.584 2.714 2.812 4.502 3.606 1.792 0.794 3.767 1.112 5.712 0.892 7.94-0.801 15.883-1.104 23.896-1.178 27.692 0 55.409 0 83.105 1.964 25.132 1.964 50.194 5.036 75.107 8.964 26.836 4.667 53.427 10.781 79.609 18.286 58.295 15.653 103.402 49.134 131.749 103.358 16.739 33.342 27.224 69.46 30.965 106.573 4.429 34.973 7.102 70.151 7.965 105.392 1.291 44.277-1.733 88.594-9.037 132.286-5.061 31.651-14.171 62.524-27.107 91.857-16.468 36.391-39.793 66.529-75.714 85.893-55.099 29.7-114.743 42.944-176.179 49.714-17.415 1.892-34.834 2.917-52.323 3.572zM329.855 724.073c7.472 4.603 16.372 6.382 25.036 4.964 8.661-1.418 16.532-5.936 22.142-12.679 19.818-20.809 37.555-43.501 52.966-67.75 7.629-10.911 13.411-23.022 17.072-35.821 1.459-4.99 1.525-10.281 0.249-15.321-1.28-5.038-3.873-9.665-7.537-13.358-8.404-8.24-17.375-15.905-26.821-22.927-4.758-3.789-8.335-8.898-10.214-14.68-1.876-5.782-1.982-11.999-0.355-17.858 5.837-27.52 19.050-52.952 38.25-73.534 23.329-28.445 53.394-50.64 87.464-64.571 8.368-4.297 17.96-5.614 27.176-3.716 5.051 1.375 9.534 4.326 12.822 8.393 5.102 6.477 10.661 12.731 15.25 19.643 5.954 8.62 15.035 14.581 25.322 16.607s20.966-0.033 29.751-5.749c24.7-14.314 48.037-30.892 69.676-49.499 5.102-4.37 10.437-8.598 15.539-13.038 6.031-4.597 10.375-11.052 12.39-18.355 2.015-7.307 1.576-15.078-1.251-22.107-4.502-11.831-11.074-22.777-19.39-32.322-10.339-14.351-23.493-26.456-38.678-35.536-7.259-4.257-15.426-6.777-23.823-7.322-8.4-0.541-16.827 0.896-24.572 4.18-58.964 23.709-114.055 56.093-163.463 96.033-48.322 39.735-90.565 86.32-125.358 138.288-29.274 43.023-52.582 89.823-69.25 139.107-1.775 5.961-3.219 12.029-4.357 18.143-0.324 2.655-0.369 5.334-0.143 8-0.51 15.942 8.148 27.519 18.643 37.929 13.838 13.24 29.083 24.926 45.465 34.857zM517.391 728.681c49.331-0.912 96.783-19.086 134.071-51.357 37.285-32.271 62.073-76.577 70.001-125.215 3.189-17.679 4.868-35.606 5.072-53.57 0-4.224-1.090-7.278-5.61-7.713-4.506-0.432-5.676 3.397-5.676 7.248 0.677 36.348-6.788 72.408-21.859 105.5-12.69 27.184-31.488 51.075-54.927 69.821-23.446 18.747-50.915 31.867-80.252 38.286-15.514 3.587-31.397 5.411-47.32 5.5-1.547-0.026-3.083 0.197-4.571 0.607-1.273 0.358-2.37 1.183-3.035 2.321-0.669 1.141-0.852 2.503-0.538 3.786 0.011 0.601 0.121 1.198 0.358 1.75 0.241 0.554 0.596 1.081 1.035 1.5s0.969 0.747 1.536 0.964c0.567 0.216 1.181 0.304 1.785 0.286 3.28 0.437 6.649 0.286 9.929 0.286zM528.962 671.538c64.563-3.936 119.523-40.411 136.43-108.323 3.090-13.093 4.612-26.511 4.571-39.962v-3.643c0-3.639-2.326-6.038-5.895-5.965-0.786 0.026-1.569 0.201-2.286 0.534-0.717 0.336-1.364 0.837-1.891 1.43-0.523 0.592-0.933 1.287-1.178 2.033-0.245 0.75-0.318 1.54-0.252 2.322-0.581 3.419-0.464 6.919-0.464 11.359-0.245 20.224-5.208 40.119-14.533 58.072-9.326 17.942-22.736 33.447-39.142 45.284-19.16 13.443-41.468 21.795-64.75 24.25-3.931 0.508-7.859 0.743-11.86 1.179-4.008 0.437-6.433 2.104-6.071 6.178 0.366 4.077 2.948 5.541 7.322 5.25zM544.892 612.395c35.419-2.402 60.149-19.722 66.926-57.358 0.823-4.82 1.408-9.691 1.752-14.57 0-3.924-0.892-7.281-5.179-7.285-4.297 0-5.782 2.922-5.928 7.285-0.040 14.424-4.491 28.489-12.752 40.32-8.682 10.715-21.138 17.725-34.82 19.536-3.054 0.571-6.148 0.938-9.249 1.143-5.102 0-7.943 2.569-7.289 6.5 0.662 3.915 3.701 4.644 6.539 4.428z" />
<glyph unicode="&#xe926;" glyph-name="added" d="M967.68-58.88h-911.36c-5.12 0-15.36 5.12-20.48 10.24s-5.12 15.36-5.12 20.48l112.64 706.56c0 10.24 10.24 20.48 25.6 20.48h680.96c10.24 0 25.6-10.24 25.6-20.48l112.64-706.56c0-5.12 0-15.36-5.12-20.48 0-5.12-5.12-10.24-15.36-10.24zM87.040-7.68h849.92l-107.52 655.36h-634.88l-107.52-655.36zM465.92 115.2c-5.12 0-15.36 5.12-20.48 10.24l-107.52 112.64c-10.24 10.24-10.24 25.6 0 35.84s25.6 10.24 35.84 0l92.16-92.16 230.4 235.52c10.24 10.24 25.6 10.24 35.84 0s10.24-25.6 0-35.84l-250.88-256c0-5.12-5.12-10.24-15.36-10.24zM680.96 514.56c-15.36 0-25.6 10.24-25.6 25.6v189.44c0 87.040-66.56 163.84-143.36 163.84-81.92 0-143.36-71.68-143.36-163.84v-189.44c0-15.36-10.24-25.6-25.6-25.6s-25.6 15.36-25.6 25.6v189.44c0 117.76 87.040 215.040 194.56 215.040s194.56-97.28 194.56-215.040v-189.44c0-10.24-10.24-25.6-25.6-25.6z" />
</font>
</defs>
</svg>
