<svg width="28" height="28" viewBox="0 0 28 28" fill="none" xmlns="http://www.w3.org/2000/svg">
<g clip-path="url(#clip0_702_990)">
<path d="M8.75012 14.7513L18.6223 23.4061C18.736 23.5064 18.8739 23.5755 19.0223 23.6065C19.1708 23.6375 19.3247 23.6294 19.4691 23.5829C19.6135 23.5365 19.7433 23.4534 19.8458 23.3416C19.9484 23.2299 20.0201 23.0934 20.054 22.9456L24.5001 3.63329C24.5045 3.61393 24.5034 3.59375 24.4972 3.57491C24.4909 3.55608 24.4797 3.5393 24.4646 3.52637C24.4496 3.51345 24.4313 3.50487 24.4117 3.50154C24.3921 3.49822 24.372 3.50028 24.3536 3.50751L2.18762 12.182C2.05002 12.235 1.9333 12.3312 1.855 12.4561C1.7767 12.581 1.74104 12.728 1.75336 12.8749C1.76569 13.0219 1.82534 13.1608 1.92336 13.271C2.02139 13.3811 2.15249 13.4565 2.297 13.4858L8.75012 14.7513Z" stroke="white" stroke-width="2" stroke-linecap="round" stroke-linejoin="round"/>
<path d="M8.75 14.7513L24.4355 3.50977" stroke="white" stroke-width="2" stroke-linecap="round" stroke-linejoin="round"/>
<path d="M13.603 19.0077L10.255 22.4815C10.134 22.607 9.97832 22.6935 9.80785 22.7299C9.63738 22.7664 9.45991 22.751 9.2982 22.6859C9.1365 22.6208 8.99792 22.5089 8.90025 22.3645C8.80258 22.2201 8.75026 22.0499 8.75 21.8755V14.752" stroke="white" stroke-width="2" stroke-linecap="round" stroke-linejoin="round"/>
</g>
<defs>
<clipPath id="clip0_702_990">
<rect width="28" height="28" fill="white"/>
</clipPath>
</defs>
</svg>
