<svg width="28" height="28" viewBox="0 0 28 28" fill="none" xmlns="http://www.w3.org/2000/svg">
<g clip-path="url(#clip0_702_1002)">
<path d="M17.5 14L12.25 10.5V17.5L17.5 14Z" stroke="white" stroke-width="2" stroke-linecap="round" stroke-linejoin="round"/>
<path d="M2.625 14.0001C2.625 17.2715 2.96078 19.1899 3.21672 20.1765C3.2844 20.4449 3.41476 20.6933 3.59709 20.9015C3.77943 21.1097 4.00854 21.2717 4.26562 21.3742C7.93188 22.7884 14 22.7501 14 22.7501C14 22.7501 20.0681 22.7884 23.7344 21.3742C23.9923 21.2723 24.2223 21.1105 24.4054 20.9023C24.5885 20.6941 24.7195 20.4453 24.7877 20.1765C25.0436 19.1921 25.3794 17.2715 25.3794 14.0001C25.3794 10.7287 25.0436 8.81026 24.7877 7.8237C24.7203 7.55389 24.5896 7.30403 24.4065 7.0948C24.2233 6.88557 23.9929 6.723 23.7344 6.62057C20.0681 5.21182 14 5.2501 14 5.2501C14 5.2501 7.93188 5.21182 4.26562 6.62604C4.0071 6.72847 3.7767 6.89104 3.59353 7.10027C3.41036 7.3095 3.27969 7.55936 3.21234 7.82916C2.96078 8.80916 2.625 10.7287 2.625 14.0001Z" stroke="white" stroke-width="2" stroke-linecap="round" stroke-linejoin="round"/>
</g>
<defs>
<clipPath id="clip0_702_1002">
<rect width="28" height="28" fill="white"/>
</clipPath>
</defs>
</svg>
