<svg width="171" height="31" viewBox="0 0 171 31" fill="none" xmlns="http://www.w3.org/2000/svg">
<g clip-path="url(#clip0_988_40910)">
<path d="M52.8817 30.2974H46.0466L38.1204 16.8725L35.1737 16.5539V27.6368C35.1737 27.9178 35.7985 28.9577 36.1062 29.2013C37.132 29.9882 38.7172 29.1544 38.596 30.2974H28.3386C28.0961 29.2669 29.4296 29.8008 30.2222 29.5385C31.0521 29.2575 31.4531 28.3206 31.621 27.5056C32.283 24.3484 32.1991 7.4385 31.7329 3.93473C31.6489 3.32578 31.2759 2.12663 30.819 1.73316C29.8399 0.880632 28.208 1.81747 28.3386 0.627686H40.3024C40.5356 0.627686 42.4285 1.10547 42.8108 1.23663C47.9582 2.97915 48.9746 10.6238 44.9649 14.0526C43.8179 15.0363 42.5591 15.2143 41.4308 16.0855C41.3841 16.7882 47.9862 27.084 48.8627 27.9553C50.2428 29.3231 51.5576 29.1357 52.9004 30.2974H52.8817ZM35.1644 2.50136V14.8395C35.1644 15.6639 38.3349 15.0175 38.9037 14.8489C43.0253 13.6497 44.3308 9.27471 42.9507 5.45241C41.7478 2.11726 38.2137 1.61137 35.1644 2.50136Z" fill="#0F1010"/>
<path d="M168.818 0.627686V6.8764L167.652 3.52252C167.522 3.22273 166.282 2.19221 166.179 2.19221H157.013V14.062H163.699C165.517 14.062 166.021 11.7105 166.328 10.4458C166.459 9.92113 166.021 9.53702 166.962 9.68692V19.9921C165.871 20.1327 166.17 18.1372 165.937 17.4252C165.722 16.7507 164.65 15.6171 164.006 15.6171H157.013V28.2644C159.027 29.473 164.407 29.398 166.515 28.4424C168.622 27.4869 169.051 25.5101 170.058 23.88C170.319 23.4585 170.291 22.9713 171.009 23.1212C170.012 25.3977 170.04 28.2644 168.678 30.2974H150.187L152.994 28.5923C153.488 27.7211 153.544 26.7561 153.618 25.7818C154.01 20.2638 154.159 9.63071 153.572 4.25325C153.311 1.85494 152.975 1.86431 150.951 1.246C150.476 1.10547 150.028 1.602 150.187 0.627686H168.837H168.818Z" fill="#0F1010"/>
<path d="M99.9003 0.847259V7.09597L98.6228 3.53599C98.4363 3.2362 97.0936 2.41178 96.9444 2.41178H88.0857C88.1883 2.72094 87.778 3.0863 87.778 3.18936V13.4946C87.778 13.5976 88.1883 13.9724 88.0857 14.2722H94.7716C96.4501 14.2722 97.5598 11.3773 97.4199 9.89712C97.5038 9.79407 98.0354 10.3 98.0354 10.3655V19.7339C98.0354 19.7901 97.5318 20.2867 97.4199 20.2024C97.3826 19.0407 96.5527 15.8273 95.0887 15.8273H88.095C88.1976 16.1365 87.7873 16.5018 87.7873 16.6049V26.601C87.7873 26.9195 88.2908 28.0905 88.2442 28.6433C88.813 29.5614 94.6504 29.3272 95.8906 29.1211C98.0167 28.7557 98.9119 27.8282 100.04 26.1138C100.264 25.7672 101.495 22.7318 102.082 23.3314L99.7512 30.5076H80.9428C80.7004 29.4771 82.0245 30.0111 82.8265 29.7394C84.2345 29.271 84.4863 27.8751 84.6355 26.5635C85.223 21.2891 85.0178 11.4242 84.6914 5.98114C84.5702 3.92946 84.7101 2.14947 82.584 1.54052C81.8567 1.33442 80.7097 1.87778 80.9428 0.837891H99.9003V0.847259Z" fill="#0F1010"/>
<path d="M64.0715 0.627686C64.314 1.66758 62.9805 1.12421 62.1879 1.39589C60.9943 1.79873 60.584 3.16652 60.4255 4.30009C59.8474 8.3004 59.9966 21.5192 61.2647 25.1541C63.7825 32.3491 73.7321 29.8758 74.5993 22.2968C75.1215 17.7063 75.2614 11.0079 74.963 6.39861C74.8791 5.11514 74.7299 2.47326 73.6948 1.73316C72.6598 0.993053 71.1025 1.75189 71.2144 0.637054H79.9145C80.157 1.66758 78.8235 1.13358 78.0309 1.40526C76.6881 1.85494 76.427 3.40073 76.2685 4.63736C75.2894 12.4787 79.8213 30.0351 68.2677 30.9532C52.117 32.2366 58.5885 14.2587 57.1431 4.31883C56.9753 3.18526 56.4531 1.54579 55.1942 1.2741C54.4949 1.12421 53.2453 1.72379 53.4878 0.646422H64.0529L64.0715 0.627686Z" fill="#0F1010"/>
<path d="M0.0376291 30.2974C-0.102244 29.4729 0.158853 29.8102 0.485224 29.6416C2.50873 28.5923 2.58333 28.227 3.51582 26.1378C7.0313 18.2215 9.18536 8.8625 12.4584 0.768208L13.251 0L22.6785 26.7655C22.9769 27.3838 23.6483 28.6392 24.1332 29.0514C25.0004 29.7821 26.2033 29.2668 26.1567 30.2974H16.524C17.354 29.1451 18.8459 29.7634 19.0324 27.9646C19.1257 27.0372 17.5032 21.2288 16.9903 20.6105C16.4494 19.9547 8.59789 20.3575 7.1805 20.4512C6.82616 20.6948 4.72805 26.9716 4.7467 27.6555C4.80265 29.5854 6.90075 29.2668 7.8146 30.2974H0.0376291ZM8.58856 19.0553C10.4349 19.327 13.4189 19.0553 15.4237 19.0553C15.5356 19.0553 15.9086 18.6899 16.1884 18.718C14.9668 15.4297 14.1089 10.9235 12.6262 7.80387C12.5143 7.56966 12.0854 6.67966 11.8523 6.86703L7.86122 18.3246C7.5908 18.6993 8.46734 19.0272 8.58856 19.0459V19.0553Z" fill="#0F1010"/>
<path d="M115.051 0.627686C115.2 1.57389 114.817 1.12421 114.295 1.26474C112.44 1.73316 111.367 1.59263 111.041 3.9441C111.414 11.139 110.444 18.9804 111.004 26.1003C111.05 26.6624 111.125 27.7866 111.535 28.1426C112.841 29.2575 119.116 28.8078 120.813 28.1426C123.359 27.1496 123.443 24.3766 124.991 22.5029L122.977 30.3067H104.168C103.926 29.2668 105.092 29.8102 105.81 29.6135C106.984 29.295 107.656 28.2457 107.6 27.0372C106.873 19.7673 108.542 10.68 107.553 3.62557C107.395 2.48263 106.966 1.6301 105.81 1.32095C105.092 1.12421 103.926 1.66758 104.168 0.627686H115.051Z" fill="#0F1010"/>
<path d="M138.046 0.627655C138.298 1.63007 136.927 1.17102 136.162 1.38649C135.052 1.69565 134.251 2.42639 134.027 3.61617L134.073 27.262C134.297 28.4143 135.314 28.6298 136.339 28.7328C138.372 28.9483 141.869 28.8546 143.734 28.0396C146.326 26.9154 146.401 24.3953 147.995 22.4841L146.13 30.288H127.173C126.94 29.2575 128.059 29.8008 128.805 29.576C130.362 29.1169 130.502 27.5243 130.605 26.0816C130.978 20.7884 131.229 8.95615 130.567 3.92533C130.278 1.73312 129.737 1.73312 127.938 1.24597C127.425 1.10544 127.024 1.57386 127.182 0.618286H138.064L138.046 0.627655Z" fill="#0F1010"/>
</g>
<defs>
<clipPath id="clip0_988_40910">
<rect width="171" height="31" fill="white"/>
</clipPath>
</defs>
</svg>
