<svg width="1325" height="925" viewBox="0 0 1325 925" fill="none" xmlns="http://www.w3.org/2000/svg">
<g clip-path="url(#clip0_1022_14955)">
<path d="M611.5 566L701.51 759.01L790.5 566H860V573H842.5C841.5 573 835.91 575.39 834.66 576.16C828.91 579.76 827.38 586.53 826.27 592.77C826.64 652.3 821.44 716.21 825 775.49C825.53 784.23 826.61 798.79 834.66 803.83C835.9 804.61 841.49 806.99 842.5 806.99H860V813.99H755V806.99H771.5C775.59 806.99 782.57 802.94 785.01 799.5C786.87 796.87 790 787.44 790 784.49V606.99L695.92 812.4C689.33 817.52 687.57 811.27 685.15 806.34C653.35 741.65 626.52 674.25 595.26 609.26L593.01 607.98V778.48C593.01 781.22 594.65 790.01 595.49 793C596.7 797.28 598.8 801.39 602.67 803.82C603.91 804.6 609.5 806.98 610.51 806.98H628.01V813.98H543.01V806.98H559.51C560.11 806.98 565.43 805.33 566.41 804.88C571.65 802.52 573.68 796.93 575.3 791.77C579.21 727.06 575.93 661.5 576.99 596.49C575.16 576.45 561.03 572.21 543 572.98V565.97H611.51L611.5 566Z" fill="black"/>
<path d="M273 573V565.99C323.91 568.5 379.09 560.93 429.18 570.31C514.03 586.21 546.26 684.11 505.52 755.01C459.34 835.37 349.6 809.52 273 814V806.99H290.51C290.9 806.99 297.17 804.85 297.94 804.42C304.7 800.6 307.01 790.62 308 783.48C307.73 725.82 311.77 667.12 309.06 609.44C308.71 601.91 307.97 588.64 304.22 582.28C301.98 578.49 293.66 572.99 289.51 572.99H273.01L273 573ZM344.1 795.9C395.59 810.54 447.89 794.46 470.18 743.67C484.14 711.86 483.9 665.84 469.18 634.33C446.42 585.6 393.83 570.7 344.11 585.1V795.91L344.1 795.9Z" fill="black"/>
<path d="M1163 735L1170.12 735.58C1174.31 756.21 1178.94 775.71 1196.09 789.42C1219.75 808.34 1264.63 813.64 1284.98 787.48C1300.93 766.98 1290.73 743.45 1272.33 729.17C1232 697.87 1137.65 673.01 1165.52 603.02C1180.59 565.18 1223.24 554.22 1260 564.5C1267.71 566.66 1284.11 575.4 1290.39 574.96C1303.13 574.07 1298.24 558.58 1306.48 559.95C1308.66 560.31 1309.1 561.31 1309.06 563.45L1308.08 645.56L1301.9 645.42C1297.81 605.75 1271 570.53 1227.64 575.12C1202.78 577.76 1178.78 605.92 1194.58 629.94C1213 657.95 1275.99 678.22 1303.55 702.97C1339.95 735.67 1327.57 791.24 1285.01 811.48C1248.77 828.72 1216.43 814.75 1180.69 805.34C1170.05 805.62 1172.12 817.66 1169.05 819.51C1167.41 820.5 1163.03 820.05 1163.03 818.49V734.99L1163 735Z" fill="black"/>
<path d="M871 814L871.1 807.1C886.67 805.19 894.99 799.28 902.18 785.68L998.47 560.98C1000.57 558.82 1004.91 559.86 1005.76 562.75C1036.67 631.03 1061.35 703.86 1092.83 771.68C1101.13 789.56 1109.68 808.32 1133.01 807V814.01H1036V807C1062.97 806.26 1064.24 796.39 1056.75 773.76C1052.08 759.68 1044.37 746.08 1039.51 732L1036.56 730.95L942.96 731.46C937.44 745.91 929.28 760.21 924.25 774.75C915.13 801.13 922.53 804.91 949 806.99L947.49 813.99H870.99L871 814ZM1033 717L991.01 618L949 717H1033Z" fill="black"/>
<path d="M0 814L0.1 807.1C15.3 805.2 23.65 799.6 30.85 786.36L127.97 560.48C131.06 559.07 133.93 560.17 135.19 563.31C165.77 631.43 190.47 704.13 221.82 771.68C230.12 789.56 238.67 808.32 262 807V814.01H164.99V807C191.96 806.26 193.23 796.39 185.74 773.76C181.07 759.68 173.36 746.08 168.5 732L165.55 730.95L71.95 731.46C66.43 745.91 58.27 760.21 53.24 774.75C44.12 801.13 51.52 804.91 77.99 806.99V814H0ZM162 717L120.01 618L78 717H162Z" fill="black"/>
<path d="M823.081 299.93C819.451 289.9 834.951 290.65 837.551 298.94C840.741 309.12 828.661 319.56 819.001 315.99C818.511 319.48 818.261 323.48 817.351 326.85C806.611 366.48 730.761 432.8 694.671 452.17C688.071 455.71 677.091 461.82 669.751 460.77C652.601 458.3 616.011 430.25 601.991 418.52C580.761 400.76 530.731 352.15 526.251 325.26C525.741 322.19 526.091 319.08 526.001 316C516.921 318.65 507.221 313.67 505.411 304.03C503.101 291.77 521.811 288.86 521.081 297.48C520.611 303.02 514.571 297.93 513.641 298.08C506.531 299.21 514.721 318.22 525.291 311.03C533.891 305.19 543.111 258.87 544.841 247.33C550.581 209.01 549.261 171.28 539.721 133.78C538.991 130.9 534.391 118.41 535.421 116.96L581.971 98.39C587.401 98.16 592.451 99.99 598.031 98.53C603.231 97.17 610.921 86.9 615.531 83.03C650.801 53.47 693.271 53.32 728.471 83.03C733.051 86.9 740.811 97.18 745.971 98.53C751.551 99.99 756.601 98.16 762.031 98.39L808.001 116.5C809.151 117.21 809.051 118.24 808.991 119.39C808.791 123.47 803.771 135.53 802.491 140.99C793.101 180.9 794.041 224.17 802.311 264.19C804.181 273.22 811.811 304.38 817.431 310.06C825.011 317.71 836.261 305.82 830.471 298L823.071 299.93H823.081ZM799.991 121.02L761.241 106.21C757.581 105.54 754.331 107.18 750.491 107.06C737.191 106.66 732.121 95.99 723.011 88.48C691.071 62.15 652.831 61.56 620.981 88.48C612.071 96.01 607.021 106.65 593.501 107.06C589.661 107.17 586.401 105.54 582.751 106.21C577.711 107.13 553.821 117.09 548.321 119.83C547.101 120.44 544.431 121.28 544.121 122.61C561.271 177.69 558.791 241.02 541.261 295.77C539.401 301.58 533.511 312.72 533.041 317.63C532.741 320.85 534.021 324.48 534.961 327.54C545.801 362.91 628.331 437.51 663.011 450.49C671.661 453.73 673.131 453.57 681.671 450.19C717.451 436.02 791.661 367.91 807.161 332.68C809.241 327.96 811.721 321.79 810.941 316.58C810.121 311.08 803.101 296.61 800.971 289.53C786.931 242.91 784.101 190.5 794.301 142.82C795.881 135.46 798.341 128.35 799.981 121.03L799.991 121.02Z" fill="black"/>
<path d="M777.501 470C793.791 468.06 814.491 454.91 818.701 438.21C825.811 410 798.281 404.48 781.211 423.72C777.891 427.46 776.281 426.08 778.481 421.99C790.601 399.47 828.161 399.75 823.741 432.25C819.681 462.08 785.071 480.28 757.121 475.12C748.841 495.41 726.761 504.26 706.001 505.02C706.181 506.65 708.271 506.39 709.491 508.01C713.601 513.47 709.681 521.44 702.621 520.97C692.411 520.29 688.261 500.37 676.991 501.02C677.891 502.93 679.811 504.11 679.891 506.51C680.021 510.36 676.591 509 677.001 512.01C679.401 510.96 682.101 509.94 683.971 512.51C681.661 515.08 678.681 518.63 677.161 521.68C675.521 524.98 673.731 535.94 670.501 536.02C669.291 532.06 668.961 527.95 667.471 524.03C665.731 519.42 661.421 515.05 660.001 511.5C658.741 508.37 665.871 511.71 666.981 511.01C667.221 509.41 665.361 510.37 664.641 508.82C662.851 504.93 664.851 503.84 666.981 501.03C661.411 497.01 650.491 517.24 645.351 519.89C641.511 521.88 636.231 521.68 633.511 517.99C629.381 512.39 637.131 506.06 635.971 505.03C621.181 505.79 603.721 497.59 593.951 486.55C591.961 484.3 587.091 475.61 585.291 475.17C559.041 479.39 523.321 462.21 520.081 433.42C515.891 396.14 559.311 399.66 567.981 428.51C563.971 430.6 562.571 423.36 559.961 420.53C550.321 410.08 527.551 407.47 525.051 425.61C520.651 457.52 556.341 472.39 582.971 470.02C582.231 463.82 581.361 459.99 583.251 453.8C588.941 435.11 615.081 433.58 625.401 449.09C631.171 457.77 628.831 469.57 616.421 468.08C613.231 467.7 612.241 465.04 610.661 465.17C607.211 465.47 595.811 474.92 589.971 474.03C596.801 491.24 620.191 499.67 637.471 500.1C639.161 500.14 644.241 499.91 644.961 498.02C633.661 497.58 626.761 486.93 618.981 480.5C613.361 475.85 606.611 470.09 606.471 482.01C600.001 477.42 602.781 470.9 610.471 470.92C620.361 470.95 630.941 490.75 642.711 492.77C647.341 493.57 655.951 493.35 654.521 486.99C648.791 482.39 642.761 483.75 636.481 486.03C633.061 485.78 641.851 479.43 645.591 479.07C652.201 478.43 661.301 484.09 659.801 491.29C659.391 493.24 657.211 494.37 657.481 496.03C662.811 495.1 667.411 491.59 671.461 488.28L686.971 496.02C684.401 492.88 683.301 492.35 684.431 488.01C686.861 478.7 700.031 480.25 706.961 483.05C707.261 485.65 706.921 484.63 705.501 485.06C702.071 486.12 689.971 485.75 689.051 487.12C686.461 491 693.011 493.92 696.441 494.1C713.501 495 722.491 470.75 735.371 472.04C742.051 472.7 741.201 478.96 740.951 484.03C737.011 481.29 738.341 475.71 731.941 477.47C723.311 479.84 713.461 497.13 702.961 498.04C703.481 500.1 704.431 499.64 705.941 499.61C723.331 499.25 746.631 492.59 753.021 474.61C752.911 474 743.311 470.62 741.601 469.88C739.391 468.92 735.351 465.77 734.041 465.47C732.251 465.07 730.151 467.39 728.231 467.79C711.571 471.27 711.871 448.93 726.271 441.84C746.601 431.83 768.201 447.79 759.951 470.02C765.531 469.55 772.001 470.67 777.451 470.02L777.501 470ZM623.991 456C616.261 434.05 581.701 443.31 587.151 467.35L589.291 468.86C592.451 468.65 605.911 462.03 608.021 459.54C610.581 456.52 609.171 453.03 614.211 451.65C618.811 450.39 620.811 453.73 623.981 456.01L623.991 456ZM735.271 459.73C736.231 461.25 753.731 469.3 755.431 468.93C766.881 447.8 729.281 432.77 721.011 453.99C724.411 449.88 731.151 449.73 733.901 454.6C734.901 456.38 734.591 458.65 735.271 459.73ZM669.011 496.01C668.261 496.96 670.661 499.75 671.641 499.92C673.711 500.26 676.761 496.46 672.111 495.49C671.481 495.36 669.111 495.89 669.011 496.01ZM702.991 505.01L690.001 503.01C691.811 506.81 694.331 510.23 697.501 513C698.551 511.66 697.911 509.25 698.911 507.66C699.911 506.07 702.941 506.95 702.991 505.01ZM653.001 504.01L643.001 505.01L646.501 512.98L653.001 504.01ZM675.001 515.01C672.671 514.59 670.751 512.88 669.001 515.52L671.021 520.99C672.901 522.73 674.991 516.05 675.001 515V515.01Z" fill="black"/>
<path d="M701.99 0.999961C700.97 5.04996 703.97 31.6 707.48 31.87L715.99 25.99C715.3 35.83 708.5 43.14 713.01 52.99C717.23 51.33 719.66 47.58 723.97 45.45C732.3 41.34 738.6 41.09 747.28 44.21C758.38 48.21 766.96 62.09 779 56.98C778.08 62.49 771.09 62.39 767.02 63.47C773.96 72.45 783.15 81.8 794.23 85.26C796.49 85.96 806.39 88.8 807.02 85.45C799.05 71.18 820.2 75.58 811.49 86.96C799.65 102.42 768.46 73.57 761.52 63C758.89 69.47 757.52 76.52 750.72 80.18C736.87 87.64 719.53 71.56 729.01 60.47C734.11 54.5 742.41 57.73 741.02 62.46C740.1 65.56 731.35 61.04 732.17 67.24C733.84 79.92 757.08 79.05 753.96 59.54C751.23 42.5 725.62 42.38 717.47 54.92C715.61 57.78 716.62 64.62 713.54 63.97C711.89 63.62 706.51 49.51 706.22 47.2C705.74 43.32 707.86 40.61 707.51 36.96C683.61 41.35 658.92 41.1 635.02 36.98C635.61 40.59 637.3 43.31 636.82 47.2C636.55 49.4 630.95 63.62 629.5 63.97C625.57 64.9 627.78 58.28 627.78 57.23C627.78 53.82 617.21 47.48 613.83 46.65C591.61 41.2 582.08 67.73 596.74 74.73C604.42 78.4 614.68 70.06 611.58 64.96C609.71 61.88 603.93 65.5 603.02 62.44C601.55 57.48 611.6 53.6 616.21 62.26C622.84 74.7 604.59 87.76 592.09 79.39C586.3 75.51 585.43 70.68 584 64.47C583.72 63.28 584.75 62.66 582.54 62.97C573.37 73.66 557.18 92.12 541.66 90.88C538.32 90.61 533.19 89.03 531.78 85.71C526.4 73.09 544.75 73.56 537.02 85.44C537.67 88.91 548.25 85.77 550.57 85C561.3 81.47 570.68 72.49 577.02 63.46C572.95 62.37 565.95 62.48 565.04 56.97C576.85 62.27 586.38 47.83 597.49 43.93C605.59 41.09 611.61 41.48 619.4 45.09C623.48 46.98 626.02 50.44 630.01 51.96C634.24 43.34 628.36 34.47 626.02 25.97L635.54 31.84C639.18 31.56 642.07 4.09996 641.03 -0.0400391C650.23 11.42 683.7 11.38 695.08 5.51996C697.82 4.10996 699.07 1.31996 702.01 0.959961L701.99 0.999961ZM696.96 11.04C680.31 14.34 662.11 16.33 646.01 9.99996L644 23.99C647.35 21.75 652.97 23.45 655.26 22.84C659.05 21.85 660.22 16.88 668.5 16.91C676.78 16.94 676.71 22.16 679.69 22.84C681.21 23.19 682.94 21.85 684.43 22.04C688.91 22.6 693.63 25.36 698.99 23.98L696.95 11.03L696.96 11.04ZM701 32.99C699.73 25.07 691.62 30.59 688.69 29.84C687.23 29.47 686.42 26.96 684.5 26.95L679.5 30.97C674.74 24.01 669.61 18.07 661.06 24.55C659.54 25.7 657.69 29.02 657.35 29.07C654.13 29.58 646.34 23.61 642.99 32.48C661.91 36.71 681.9 35.41 701 32.98V32.99Z" fill="black"/>
<path d="M969 873.5C969.69 871.25 974.15 871.84 975.72 873.3L1004 914V873.5L1009 872V923L1002.51 921.99L974 881V921.5L969 923V873.5Z" fill="black"/>
<path d="M921.78 871.28C957.53 867.47 961.19 922.05 926.47 923.99C892.01 925.91 888.69 874.8 921.78 871.28ZM919.74 876.24C896.18 880.29 898.31 925.43 931.06 918.56C935.86 917.55 941.85 911.72 943.75 907.25C950.92 890.42 938.51 873.02 919.75 876.25L919.74 876.24Z" fill="black"/>
<path d="M742 923V873.5L743.5 872H758.5C760.66 872 768.18 873.99 770.52 874.98C789.28 882.87 790.19 910.53 772.05 919.55C770.15 920.5 763.14 923 761.5 923H742ZM747 918H763.5C764.17 918 769.9 915.15 770.94 914.44C783.02 906.15 782.88 887.91 770.34 880.17C769.08 879.39 763.51 877.01 762.5 877.01H747V918.01V918Z" fill="black"/>
<path d="M724 877H698V894H722V899H698V918H725V923H693V873.5L694.5 872H722.5L724 877Z" fill="black"/>
<path d="M476 922.99C467.61 926.07 467.9 910.35 464.37 909.13C459.27 909.7 442.02 907.28 438.94 910.43C435.4 914.06 436.64 924.4 429.01 922.99L449.68 872.92C451.96 871.69 454.14 871.57 455.45 874.06L476.01 922.99H476ZM442 905H463C459.84 897.09 457.12 888.7 453.45 881.01C452.96 879.99 453.47 878.39 451.52 878.99C450.19 879.4 442.49 901.86 442.01 905H442Z" fill="black"/>
<path d="M352.76 871.26C359.85 870.4 366.95 872.65 372.54 876.99C374.07 878.77 371.47 882.25 369.64 881.93C350.43 863.68 325.43 889.44 339.17 910.34C344.88 919.03 357.34 922.16 366.35 916.86C369.16 915.21 371.35 909.79 373.55 914.01C375.75 918.23 362.97 923.5 359.39 923.9C324.31 927.76 319.28 875.35 352.75 871.28L352.76 871.26Z" fill="black"/>
<path d="M630.79 871.27C637.59 870.63 647.71 872.78 651 879.47L647.48 881.73C644.1 878.8 641.15 876.49 636.5 876C604.67 872.63 604.84 924.16 638.43 918.93C643.86 918.09 648.53 909.37 651.54 913.96C653.47 916.89 644.25 921.69 641.96 922.47C604.53 935.15 593.71 874.76 630.78 871.27H630.79Z" fill="black"/>
<path d="M549.77 871.25C555.94 870.49 562.11 872.48 565.98 877.5L561.64 879.84C554.61 871.34 536.6 876.9 541.75 888.76C545.36 897.06 573.33 894.39 565.46 914.98C560.88 926.96 542.82 926.04 535 917.48L538.5 913.98C540.34 913.98 542.21 917.19 544.28 918.22C552.79 922.47 564.58 916.44 560.98 906.57C557.97 898.33 543.91 900.15 538.56 892.95C531.38 883.28 538.8 872.62 549.76 871.27L549.77 871.25Z" fill="black"/>
<path d="M501.739 871.24C507.179 870.36 515.459 872.06 517.939 877.37L514.649 879.91C507.719 871.26 489.609 876.88 494.759 888.74C497.729 895.57 513.339 893.94 518.199 903.29C523.799 914.07 514.649 923.9 503.499 924.06C498.579 924.13 481.649 918.63 491.509 913.95C493.359 913.95 495.219 917.16 497.289 918.19C503.949 921.51 513.329 918.92 514.609 911C516.569 898.9 497.809 900.37 491.999 893.49C484.499 884.61 491.079 872.95 501.749 871.22L501.739 871.24Z" fill="black"/>
<path d="M861 877H844V923L839 921.5V877H823V872H859.5L861 877Z" fill="black"/>
<path d="M396 918H419V923H391V873.5C391 871.62 396 871.62 396 873.5V918Z" fill="black"/>
<path d="M808 923H803V873.5C803 871.62 808 871.62 808 873.5V923Z" fill="black"/>
<path d="M585 923V873.5C585 871.62 590 871.62 590 873.5V921.5L585 923Z" fill="black"/>
<path d="M876 923V873.5C876 871.62 881 871.62 881 873.5V921.5L876 923Z" fill="black"/>
<path d="M664.78 80.28C682.98 78.21 701.65 85.77 715.92 96.58C728.32 105.98 731.81 119.35 750.8 114.68L786.59 129.96C771.9 181.69 774.09 238.44 789.73 289.77C791.73 296.34 799.06 312.29 799.07 317.5C799.13 337.91 760.51 378.15 745.52 392.03C733.93 402.76 719.8 414.41 706.71 423.22C700.53 427.38 678.91 440.88 672.49 440.87C664.65 440.85 641.49 426.19 634.27 421.22C620.69 411.88 605.48 399.32 593.46 388.03C579.51 374.93 544.94 338.69 545 319.5C545.02 314.45 552.54 297.5 554.49 291C569.99 239.17 573.6 181.23 558.41 128.95L592.97 114.45C600.74 115.07 606.47 116.64 613.02 111.53C615.82 109.34 617.36 105.87 619.46 103.97C631.33 93.18 648.49 82.14 664.78 80.29V80.28ZM668.8 83.28C655.66 84.2 638.59 92.69 628.53 101.03C620.9 107.35 615.29 117.92 604.51 119C600.62 119.39 596.57 118 593.24 118.65C590.55 119.18 567.19 128.67 564.7 130.2C564.05 130.6 563.28 130.73 563.08 131.63C577.24 183.21 573.51 240.81 558.27 291.77C556.24 298.56 548.81 315.07 548.92 320.51C548.99 323.91 550.78 328.24 552.15 331.37C566.11 363.3 627.79 417.19 659.33 432.19C672.06 438.25 673.49 437.77 686.03 431.53C716.97 416.13 776.25 362.56 790.89 331.39C799.03 314.05 791.64 308.98 786.75 292.78C773.16 247.78 768.89 198.36 777.5 151.99C778.15 148.47 782.65 133.49 781.59 131.97C780.07 129.8 754.91 121.54 750.82 118.7C731.78 123.2 727.23 110.78 715.49 101.05C703.82 91.38 684.09 82.24 668.82 83.3L668.8 83.28Z" fill="black"/>
<path d="M609.5 235C613.5 234.34 619.121 229.2 621.201 225.7L668.891 113.6C673.051 110.99 673.77 115.27 675.17 118.34C690.21 151.35 701.911 189.53 718.141 221.37C720.411 225.83 725.74 235.01 731.5 235.01H751V238.01C737.64 237.25 734.821 240.93 733.951 253.47C731.971 282.25 735.43 313.38 734.1 342.41C735.36 353.45 740.39 355.57 751 355.02V358.02H717.49L673.48 263.01L627.49 358.02H593.99V355.02C606.92 354.38 610.18 351.1 611.04 338.56C612.59 315.86 613.2 273.82 610.87 251.64C610.65 249.54 609.84 245.31 609.06 243.45C605.81 235.64 595.27 239.54 593.48 237.02L594.49 235.02C599.12 234.49 605.09 235.75 609.49 235.02L609.5 235ZM646.5 191H685.5L686.57 188.97L665.51 142L645.43 188.97L646.5 191ZM619 246.5V336L665.49 236L668.51 234.93L717 337V250.5C717 248.16 714.27 240.9 711.76 239.74C706.97 237.51 689.48 240.95 688 237.5C687.83 237.1 687.621 234.96 688.521 235C693.811 235.83 701.201 232.65 700.961 226.6C700.831 223.46 690.94 198.45 689.01 197.49L642.151 197.17C638.191 209.71 617.991 236.07 644.461 235C645.361 234.96 645.15 237.1 644.98 237.5C642.86 242.44 621.39 233.04 618.99 246.51L619 246.5Z" fill="black"/>
</g>
<defs>
<clipPath id="clip0_1022_14955">
<rect width="1324.98" height="924.22" fill="white"/>
</clipPath>
</defs>
</svg>
