<svg width="46" height="73" viewBox="0 0 46 73" fill="none" xmlns="http://www.w3.org/2000/svg">
<g clip-path="url(#clip0_990_52803)">
<path d="M31.8679 59.8769C34.2034 59.8769 36.1277 59.1777 37.6411 57.7772C39.1537 56.3778 39.9102 53.9716 39.9102 50.5578C39.9102 47.1449 39.1537 44.7388 37.6411 43.3384C36.1277 41.9389 34.2034 41.2389 31.8679 41.2389H24.1128V58.3237C24.1128 59.3591 24.6296 59.8769 25.6638 59.8769H31.8679ZM31.6382 39.3978C34.7401 39.3978 36.8558 38.6024 37.9859 37.0106C39.1148 35.4198 39.6803 33.2626 39.6803 30.5392C39.6803 28.238 38.9526 26.3397 37.4975 24.844C36.0417 23.3484 34.242 22.6007 32.0975 22.6007H25.6638C25.1271 22.6007 24.7348 22.7255 24.4862 22.9745C24.2366 23.2244 24.1128 23.6171 24.1128 24.1537V39.3978H31.6382ZM13.1406 59.8769H17.2767C18.3107 59.8769 18.8277 59.3591 18.8277 58.3237V24.1537C18.8277 23.6171 18.703 23.2244 18.4544 22.9745C18.2048 22.7255 17.8125 22.6007 17.2767 22.6007H13.1406V20.7598H31.8679C34.1272 20.7598 36.2428 21.1823 38.2155 22.0253C40.1876 22.8693 41.7676 24.0296 42.9549 25.5056C44.1414 26.9825 44.7357 28.6605 44.7357 30.5392C44.7357 33.1475 43.8543 35.2948 42.0931 36.9818C40.3311 38.67 38.2821 39.7629 35.9467 40.2607V40.4909C37.5165 40.6059 39.0773 41.0949 40.6282 41.9578C42.1794 42.8207 43.4618 43.9999 44.4773 45.4956C45.4915 46.9913 45.9994 48.6794 45.9994 50.5578C45.9994 52.8975 45.3865 54.9108 44.1611 56.598C42.9352 58.286 41.298 59.5604 39.2497 60.4235C37.2003 61.2863 34.9503 61.7178 32.4997 61.7178H13.1406V59.8769Z" fill="#0F1010"/>
<path d="M18.7832 39.1181H6.47914L30.0319 1.84187V0.000995636H2.6877L1.30907 14.7274H2.74519C2.74519 14.5748 2.89776 13.9131 3.20478 12.7428C3.51079 11.5735 3.97038 10.289 4.58343 8.88866C5.19565 7.48919 5.96219 6.25233 6.8813 5.17828C7.60837 4.3353 8.51845 3.56763 9.60994 2.87732C10.7014 2.18685 11.8791 1.84187 13.1429 1.84187H23.9427L0.160156 39.1181V40.959H18.7832V39.1181Z" fill="#0F1010"/>
<path d="M0 72.5389H0.663087C0.828843 72.5389 0.911755 72.4559 0.911755 72.2899V66.8115C0.911755 66.7255 0.891746 66.6626 0.85193 66.6224C0.811912 66.5824 0.748944 66.5625 0.663087 66.5625H0V66.2674H2.81824V66.5625H2.0078C1.92175 66.5625 1.85884 66.5824 1.81903 66.6224C1.77901 66.6626 1.75914 66.7255 1.75914 66.8115V72.2899C1.75914 72.4559 1.84197 72.5389 2.0078 72.5389H2.93802C3.26338 72.5389 3.55506 72.4652 3.81297 72.3176C4.07088 72.1699 4.26427 71.9548 4.39321 71.6719C4.49139 71.4629 4.57283 71.2399 4.63733 71.0033C4.70171 70.7667 4.74921 70.5653 4.77999 70.3992C4.81071 70.2332 4.82913 70.1287 4.83534 70.0856H5.0656L4.98269 72.834H0V72.5389Z" fill="#0F1010"/>
<path d="M6.1709 72.5389H6.83399C6.99974 72.5389 7.08266 72.4559 7.08266 72.2899V66.8115C7.08266 66.7255 7.06265 66.6626 7.02282 66.6224C6.98273 66.5824 6.91991 66.5625 6.83399 66.5625H6.1709V66.2674H8.84185V66.5625H8.1787C8.09265 66.5625 8.02974 66.5824 7.98986 66.6224C7.94991 66.6626 7.92995 66.7255 7.92995 66.8115V72.2899C7.92995 72.4559 8.01287 72.5389 8.1787 72.5389H8.84185V72.834H6.1709V72.5389Z" fill="#0F1010"/>
<path d="M11.1169 67.2726H11.0801V71.801C11.0801 72.0285 11.1337 72.2085 11.2412 72.3406C11.3485 72.4728 11.4883 72.5389 11.6603 72.5389H11.9918V72.8339H9.7998V72.5389H10.1313C10.3094 72.5389 10.4505 72.4728 10.555 72.3406C10.6594 72.2085 10.7116 72.0285 10.7116 71.801V66.8115C10.7054 66.7255 10.684 66.6625 10.6471 66.6224C10.6103 66.5824 10.5488 66.5625 10.4629 66.5625H9.7998V66.2673H11.5405L14.7364 71.4137V67.3004C14.7364 67.0729 14.6842 66.8931 14.5798 66.7607C14.4754 66.6286 14.3372 66.5625 14.1654 66.5625H13.8339V66.2673H16.0258V66.5625H15.6943C15.5223 66.5625 15.3812 66.6286 15.2706 66.7607C15.1601 66.8931 15.1048 67.0729 15.1048 67.3004V73H14.7364L11.1169 67.2726Z" fill="#0F1010"/>
<path d="M18.1668 72.5342C17.7769 72.2239 17.4791 71.8026 17.2734 71.2707C17.0676 70.7389 16.9648 70.147 16.9648 69.4953C16.9648 68.8743 17.0692 68.3057 17.278 67.7891C17.4867 67.2726 17.7846 66.8622 18.1714 66.5578C18.5582 66.2536 19.0094 66.1013 19.5253 66.1013C19.7954 66.1013 20.0503 66.1629 20.2896 66.2857C20.5291 66.4088 20.7256 66.5411 20.8791 66.6824C21.0266 66.8176 21.1246 66.8854 21.1739 66.8854C21.2229 66.8854 21.2582 66.8701 21.2798 66.8391C21.3012 66.8084 21.3243 66.7593 21.3488 66.6917L21.5239 66.1752H21.754L21.791 69.0342H21.5332C21.398 68.4503 21.2229 67.9596 21.0081 67.5632C20.7931 67.1665 20.5582 66.873 20.3035 66.6824C20.0486 66.4919 19.7954 66.3965 19.5436 66.3965C19.1201 66.3965 18.7915 66.5241 18.5582 66.7792C18.3247 67.0345 18.1637 67.3895 18.0746 67.8444C17.9855 68.2996 17.9412 68.8681 17.9412 69.5507C17.9412 70.2331 17.9855 70.802 18.0746 71.2569C18.1637 71.7119 18.3247 72.0671 18.5582 72.3222C18.7915 72.5773 19.1201 72.7048 19.5436 72.7048C19.7707 72.7048 19.9888 72.6235 20.1976 72.4605C20.4063 72.2975 20.5767 72.0901 20.7088 71.8379C20.8407 71.5859 20.9069 71.3369 20.9069 71.0909V70.2607C20.9069 70.1748 20.8868 70.1119 20.8469 70.0717C20.8068 70.0317 20.7441 70.0118 20.6581 70.0118H19.6359V69.7166H22.6751V70.0118H22.0027C21.9169 70.0118 21.8539 70.0317 21.8139 70.0717C21.774 70.1119 21.754 70.1748 21.754 70.2607V72.954H21.4595V72.1147C21.4595 72.0102 21.447 71.9318 21.4225 71.8795C21.398 71.8273 21.3581 71.801 21.3029 71.801C21.2351 71.801 21.177 71.8256 21.1278 71.8748C21.0787 71.9242 21.0295 71.9916 20.9805 72.0777C20.8392 72.3052 20.6396 72.5159 20.3818 72.7096C20.124 72.9032 19.8444 73 19.5436 73C19.0156 73 18.5567 72.8447 18.1668 72.5342Z" fill="#0F1010"/>
<path d="M23.5225 72.5389H24.1856C24.3513 72.5389 24.4343 72.4559 24.4343 72.2899V66.8115C24.4343 66.7255 24.4143 66.6626 24.3744 66.6224C24.3345 66.5824 24.2716 66.5625 24.1856 66.5625H23.5225V66.2674H28.6617L28.6984 68.5729H28.4683C28.4683 68.4503 28.4421 68.241 28.39 67.9459C28.3378 67.6507 28.2348 67.3865 28.0815 67.1527C27.8235 66.7594 27.4612 66.5625 26.9947 66.5625H25.5302C25.4442 66.5625 25.3813 66.5824 25.3414 66.6224C25.3013 66.6626 25.2816 66.7255 25.2816 66.8115V69.2924H25.9909C26.3038 69.2924 26.5295 69.1325 26.6677 68.8129C26.8059 68.4933 26.875 68.152 26.875 67.7891H27.1143V71.0909H26.875C26.875 70.7282 26.8059 70.387 26.6677 70.0671C26.5295 69.7475 26.3038 69.5876 25.9909 69.5876H25.2816V72.2899C25.2816 72.4559 25.3646 72.5389 25.5302 72.5389H27.004C27.182 72.5389 27.363 72.4989 27.5474 72.419C27.7315 72.3392 27.8881 72.2161 28.0169 72.05C28.1398 71.8779 28.241 71.6626 28.3208 71.4045C28.4007 71.1461 28.4558 70.9109 28.4867 70.6989C28.5173 70.4869 28.5358 70.3502 28.542 70.2884H28.7722L28.6617 72.834H23.5225V72.5389Z" fill="#0F1010"/>
<path d="M32.5297 69.1454C33.0453 69.1454 33.4121 69.0209 33.6302 68.7719C33.8481 68.5228 33.9572 68.1802 33.9572 67.7436C33.9572 67.3685 33.8573 67.078 33.6579 66.872C33.4583 66.666 33.1867 66.563 32.8428 66.563H31.8849C31.7989 66.563 31.736 66.5829 31.6959 66.6229C31.656 66.6631 31.6363 66.726 31.6363 66.812V69.1454H32.5297ZM34.1367 72.8437C33.9987 72.7761 33.8895 72.6655 33.8097 72.5118C33.644 72.192 33.555 71.6479 33.5428 70.8793C33.5366 70.4675 33.4628 70.1246 33.3216 69.8509C33.1803 69.5773 32.9532 69.4404 32.64 69.4404H31.6363V72.2904C31.6363 72.3765 31.6546 72.4396 31.6915 72.4794C31.7283 72.5195 31.7927 72.5394 31.8849 72.5394H32.7046V72.8345H29.877V72.5394H30.5401C30.7059 72.5394 30.789 72.4564 30.789 72.2904V66.812C30.789 66.726 30.7688 66.6631 30.729 66.6229C30.6891 66.5829 30.6261 66.563 30.5401 66.563H29.877V66.2679H32.898C33.4935 66.2679 33.9815 66.3817 34.3623 66.609C34.7432 66.8365 34.9335 67.2149 34.9335 67.7436C34.9335 68.1986 34.763 68.5643 34.4223 68.8411C34.0814 69.1175 33.6716 69.2807 33.1928 69.33V69.3666C33.5428 69.4344 33.8297 69.5959 34.0538 69.8509C34.2779 70.1062 34.4269 70.5413 34.5006 71.1559C34.5436 71.5063 34.5818 71.7616 34.6155 71.9215C34.6495 72.0815 34.6925 72.1936 34.7445 72.2581C34.7968 72.3227 34.8749 72.3548 34.9794 72.3548C35.2434 72.3548 35.3755 72.0228 35.3755 71.3588H35.6059C35.6059 71.7587 35.5473 72.1229 35.4308 72.4517C35.3141 72.7808 35.0531 72.9453 34.6479 72.9453C34.4453 72.9453 34.2748 72.9113 34.1367 72.8437Z" fill="#0F1010"/>
<path d="M36.4717 72.5389H37.135C37.3006 72.5389 37.3837 72.4559 37.3837 72.2899V66.8115C37.3837 66.7255 37.3635 66.6626 37.3238 66.6224C37.2839 66.5824 37.2208 66.5625 37.135 66.5625H36.4717V66.2674H39.1427V66.5625H38.4796C38.3936 66.5625 38.3307 66.5824 38.2908 66.6224C38.2507 66.6626 38.231 66.7255 38.231 66.8115V72.2899C38.231 72.4559 38.3138 72.5389 38.4796 72.5389H39.1427V72.834H36.4717V72.5389Z" fill="#0F1010"/>
<path d="M40.1006 72.5389H40.7637C40.9296 72.5389 41.0125 72.4559 41.0125 72.2899V66.8115C41.0125 66.7255 40.9924 66.6626 40.9527 66.6224C40.9126 66.5824 40.8497 66.5625 40.7637 66.5625H40.1006V66.2674H45.2399L45.2767 68.5729H45.0465C45.0465 68.4503 45.0204 68.241 44.9682 67.9459C44.9159 67.6507 44.8131 67.3865 44.6596 67.1527C44.4016 66.7594 44.0393 66.5625 43.573 66.5625H42.1085C42.0225 66.5625 41.9596 66.5824 41.9195 66.6224C41.8796 66.6626 41.8599 66.7255 41.8599 66.8115V69.2924H42.569C42.882 69.2924 43.1077 69.1325 43.2458 68.8129C43.3841 68.4933 43.4531 68.152 43.4531 67.7891H43.6926V71.0909H43.4531C43.4531 70.7282 43.3841 70.387 43.2458 70.0671C43.1077 69.7475 42.882 69.5876 42.569 69.5876H41.8599V72.2899C41.8599 72.4559 41.9427 72.5389 42.1085 72.5389H43.5821C43.7601 72.5389 43.9413 72.4989 44.1255 72.419C44.3097 72.3392 44.4662 72.2161 44.5951 72.05C44.7179 71.8779 44.8193 71.6626 44.8991 71.4045C44.979 71.1461 45.0341 70.9109 45.065 70.6989C45.0955 70.4869 45.1141 70.3502 45.1203 70.2884H45.3505L45.2399 72.834H40.1006V72.5389Z" fill="#0F1010"/>
<path d="M28.1621 33.5829H28.8251C28.9907 33.5829 29.0738 33.4998 29.0738 33.334V27.8554C29.0738 27.7695 29.0538 27.7064 29.0139 27.6664C28.9739 27.6264 28.9111 27.6064 28.8251 27.6064H28.1621V27.3113H33.3012L33.3381 29.6171H33.1078C33.1078 29.4942 33.0816 29.2849 33.0295 28.9899C32.9773 28.6948 32.8743 28.4305 32.721 28.1966C32.4632 27.8033 32.1009 27.6064 31.6342 27.6064H30.1697C30.0837 27.6064 30.0208 27.6264 29.9811 27.6664C29.941 27.7064 29.9211 27.7695 29.9211 27.8554V30.3363H30.6303C30.9435 30.3363 31.1691 30.1765 31.3072 29.8569C31.4454 29.5373 31.5145 29.1959 31.5145 28.8331H31.7538V32.1348H31.5145C31.5145 31.7722 31.4454 31.431 31.3072 31.1112C31.1691 30.7915 30.9435 30.6316 30.6303 30.6316H29.9211V33.334C29.9211 33.4998 30.004 33.5829 30.1697 33.5829H31.6435C31.8214 33.5829 32.0027 33.5429 32.1869 33.463C32.371 33.3832 32.5276 33.26 32.6566 33.094C32.7792 32.9219 32.8807 32.7066 32.9603 32.4484C33.0401 32.1903 33.0953 31.9549 33.1261 31.7429C33.157 31.5308 33.1753 31.3941 33.1815 31.3325H33.4117L33.3012 33.8779H28.1621V33.5829Z" fill="#0F1010"/>
<path d="M28.0733 50.327C28.5891 50.327 28.9559 50.2025 29.1739 49.9534C29.3917 49.7043 29.5008 49.3617 29.5008 48.925C29.5008 48.5501 29.4009 48.2595 29.2015 48.0535C29.0019 47.8475 28.7303 47.7444 28.3864 47.7444H27.4285C27.3425 47.7444 27.2796 47.7646 27.2399 47.8044C27.1998 47.8444 27.1799 47.9075 27.1799 47.9936V50.327H28.0733ZM29.6805 54.0254C29.5423 53.9578 29.4331 53.8472 29.3535 53.6933C29.1876 53.3737 29.0986 52.8295 29.0864 52.061C29.0802 51.649 29.0064 51.3062 28.8654 51.0324C28.7241 50.759 28.4969 50.6221 28.1839 50.6221H27.1799V53.472C27.1799 53.5581 27.1984 53.6211 27.2351 53.661C27.2719 53.7012 27.3365 53.7209 27.4285 53.7209H28.2482V54.0161H25.4209V53.7209H26.0839C26.2495 53.7209 26.3326 53.638 26.3326 53.472V47.9936C26.3326 47.9075 26.3126 47.8444 26.2726 47.8044C26.2327 47.7646 26.1699 47.7444 26.0839 47.7444H25.4209V47.4495H28.4416C29.0372 47.4495 29.5255 47.5632 29.9061 47.7907C30.2868 48.0182 30.4771 48.3963 30.4771 48.925C30.4771 49.3803 30.3066 49.7458 29.9659 50.0227C29.6253 50.2992 29.2154 50.4622 28.7364 50.5114V50.5483C29.0864 50.6161 29.3733 50.7775 29.5974 51.0324C29.8217 51.2879 29.9705 51.7229 30.0442 52.3376C30.0872 52.688 30.1254 52.9433 30.1595 53.1032C30.1931 53.263 30.2361 53.3752 30.2883 53.4397C30.3404 53.5044 30.4187 53.5365 30.5232 53.5365C30.7872 53.5365 30.9192 53.2045 30.9192 52.5403H31.1495C31.1495 52.9404 31.0911 53.3046 30.9746 53.6334C30.8577 53.9624 30.5968 54.127 30.1915 54.127C29.989 54.127 29.8186 54.0928 29.6805 54.0254Z" fill="#0F1010"/>
<path d="M33.8292 51.7663H35.7816L34.8236 48.9531L33.8292 51.7663ZM31.8672 53.7214H32.2081C32.5702 53.7214 32.8344 53.4972 33.0002 53.0482L34.9802 47.45H35.2106L37.2091 53.3157C37.2705 53.4695 37.3441 53.5756 37.4303 53.6339C37.5161 53.6924 37.6268 53.7214 37.7618 53.7214H38.2774V54.0166H35.4224V53.7214H36.0302C36.1223 53.7214 36.1991 53.6986 36.2606 53.6522C36.3217 53.6061 36.3526 53.5524 36.3526 53.491C36.3526 53.411 36.3402 53.3433 36.3157 53.288L35.883 52.0615H33.7278L33.5068 52.6792C33.4206 52.9254 33.3778 53.1036 33.3778 53.2141C33.3778 53.3495 33.4114 53.4678 33.4792 53.5694C33.5465 53.6706 33.6634 53.7214 33.8292 53.7214H34.3909V54.0166H31.8672V53.7214Z" fill="#0F1010"/>
</g>
<defs>
<clipPath id="clip0_990_52803">
<rect width="46" height="73" fill="white"/>
</clipPath>
</defs>
</svg>
