<svg width="162" height="82" viewBox="0 0 162 82" fill="none" xmlns="http://www.w3.org/2000/svg">
<g clip-path="url(#clip0_988_40870)">
<path d="M36.2892 79.1997L35.6083 78.9005C35.1652 78.7302 34.7313 78.5691 34.7313 78.1365C34.7313 77.7269 35.0868 77.483 35.6129 77.483C36.1391 77.483 36.4923 77.6487 36.8269 77.9294L37.2239 77.4393C36.8361 77.0573 36.2684 76.8134 35.6476 76.8134C34.6552 76.8134 33.9536 77.4025 33.9536 78.1849C33.9536 78.9212 34.5167 79.2917 35.0291 79.4919L35.7376 79.8003C36.2361 80.012 36.6007 80.1478 36.6007 80.6356C36.6007 81.0383 36.2499 81.3306 35.6129 81.3306C35.066 81.3306 34.5606 81.0935 34.1774 80.7369L33.7251 81.2661C34.1982 81.7241 34.849 82.0002 35.5691 82.0002C36.7069 82.0002 37.39 81.3444 37.39 80.5413C37.39 79.8095 36.9192 79.4436 36.2892 79.1997Z" fill="#0F1010"/>
<path d="M40.2104 79.616H42.2367V78.9671H40.2104V77.5473H42.6037V76.903H39.4419V81.908H42.6822V81.2614H40.2104V79.616Z" fill="#0F1010"/>
<path d="M46.7509 81.3281C45.8463 81.3281 45.2462 80.5894 45.2462 79.3905C45.2462 78.1916 45.8486 77.4805 46.7417 77.4805C47.1479 77.4805 47.4618 77.6462 47.7156 77.9086L48.1495 77.4276C47.8403 77.1031 47.3533 76.8086 46.7417 76.8086C45.4239 76.8086 44.4546 77.7889 44.4546 79.4112C44.4546 81.0335 45.4354 81.9977 46.6771 81.9977C47.3464 81.9977 47.861 81.7331 48.2534 81.2706L47.8218 80.8034C47.5264 81.1325 47.1871 81.3258 46.7532 81.3258" fill="#0F1010"/>
<path d="M51.639 76.8109C50.4897 76.8109 49.6865 77.7498 49.6865 79.3813C49.6865 81.0129 50.492 82.0001 51.639 82.0001C52.786 82.0001 53.5915 81.0405 53.5915 79.3813C53.5915 77.7222 52.7883 76.8109 51.639 76.8109ZM51.639 81.3281C50.942 81.3281 50.4804 80.6124 50.4804 79.3813C50.4804 78.1502 50.942 77.4806 51.639 77.4806C52.336 77.4806 52.7953 78.1778 52.7953 79.3813C52.7953 80.5848 52.3337 81.3281 51.639 81.3281Z" fill="#0F1010"/>
<path d="M57.972 79.2847C57.972 79.8277 58.0458 80.4284 58.0758 80.9323H58.0574L57.5889 79.8784L56.1257 76.903H55.3018V81.908H56.0357V79.5079C56.0357 78.9717 55.9618 78.401 55.9318 77.8786H55.9503L56.4188 78.9303L57.8843 81.908H58.7059V76.903H57.972V79.2847Z" fill="#0F1010"/>
<path d="M61.9784 76.9029H60.7021V81.908H62.02C63.4739 81.908 64.3302 81.0082 64.3302 79.3813C64.3302 77.7544 63.4739 76.9006 61.9807 76.9006M61.9276 81.2821H61.4707V77.5289H61.9276C62.9754 77.5289 63.5339 78.141 63.5339 79.3836C63.5339 80.6262 62.9777 81.2821 61.9276 81.2821Z" fill="#0F1010"/>
<path d="M70.619 79.1996L69.9382 78.9004C69.4974 78.7301 69.0635 78.569 69.0635 78.1364C69.0635 77.7268 69.4189 77.4829 69.9451 77.4829C70.4713 77.4829 70.8221 77.6486 71.1591 77.9293L71.556 77.4392C71.166 77.0572 70.6006 76.8132 69.9797 76.8132C68.9873 76.8132 68.2857 77.4023 68.2857 78.1847C68.2857 78.9211 68.8466 79.2916 69.3612 79.4918L70.0697 79.8002C70.5682 80.0119 70.9352 80.1476 70.9352 80.6355C70.9352 81.0382 70.5821 81.3304 69.9474 81.3304C69.4005 81.3304 68.895 81.0934 68.5119 80.7367L68.0596 81.266C68.5327 81.7239 69.1835 82.0001 69.9059 82.0001C71.0437 82.0001 71.7222 81.3442 71.7222 80.5411C71.7222 79.8094 71.2514 79.4435 70.6213 79.1996" fill="#0F1010"/>
<path d="M77.2424 76.903H76.3724L74.4291 79.287H74.4037V76.903H73.626V81.908H74.4037V80.3731L75.193 79.4043L76.5524 81.908H77.4155L75.6708 78.8244L77.2424 76.903Z" fill="#0F1010"/>
<path d="M78.9922 77.5473H80.2177V81.2614H78.9922V81.9103H82.2186V81.2614H80.9885V77.5473H82.2186V76.9006H78.9922V77.5473Z" fill="#0F1010"/>
<path d="M86.9382 79.2847C86.9382 79.8277 87.012 80.4284 87.042 80.9323H87.0236L86.5527 79.8784L85.0895 76.903H84.2656V81.908H84.9995V79.5079C84.9995 78.9717 84.9257 78.401 84.8957 77.8786H84.9141L85.3826 78.9303L86.8482 81.908H87.6721V76.903H86.9382V79.2847Z" fill="#0F1010"/>
<path d="M92.2393 77.5473H93.8594V81.9103H94.6302V77.5473H96.2504V76.9006H92.2393V77.5473Z" fill="#0F1010"/>
<path d="M99.1608 76.903L97.5015 81.908H98.2885L98.72 80.4744H100.467L100.892 81.908H101.713L100.054 76.903H99.1585H99.1608ZM100.287 79.86H98.907L99.1101 79.1811C99.2739 78.638 99.4286 78.0789 99.5809 77.5151H99.6109C99.7563 78.0812 99.9201 78.638 100.084 79.1811L100.287 79.86Z" fill="#0F1010"/>
<path d="M103.359 77.5473H104.587V81.2614H103.359V81.9103H106.585V81.2614H105.36V77.5473H106.585V76.9006H103.359V77.5473Z" fill="#0F1010"/>
<path d="M109.775 76.903H109.008V81.908H112.189V81.2614H109.775V76.903Z" fill="#0F1010"/>
<path d="M115.701 76.8109C114.552 76.8109 113.749 77.7498 113.749 79.3813C113.749 81.0129 114.554 82.0001 115.701 82.0001C116.849 82.0001 117.654 81.0405 117.654 79.3813C117.654 77.7222 116.851 76.8109 115.701 76.8109ZM115.701 81.3281C115.005 81.3281 114.543 80.6124 114.543 79.3813C114.543 78.1502 115.005 77.4806 115.701 77.4806C116.398 77.4806 116.858 78.1778 116.858 79.3813C116.858 80.5848 116.398 81.3281 115.701 81.3281Z" fill="#0F1010"/>
<path d="M122.897 78.3527C122.897 77.2711 122.119 76.903 121.09 76.903H119.465V81.9103H120.241V79.8761H121.055L122.198 81.9103H123.066L121.831 79.7748C122.47 79.5861 122.897 79.1213 122.897 78.3527ZM120.241 77.5197H120.998C121.732 77.5197 122.131 77.7383 122.131 78.3527C122.131 78.9671 121.732 79.2594 120.998 79.2594H120.241V77.522V77.5197Z" fill="#0F1010"/>
<path d="M127.174 79.1996L126.493 78.9004C126.052 78.7301 125.618 78.569 125.618 78.1364C125.618 77.7268 125.974 77.4829 126.5 77.4829C127.026 77.4829 127.379 77.6486 127.714 77.9293L128.111 77.4392C127.721 77.0572 127.155 76.8132 126.535 76.8132C125.544 76.8132 124.841 77.4023 124.841 78.1847C124.841 78.9211 125.401 79.2916 125.916 79.4918L126.625 79.8002C127.123 80.0119 127.49 80.1476 127.49 80.6355C127.49 81.0382 127.137 81.3304 126.502 81.3304C125.958 81.3304 125.45 81.0934 125.067 80.7367L124.617 81.266C125.088 81.7239 125.738 82.0001 126.458 82.0001C127.596 82.0001 128.279 81.3442 128.279 80.5411C128.279 79.8094 127.809 79.4435 127.178 79.1996" fill="#0F1010"/>
<path d="M82.5716 7.20497V2.7453H85.2349V0H76.765V2.7453H79.4306V7.20497L72.2046 0V15.9563H75.3387V7.54094L79.4306 11.6209V13.211H76.765V15.9563H85.2349V13.211H82.5716V11.6209L86.6635 7.54094V15.9563H89.793V0L82.5716 7.20497Z" fill="#0F1010"/>
<path d="M68.4865 37.1018C70.1089 38.4365 70.9213 40.3142 70.9213 42.7373C70.9213 45.2824 70.065 47.2407 68.3572 48.6122C66.6471 49.9837 64.3669 50.6672 61.5166 50.6672H56.1992V57.3406H51.7012V35.1021H61.812C64.6392 35.1021 66.8617 35.7694 68.4865 37.1041M65.0662 40.0289C64.2353 39.3615 63.0906 39.0279 61.6297 39.0279H56.2016V46.8495H61.6666C64.7638 46.8495 66.3124 45.5379 66.3124 42.9191C66.3124 41.6581 65.897 40.6962 65.0662 40.0266" fill="#0F1010"/>
<path d="M90.7068 39.028V35.0999H77.1226V57.3384H90.7068V53.4103H81.6183V48.1843H90.7068V44.2562H81.6183V39.028H90.7068Z" fill="#0F1010"/>
<path d="M96.7515 35.0999H114.804V39.028H108.044V57.3384H103.548V39.028H96.7515V35.0999Z" fill="#0F1010"/>
<path d="M134.005 35.0999V48.923C134.005 50.2462 133.638 51.3438 132.911 52.1861C132.2 53.0122 131.12 53.431 129.708 53.431C128.295 53.431 127.229 53.0053 126.484 52.1654C125.729 51.3139 125.346 50.2255 125.346 48.923V35.0999H120.853V48.923C120.853 51.4865 121.663 53.6197 123.26 55.2673C124.859 56.9173 127.028 57.7526 129.708 57.7526C132.387 57.7526 134.575 56.9219 136.145 55.2834C137.709 53.6473 138.503 51.5072 138.503 48.923V35.0999H134.008H134.005Z" fill="#0F1010"/>
<path d="M32.1674 47.0498L20.1802 35.0999V57.3407H24.6667V45.8993L32.1674 53.3758L39.6588 45.9039V57.3407H44.1453V35.1068L32.1674 47.0498Z" fill="#0F1010"/>
<path d="M12.4603 39.028V35.0999H0V39.028H3.98111V53.4103H0V57.3384H12.4603V53.4103H8.47919V39.028H12.4603Z" fill="#0F1010"/>
<path d="M160.103 46.4906C158.843 45.4183 156.805 44.5024 154.043 43.7637C152.215 43.2644 151.012 42.8294 150.364 42.4313C149.715 42.0355 149.401 41.527 149.401 40.8803C149.401 39.3892 150.59 38.6643 153.036 38.6643C154.066 38.6643 155.141 38.8392 156.233 39.1844C157.424 39.5595 158.035 39.8563 158.296 39.999C158.568 40.1486 159.037 40.4477 159.037 40.4477L161.435 36.828C161.435 36.828 161.156 36.561 160.687 36.2711C160.193 35.965 159.298 35.514 157.814 35.109C156.42 34.7293 154.811 34.536 153.034 34.536C150.246 34.536 148.074 35.1343 146.581 36.3171C145.086 37.4999 144.329 39.1222 144.329 41.1404C144.329 42.8409 144.954 44.2193 146.191 45.2434C147.426 46.2651 149.392 47.1556 152.032 47.8943C153.955 48.419 155.213 48.8953 155.875 49.3579C156.526 49.8135 156.856 50.4141 156.856 51.1505C156.856 52.8142 155.619 53.6242 153.073 53.6242C151.991 53.6242 150.865 53.424 149.729 53.0305C148.58 52.6324 147.456 52.1308 146.5 51.4772C146.221 51.8984 144.169 54.998 144.169 54.998L144.176 55.0049C144.843 55.5986 145.949 56.3258 148.183 57.03C149.701 57.5086 151.384 57.7548 153.184 57.7548C156.074 57.7548 158.287 57.099 159.768 55.8081C161.25 54.5148 162.003 52.8096 162.003 50.7432C162.003 48.9943 161.363 47.563 160.103 46.4929" fill="#0F1010"/>
</g>
<defs>
<clipPath id="clip0_988_40870">
<rect width="162" height="82" fill="white"/>
</clipPath>
</defs>
</svg>
