<svg width="180" height="32" viewBox="0 0 180 32" fill="none" xmlns="http://www.w3.org/2000/svg">
<g clip-path="url(#clip0_990_52378)">
<path d="M179.782 10.5243C179.211 9.47699 177.663 9.11969 176.928 9.04975C176.137 8.97413 175.35 8.88528 174.506 8.78697C174.325 8.76618 174.255 8.65653 174.255 8.54688C174.255 8.48071 174.298 8.33515 174.475 8.30301C175.027 8.20471 176.722 8.027 176.992 7.98541C177.51 7.90412 179.24 7.55249 179.804 6.40309C180.109 5.77734 180.021 5.0514 179.541 4.24039C179.043 3.40291 178.414 2.96432 177.665 2.93974C176.452 2.89248 175.34 4.01164 174.926 4.60714C174.506 5.2102 173.983 5.94748 173.45 6.56378C173.371 6.65641 173.221 6.67532 173.124 6.61104C173.056 6.56567 172.972 6.45413 173.034 6.31235C173.231 5.86619 173.913 4.26686 174.01 4.0192C174.197 3.5428 174.749 1.90944 174.006 0.860227C173.602 0.289305 172.91 0.00195312 171.95 0.00195312C170.989 0.00195312 170.251 0.313881 169.854 0.930174C169.207 1.93401 169.646 3.42371 169.969 4.07025C170.286 4.70355 170.706 5.5278 170.97 6.30478C171.015 6.43523 170.945 6.54676 170.877 6.58835C170.777 6.65074 170.634 6.6394 170.562 6.55433C170.218 6.15355 169.162 4.75271 168.991 4.54664C168.66 4.15154 167.482 2.87547 166.176 2.96999C165.466 3.02482 164.864 3.46341 164.382 4.27253C163.884 5.11001 163.81 5.86052 164.16 6.50328C164.732 7.5506 166.277 7.92492 167.014 7.97785C167.556 8.01566 168.587 8.12909 169.479 8.26142C169.64 8.286 169.704 8.40699 169.704 8.50529C169.704 8.59792 169.642 8.71513 169.512 8.73782C168.919 8.84558 167.218 9.0006 166.948 9.04219C166.431 9.12348 164.7 9.4751 164.137 10.6245C163.832 11.2503 163.919 11.9762 164.399 12.7872C164.897 13.6247 165.527 14.0614 166.275 14.0879C166.298 14.0879 166.32 14.0879 166.343 14.0879C167.533 14.0879 168.608 13.0046 169.014 12.4205C169.473 11.7626 169.957 11.0801 170.501 10.4922C170.641 10.3409 170.783 10.4033 170.847 10.4449C170.902 10.4789 170.984 10.5886 170.923 10.7379C170.717 11.2578 170.025 12.7607 169.928 13.0084C169.741 13.4848 169.189 15.1163 169.932 16.1674C170.336 16.7383 171.028 17.0275 171.989 17.0275C172.949 17.0275 173.688 16.7156 174.084 16.0974C174.732 15.0936 174.292 13.6039 173.97 12.9573C173.618 12.2503 173.266 11.4563 172.996 10.7606C172.943 10.6264 172.99 10.5243 173.083 10.4619C173.172 10.4014 173.316 10.3977 173.412 10.5073C173.777 10.9213 174.776 12.2749 174.949 12.4828C175.28 12.8779 176.464 14.1559 177.764 14.0595C178.474 14.0047 179.076 13.5661 179.559 12.757C180.056 11.9195 180.13 11.169 179.78 10.5281L179.782 10.5243Z" fill="#0F1010"/>
<path d="M44.1562 1.26074C35.6705 1.26074 29.5527 6.8641 29.5527 16.3259C29.5527 26.8426 34.7646 31.9998 44.1562 31.9998C52.9878 31.9998 58.7168 26.5174 58.7168 16.3259C58.7168 6.13438 52.8576 1.26074 44.1562 1.26074ZM44.1562 26.6403C39.16 26.6403 36.2732 22.9463 36.2732 16.3259C36.2732 10.1535 39.0298 6.58053 44.1562 6.58053C48.8957 6.58053 51.9964 10.2348 51.9964 16.3259C51.9964 22.9444 49.2825 26.6403 44.1562 26.6403Z" fill="#0F1010"/>
<path d="M9.22628 1.87109H0L0.0136081 31.3511C0.0136081 31.3511 8.9133 31.3908 10.0875 31.3908C18.9619 31.3908 26.1547 26.6797 26.1547 16.4882C26.1547 6.29669 19.306 1.87109 9.22628 1.87109ZM10.2605 26.0294C9.05327 26.0294 7.71773 25.9878 6.51244 25.8668V7.35157C7.46112 7.14929 8.45062 7.1077 9.44207 7.1077C15.4724 7.1077 19.4362 10.0323 19.4362 16.7718C19.4362 23.0255 15.9895 26.0294 10.2605 26.0294Z" fill="#0F1010"/>
<path d="M85.5038 11.2503C85.5038 4.4295 80.3133 1.86035 71.6974 1.86035C71.2639 1.86035 63.3984 1.8698 63.3984 1.8698V31.3498H69.9128V20.8747C70.947 21.0373 72.1931 21.1583 73.6589 21.1583H74.3413L80.7779 31.3498H88.274L80.6379 19.6969C83.6103 18.194 85.5057 15.4339 85.5057 11.2522L85.5038 11.2503ZM72.8813 16.0011C71.6508 16.0011 70.7818 15.882 69.9109 15.7232V7.22362C70.8479 7.06671 71.5225 6.98731 72.2301 6.98731C76.538 6.98731 78.9117 8.32765 78.9117 11.5755C78.9117 14.8233 76.6294 16.0011 72.8813 16.0011Z" fill="#0F1010"/>
<path d="M98.6726 1.87109H92.1582V31.3511H98.6726V1.87109Z" fill="#0F1010"/>
<path d="M125.916 1.87201L125.904 22.618H125.649C125.202 20.5026 123.946 18.6632 122.869 16.7954L114.246 1.87201H106.032V31.352H112.214V10.0445H112.459C112.865 12.0957 114.189 14.0145 115.222 15.8388L124.191 31.3501H132.008V30.8662V1.87012H125.919L125.916 1.87201Z" fill="#0F1010"/>
<path d="M146.534 1.87109L135.687 31.3511H142.29L144.722 24.4074H155.757L158.188 31.3511H164.792L153.945 1.87109H146.536H146.534ZM146.466 19.4109C146.466 19.4109 147.489 16.7245 148.251 14.6374C149.007 12.5636 150.074 9.72978 150.117 8.63898H150.372C150.424 9.69764 151.511 12.609 152.224 14.5996C152.916 16.5317 154.017 19.409 154.017 19.409H146.47L146.466 19.4109Z" fill="#0F1010"/>
</g>
<defs>
<clipPath id="clip0_990_52378">
<rect width="180" height="32" fill="white"/>
</clipPath>
</defs>
</svg>
