<svg width="101" height="57" viewBox="0 0 101 57" fill="none" xmlns="http://www.w3.org/2000/svg">
<g clip-path="url(#clip0_990_52417)">
<path d="M36.4984 30.035L33.3246 34.8455C21.1907 48.4023 1.49051 39.4373 0.534869 22.067C-0.569813 2.02912 22.8126 -8.56271 34.8326 8.63262L36.4984 11.4577V1.39064H58.3115C58.8901 1.39064 61.2924 2.4577 61.9324 2.80755C62.8792 3.33233 63.6858 4.04953 64.5538 4.67053L63.0195 1.39064H75.1886L81.7641 13.8542L88.3395 1.39064H100.509L87.5768 26.86V40.9592H75.9601V26.6326L68.692 12.4548C67.8065 11.5364 68.5079 12.4985 68.5079 12.6385V15.9183C68.5079 16.7143 67.8854 18.7609 67.5785 19.5831C66.4826 22.5043 64.2382 24.9796 61.4852 26.4227L70.9189 40.9592H59.8545L50.868 27.621H45.5024V40.6355C45.5024 40.7055 45.783 40.8017 45.7216 40.9679H36.5159V30.035H36.4984ZM17.5873 10.6268C7.72407 12.1574 7.55749 29.6676 18.4377 30.8834C32.0095 32.3965 32.3076 8.344 17.5873 10.6268ZM45.4849 10.5743V18.1137L45.8181 18.446H56.1196C56.1986 18.446 57.312 17.9387 57.4786 17.8338C59.7756 16.3994 59.7932 12.8309 57.6539 11.2303C57.4874 11.1078 56.6194 10.5743 56.558 10.5743H45.4937H45.4849Z" fill="#0F1010"/>
<path d="M34.3066 49.4961L35.0694 49.7235L38.6903 55.3999V49.4961H39.3478V56.7118C39.0848 56.6856 38.7517 56.7906 38.515 56.6594C38.0678 56.4145 35.8409 51.6215 34.9642 51.0267V56.7118H34.3066V49.4961Z" fill="#0F1010"/>
<path d="M30.3527 51.4638C29.8179 51.9798 29.4672 50.6853 29.2655 50.4754C28.345 49.5133 26.5827 50.0031 26.6441 51.3413C26.7143 53.1081 30.7121 52.2772 30.5894 54.8486C30.4579 57.7874 25.5219 57.6212 25.7498 54.525L26.4074 54.6737C26.8019 57.8836 31.51 55.6095 29.3357 53.8952C28.1433 52.9594 25.9515 53.6154 25.9515 51.3501C25.9515 49.5396 27.8014 49.111 29.2743 49.592C29.8266 49.7757 30.6245 51.2014 30.3527 51.4638Z" fill="#0F1010"/>
<path d="M69.586 51.2444C68.6304 51.5156 69.0074 50.6409 68.569 50.3523C66.9558 49.3115 65.9827 51.6905 66.0879 52.9937C70.8135 49.4514 70.8748 58.5214 66.798 56.7634C64.7903 55.8975 64.7991 49.0753 68.1482 49.4952C68.9811 49.6001 69.6562 50.3785 69.5948 51.2357L69.586 51.2444ZM67.3416 52.8188C65.6495 53.1686 65.8687 56.9908 68.3411 56.2386C69.5685 55.8625 69.6737 52.3377 67.3416 52.8188Z" fill="#0F1010"/>
<path d="M60.1707 55.1805C61.1263 54.9094 60.7493 55.784 61.1877 56.0727C62.8009 57.1135 63.7741 54.7345 63.6689 53.4313C60.0129 56.6499 58.4523 49.8802 61.8277 49.5041C64.6596 49.1893 64.7122 53.956 63.8354 55.6791C62.9587 57.4021 60.2584 57.3934 60.1619 55.1805H60.1707ZM62.0294 50.0289C60.2496 50.0289 59.9252 53.6587 62.0294 53.6587C64.3264 53.6587 63.8705 50.0289 62.0294 50.0289Z" fill="#0F1010"/>
<path d="M51.8412 49.4961V50.1521H48.3343V52.776H51.622V53.432H48.3343V56.0559H51.7273L52.0604 56.7118H47.6768V49.4961H51.8412Z" fill="#0F1010"/>
<path d="M45.7044 54.3059L46.3357 54.8131C45.1521 58.1892 41.0227 57.3846 40.6632 53.9822C40.3827 51.3933 41.4523 48.9356 44.4507 49.5478C45.0732 49.679 46.3795 50.8423 46.362 51.3583C46.3269 52.4779 44.9504 50.5537 44.8452 50.475C42.0923 48.3146 40.0144 53.7636 42.1975 55.7403C43.5389 56.9648 45.6343 56.1076 45.7132 54.3059H45.7044Z" fill="#0F1010"/>
<path d="M74.4177 49.4957V54.3062C74.8122 54.2712 75.5048 54.2537 75.5136 54.8485L74.5054 55.1634L74.4089 56.7115C73.5673 56.8864 74.1196 55.4433 73.9706 54.9622H70.902C70.8319 54.5599 70.9458 54.315 71.1036 53.9651C71.4193 53.2829 73.2779 50.4491 73.7864 49.8631C73.9793 49.6357 73.9969 49.4083 74.4089 49.4957H74.4177ZM73.9793 54.3062V50.8077C72.9097 51.7435 72.2522 53.1779 71.5683 54.4112L73.9793 54.3062Z" fill="#0F1010"/>
<path d="M32.5531 49.4961H31.8955V56.7118H32.5531V49.4961Z" fill="#0F1010"/>
<path d="M58.1979 56.7118H57.7595V51.0267C57.4789 50.9567 55.4362 52.6535 56.0148 51.3591C56.1112 51.1492 57.891 49.8722 58.1979 49.4961V56.7118Z" fill="#0F1010"/>
</g>
<defs>
<clipPath id="clip0_990_52417">
<rect width="100" height="57" fill="white" transform="translate(0.5)"/>
</clipPath>
</defs>
</svg>
