<svg width="169" height="37" viewBox="0 0 169 37" fill="none" xmlns="http://www.w3.org/2000/svg">
<g clip-path="url(#clip0_990_52450)">
<path d="M31.9765 18.0903H28.6229C28.2904 18.0903 26.9417 16.6358 26.6652 16.2962C25.3814 14.7203 24.398 12.8226 23.4808 11.0142C23.1243 10.5815 22.2118 11.037 21.6975 10.9238L21.7179 16.4533C21.9326 17.688 23.4374 17.6559 24.4265 17.65C24.6434 17.8652 24.6042 18.1054 24.2717 18.0945C21.9263 17.8882 19.1524 18.3545 16.8593 18.0945C16.5065 18.0545 16.4876 17.9039 16.7045 17.65C17.5274 17.6631 18.6881 17.7457 18.8909 16.716C18.8732 12.2634 19.2757 7.44384 19.0019 3.01112C18.9331 1.89791 18.8676 1.22199 17.6368 1.05984C17.2544 1.00936 16.8097 1.1879 16.5605 0.8306C16.6738 0.674349 16.7565 0.633265 16.9464 0.607915C18.3105 0.425222 20.4538 0.62802 21.9194 0.615782C23.7127 0.600704 25.207 0.368403 26.945 1.15971C30.1425 2.61558 30.1214 7.53715 27.5752 9.61103C27.3145 9.82344 26.3278 10.3062 26.3313 10.514C26.3348 10.7347 26.8548 11.769 26.9968 12.0319C28.2046 14.2706 30.0519 16.0794 31.8445 17.83C31.9303 17.9137 32.0085 17.9439 31.9769 18.0905L31.9765 18.0903ZM21.6979 10.4873H23.2223C23.9762 10.4873 25.5191 9.8713 26.0985 9.35316C27.6625 7.95433 27.5789 4.4224 26.4735 2.76855C25.9966 2.05504 24.8041 1.13655 23.9191 1.13655H21.8286L21.6979 1.26767V10.4876V10.4873Z" fill="#0F1010"/>
<path d="M138.926 0.37584C149.628 -0.661535 150.732 16.2625 140.603 18.2263C129.233 20.4308 127.309 1.50172 138.926 0.37584ZM138.836 1.07187C135.343 1.54193 134.59 6.94144 134.764 9.7439C134.948 12.7302 136.389 17.811 140.12 17.8106C146.937 17.8095 146.949 -0.0201415 138.836 1.07187Z" fill="#0F1010"/>
<path d="M8.28391 17.654L8.36492 17.9508L8.24035 18.0911H0.00875151L0.151607 17.6664C1.47912 17.6463 2.23412 17.6343 2.36369 16.128C2.73716 11.7864 2.08647 6.90043 2.34997 2.50246C2.25328 1.57588 1.92401 1.18186 0.999592 1.0608C0.650512 1.01491 -0.477305 1.16023 0.226954 0.61346C1.91182 0.598163 3.59756 0.630725 5.28242 0.616738C7.12234 0.601441 8.66783 0.362585 10.4344 1.20874C13.6752 2.76098 13.4607 8.16552 10.4881 9.94678C8.79261 10.9627 7.05897 10.5993 5.27959 10.926C5.17942 10.9444 5.10276 10.9531 5.07336 11.0687L5.09993 16.5233C5.21317 17.0629 5.68224 17.3933 6.18811 17.529C6.27065 17.5511 6.80614 17.6546 6.84686 17.6546H8.28412L8.28391 17.654ZM5.06095 10.4879H6.58532C7.32573 10.4879 8.89082 9.86111 9.46159 9.35368C11.1295 7.87093 10.9709 3.99285 9.54783 2.35954C9.09661 1.84161 7.96662 1.13706 7.28218 1.13706H5.14806L5.06095 10.4881V10.4879Z" fill="#0F1010"/>
<path d="M69.5195 0.000655598L69.7806 0C69.8312 0.0504811 69.6504 0.622818 69.9986 0.612547C74.5517 0.553981 79.0858 0.694934 83.6315 0.700179L83.6391 0.0972471C83.7116 0.0463289 83.9795 -0.0185753 83.9795 0.131775V5.24413L83.6372 5.23823C83.4039 4.30488 83.8051 2.70303 82.9786 2.00985C82.8578 1.90845 82.3168 1.66107 82.1938 1.66107H78.2304L78.1529 16.0274C78.225 16.688 78.706 17.3441 79.3441 17.5414C79.8167 17.6874 80.6191 17.4682 80.495 18.0908H73.2651L73.347 17.6922C74.4215 17.7147 75.1591 17.4359 75.3483 16.2918C75.161 11.6485 75.6595 6.73387 75.2771 2.13222C75.2599 1.92615 75.4931 1.72422 75.1375 1.6615C73.7157 1.54131 72.3137 1.65058 70.8897 1.68117C70.6582 1.72859 70.307 1.99149 70.1774 2.18992C70.0844 2.33218 69.8682 2.96724 69.8682 3.10317V5.24435C69.7669 5.27975 69.5197 5.20567 69.5197 5.11323V0.000655598H69.5195Z" fill="#0F1010"/>
<path d="M51.053 0.000655598L51.3141 0C51.3646 0.0504811 51.1838 0.622818 51.532 0.612547C56.0851 0.553981 60.6192 0.694716 65.1649 0.700398C65.1582 0.451052 65.112 0.199739 65.3387 0.043488L65.5129 0.131775V5.24413L65.0898 5.10077C65.0286 3.66108 65.401 1.82475 63.4692 1.65801C63.0604 1.62282 59.9943 1.59507 59.8455 1.69931L59.7761 1.80443C59.584 6.53151 59.7062 11.2877 59.6863 16.0274C59.7985 16.7479 60.1643 17.3133 60.8771 17.5418C61.1645 17.6341 61.852 17.6328 61.9437 17.695C62.1225 17.8168 61.9846 18.0906 61.8978 18.0906H54.7985L54.7981 17.6531C55.8896 17.7733 56.6949 17.449 56.8817 16.2916L56.8769 1.80421L56.6713 1.66085C56.0233 1.70346 55.3965 1.56775 54.7504 1.56972C54.5017 1.5706 54.294 1.65735 54.0616 1.66456C52.5085 1.71286 51.5562 1.36474 51.3981 3.36191C51.367 3.75614 51.509 4.75746 51.4506 4.98517C51.3914 5.21594 51.2076 5.35121 51.0527 5.11301V0.000655598H51.053Z" fill="#0F1010"/>
<path d="M168.865 0.611984C168.995 0.647386 169.067 0.903725 168.911 1.00753C168.784 1.09188 168.526 1.02326 168.363 1.06959C167.085 1.43323 166.805 2.50929 166.727 3.71056C166.534 6.72413 166.925 9.96628 166.735 12.9814C166.469 17.1807 163.095 18.9257 159.21 18.3378C151.18 17.1228 154.305 7.60591 153.645 1.98634C153.55 1.71317 153.347 1.37226 153.079 1.24289C152.742 1.08008 151.449 1.03397 151.401 0.960106C151.352 0.885805 151.442 0.611547 151.531 0.611547H158.238C158.309 0.611547 158.413 0.828768 158.367 0.915963L158.224 1.03419C157.109 1.01671 156.174 1.12335 156.026 2.41226C156.449 6.46604 154.484 14.7607 158.919 17.0572C161.525 18.4069 165.482 17.0725 165.94 13.9318C165.879 10.5117 166.34 6.58033 166.023 3.20072C165.915 2.05496 165.433 1.36986 164.315 1.06959C164.058 1.00053 163.773 1.13537 163.597 0.829861C163.652 0.788558 163.786 0.611328 163.813 0.611328H168.865V0.611984Z" fill="#0F1010"/>
<path d="M46.6113 4.23861C46.5773 4.35902 46.3785 4.39246 46.2633 4.36995C46.2466 3.0734 45.5099 1.75346 44.2109 1.40337C43.5928 1.23685 41.1593 1.22723 40.4914 1.33191C40.0535 1.40053 39.3814 1.83694 39.3814 2.31574V8.65166H43.6061C43.6747 8.65166 44.2583 8.42155 44.3664 8.3656C44.8165 8.13221 44.9201 7.87828 45.0697 7.41083C45.1525 7.15165 45.0538 6.50327 45.5253 6.81577L45.4826 11.5828C45.0495 11.8825 45.1379 10.9736 45.0911 10.745C44.9676 10.1412 44.5876 9.67309 43.9972 9.48274C43.8217 9.42614 43.0547 9.26334 42.9093 9.26334H39.5121L39.3814 9.39446V16.5606C39.3814 16.6244 39.68 17.0652 39.771 17.131C39.9084 17.2304 40.3052 17.3608 40.4777 17.3834C41.344 17.4963 44.1179 17.4968 44.8918 17.195C45.6658 16.8932 46.188 16.3029 46.4317 15.5064C46.5281 15.1908 46.6414 13.7269 47.0018 13.8082C47.1594 13.9334 47.2008 14.0958 47.2228 14.2867C47.3145 15.0813 47.2897 16.794 47.2254 17.6135C47.2121 17.7817 47.1742 17.9299 47.134 18.0899H34.8954C34.7315 18.0899 34.7315 17.6528 34.8954 17.6528H36.202C36.2312 17.6528 36.7214 17.5444 36.7724 17.5258C37.2149 17.3643 37.4313 16.8228 37.464 16.3847V2.31705C37.3773 1.45079 36.9947 1.19729 36.1774 1.0736C35.7953 1.01569 35.1674 1.2104 35.1134 0.700349C35.2731 0.658391 35.4196 0.619711 35.5882 0.607691C38.1532 0.427839 40.8675 0.641127 43.4282 0.702972C44.259 0.723077 45.661 0.564859 46.3933 0.699475C46.4909 0.717395 46.5562 0.743837 46.6111 0.830595V4.23883L46.6113 4.23861Z" fill="#0F1010"/>
<path d="M118.343 0.612305C118.473 0.647707 118.545 0.90339 118.389 1.00807C118.118 1.19032 116.724 0.898801 117.095 1.85685L121.656 8.6565C121.78 8.67398 121.829 8.6471 121.914 8.56471C122.004 8.47795 122.502 7.65999 122.638 7.45609C123.258 6.53258 125.462 3.36494 125.642 2.51725C125.763 1.94776 125.782 1.45191 125.181 1.18005C124.9 1.05265 124.418 1.08171 124.307 1.00807C124.128 0.88853 124.267 0.612523 124.353 0.612523H129.623L129.541 1.01091C127.857 1.16104 126.694 2.50611 125.789 3.80048C124.502 5.64118 123.384 7.62284 122.15 9.50091C122.259 11.6943 121.944 14.138 122.129 16.3023C122.255 17.7829 123.203 17.6069 124.399 17.6952C124.578 17.8183 124.44 18.0906 124.353 18.0906H117.994C117.908 18.0906 117.77 17.8183 117.949 17.6952C119.544 17.643 120.186 17.5991 120.306 15.8657C120.437 13.98 120.217 11.9279 120.284 10.0252L114.986 2.23141C114.565 1.75414 114.146 1.36493 113.528 1.16082C113.314 1.09024 112.814 1.0686 112.723 1.00719C112.542 0.885908 112.682 0.612305 112.768 0.612305H118.343H118.343Z" fill="#0F1010"/>
<path d="M93.4309 0.612305C93.5609 0.647926 93.6323 0.901861 93.4766 1.00785C93.2728 1.14684 91.9037 0.930488 92.1171 1.74824L96.6551 8.5634L96.9123 8.6565L100.254 3.52491C100.677 2.77622 101.28 1.4554 100.08 1.10772C99.8722 1.04762 99.5031 1.07996 99.3951 1.00807C99.2161 0.888749 99.3541 0.612523 99.441 0.612523H104.711L104.629 1.01069C102.277 1.25654 101.181 3.35271 100.005 5.11124C99.0234 6.58087 98.087 8.08875 97.1527 9.59007C97.3592 11.6934 96.7544 14.8069 97.2586 16.7848C97.5149 17.7905 98.6558 17.6404 99.4852 17.6533L99.4848 18.0908H93.0824C92.996 18.0908 92.8577 17.8185 93.0367 17.6954C94.2055 17.6128 95.1833 17.7459 95.3067 16.3025C95.4801 14.2776 95.1863 11.9904 95.2852 9.93819L89.9875 2.14444C89.5453 1.60663 88.9405 1.24845 88.2707 1.07035C88.106 1.02664 87.8471 1.09089 87.723 1.00807C87.544 0.888749 87.682 0.612305 87.7689 0.612305H93.4309Z" fill="#0F1010"/>
<path d="M89.2497 29.1019C92.7026 29.5123 93.8559 33.9505 91.0275 35.9545C89.2457 37.2169 87.3043 36.4715 85.2867 36.6173C85.2151 36.3212 85.619 36.4774 85.834 36.4243C86.0914 36.3607 86.2876 36.1378 86.3263 35.8697C86.2064 34.0157 86.5036 31.928 86.3357 30.1028C86.3144 29.8703 86.253 29.5733 86.0328 29.4455C85.7414 29.2763 85.295 29.5106 85.2863 29.1019C86.5389 29.2099 88.026 28.9566 89.2497 29.1019ZM87.6134 29.383C87.2172 29.4706 87.1517 29.8456 87.1166 30.1957C87.0029 31.3369 86.9698 34.5913 87.1384 35.6769C87.3396 36.9739 89.5245 36.4602 90.3163 35.94C92.2662 34.659 91.9839 30.8913 90.0184 29.7289C89.3929 29.3592 88.317 29.2274 87.6134 29.383Z" fill="#0F1010"/>
<path d="M79.799 35.219V30.0192C79.799 29.982 79.5227 29.5386 79.4582 29.4871C79.2574 29.3262 78.9099 29.4082 78.928 29.1016H80.975C81.0122 29.1016 81.166 29.2423 81.0201 29.3216C80.6999 29.2886 80.1475 29.6029 80.1475 29.9318V36.6608L79.9308 36.7915L74.3984 30.2375V35.9617C74.3984 36.0723 75.0582 36.62 75.2699 36.4427L75.2695 36.6171H73.0918L73.7917 36.227C73.9372 35.9537 74.0256 35.6641 74.0537 35.3538C74.2087 33.6357 73.9352 31.6813 74.0445 29.9372C73.9548 29.3645 73.4818 29.5004 73.1774 29.3216C73.0328 29.2366 73.1865 29.1016 73.2225 29.1016H74.7033L79.5397 35.0859L79.799 35.219Z" fill="#0F1010"/>
<path d="M115.773 35.1318V29.8446C115.773 29.6 115.244 29.2784 114.988 29.3218C114.842 29.2454 114.995 29.1018 115.033 29.1018H116.949L117.037 29.2766C116.711 29.2836 116.122 29.692 116.122 30.0192V36.7919L115.82 36.701C114.209 34.8177 112.717 32.8247 111.114 30.9355C110.922 30.7087 110.634 30.3116 110.373 30.2377V35.7871C110.373 35.8166 110.617 36.2196 110.675 36.2703C110.912 36.4799 111.257 36.3256 111.244 36.6173H109.153L109.852 36.1383C109.987 35.9473 110.007 35.7535 110.028 35.5282C110.194 33.7283 109.898 31.6739 110.023 29.8459C109.957 29.5102 109.459 29.3533 109.152 29.3216C109.006 29.2445 109.159 29.1016 109.197 29.1016H110.765L115.428 34.9104L115.773 35.1315V35.1318Z" fill="#0F1010"/>
<path d="M64.5325 29.2103C70.093 28.4061 70.2633 36.364 65.55 36.9602C60.3279 37.6208 59.9348 29.8753 64.5325 29.2103ZM64.6231 29.4765C61.7079 29.8183 61.423 35.7099 64.2943 36.5736C68.6875 37.8948 69.5926 28.8939 64.6231 29.4765Z" fill="#0F1010"/>
<path d="M100.682 29.21C106.785 28.3269 106.263 37.7195 100.507 36.9463C96.3573 36.3888 96.5498 29.8079 100.682 29.21ZM100.772 29.4762C97.9216 29.8097 97.5426 35.6878 100.442 36.5752C104.833 37.9194 105.782 28.8901 100.772 29.4762Z" fill="#0F1010"/>
<path d="M57.4123 36.6181H51.6632C51.6264 36.3032 52.0902 36.5176 52.3932 36.3456C52.5101 36.2792 52.6035 36.1924 52.6194 36.0484C52.4774 34.0886 52.8139 31.853 52.6266 29.9273C52.538 29.0151 51.8629 29.676 51.663 29.1025H54.4068C54.4445 29.1025 54.598 29.2448 54.4519 29.3224C54.0149 29.3624 53.6612 29.3637 53.4942 29.8471L53.5103 35.9446C53.6177 36.1528 53.8322 36.3143 54.0634 36.3511C54.4765 36.4166 55.9473 36.3972 56.3208 36.2663C57.0329 36.0165 57.0806 35.3139 57.4556 34.7848C57.6551 34.9129 57.5205 34.959 57.5102 35.0982C57.4732 35.6056 57.3563 36.1019 57.412 36.6183L57.4123 36.6181Z" fill="#0F1010"/>
</g>
<defs>
<clipPath id="clip0_990_52450">
<rect width="169" height="37" fill="white"/>
</clipPath>
</defs>
</svg>
