<svg width="169" height="49" viewBox="0 0 169 49" fill="none" xmlns="http://www.w3.org/2000/svg">
<g clip-path="url(#clip0_990_52708)">
<path d="M6.92933 2.25971C7.96121 8.67437 8.74773 12.9396 9.28792 15.0296C9.82811 17.1559 10.9589 20.7277 12.6668 25.7459C19.6572 18.6503 25.9959 11.1173 31.6965 3.15937L35.3081 8.25043C33.736 10.9724 32.8758 14.1548 32.74 17.8005C32.8748 19.1615 33.0959 20.4486 33.3791 21.6639C31.9176 23.7049 30.7131 25.4304 29.7791 26.8403C28.7967 28.2492 27.7648 29.6707 26.6835 31.1285C25.5653 32.5989 24.4471 33.886 23.3541 34.9919C19.2751 39.5113 14.202 44.189 8.12026 49.001C5.74906 47.0089 4.2507 45.6478 3.61159 44.9304C2.97248 44.2379 2.05116 42.8769 0.884471 40.8359L3.759 37.3485C2.28488 29.7062 1.47412 23.4373 1.32671 18.5285C1.47412 16.099 1.62153 13.7654 1.76894 11.5422L0 11.6755L1.76894 3.43848L6.92836 2.25971H6.92933ZM43.4303 36.1093H43.89C45.4678 36.8929 46.5667 37.2842 47.1796 37.2842H47.2494V37.36H47.6713C47.8313 37.36 48.0097 37.4482 48.2144 37.6314C48.419 37.8271 48.547 37.9911 48.5974 38.1177V38.2693C48.5974 38.9512 48.1892 39.6466 47.3706 40.3602C46.5017 41.1371 45.8635 41.5917 45.4543 41.7183C45.4097 41.7432 44.7065 42.1355 43.3527 42.8932C41.9988 43.6768 41.0465 44.1564 40.5102 44.3396H40.4394C40.1843 44.3396 39.8778 44.0298 39.52 43.4236C39.1107 42.7417 38.8935 42.1729 38.8683 41.7183C38.9255 41.6176 38.9517 41.5418 38.9517 41.4843V41.4142C39.456 40.4791 40.2735 39.3483 41.3985 38.0093C42.4459 36.7394 43.0976 36.1074 43.3537 36.1074H43.4303V36.1093ZM63.7702 2.27218C64.999 3.34161 66.5468 5.18793 68.4137 7.82458C70.0847 10.1936 70.9197 11.8462 70.9197 12.7698C70.9197 12.9156 70.8954 13.0374 70.846 13.1468C70.5638 14.3016 68.5485 19.7926 64.8021 29.6093C61.0673 39.4749 59.2004 44.4566 59.2004 44.5535C59.2004 44.6513 59.0036 45.1606 58.6108 46.0842C58.218 47.0079 57.8243 47.4692 57.4441 47.4692C57.3335 47.4692 57.2356 47.4453 57.1367 47.3963C54.139 46.2176 52.3206 42.9249 51.6824 37.4818C51.7319 35.6355 51.9278 33.7882 52.2721 31.9294C52.628 30.1435 53.046 28.3691 53.5377 26.6197C54.0294 24.8702 54.4716 23.2666 54.8518 21.8087L51.8298 14.8109L58.3276 1.70054L63.7702 2.27218ZM78.6123 36.1093H79.0719C80.6498 36.8929 81.7486 37.2842 82.3616 37.2842H82.4314V37.36H82.8533C83.0133 37.36 83.1917 37.4482 83.3964 37.6314C83.601 37.8271 83.729 37.9911 83.7794 38.1177V38.2693C83.7794 38.9512 83.3711 39.6466 82.5536 40.3602C81.6846 41.1371 81.0455 41.5917 80.6372 41.7183C80.5926 41.7432 79.8895 42.1355 78.5356 42.8932C77.1818 43.6768 76.2294 44.1564 75.6931 44.3396H75.6223C75.3673 44.3396 75.0598 44.0298 74.7029 43.4236C74.2937 42.7417 74.0764 42.1729 74.0512 41.7183C74.1084 41.6176 74.1346 41.5418 74.1346 41.4843V41.4142C74.6389 40.4791 75.4565 39.3483 76.5815 38.0093C77.6289 36.7394 78.2806 36.1074 78.5366 36.1074H78.6132L78.6123 36.1093ZM99.1122 13.6321C98.3257 15.442 97.7118 18.3827 97.2696 22.4647C97.417 24.4089 97.6623 25.5512 98.0066 25.8792C98.0066 25.9397 98.0561 25.9761 98.154 25.9761C98.6942 25.9761 100.562 25.4898 103.744 24.5182C107.676 23.1937 109.641 22.3918 109.641 22.0878C109.641 21.5536 109.174 20.6903 108.24 19.4751C107.258 18.2599 105.979 17.1914 104.407 16.2678C103.388 15.5389 102.38 14.9193 101.397 14.433C100.365 14.0081 99.6029 13.7405 99.1122 13.6311V13.6321ZM101.987 3.58427C108.572 5.23685 113.326 8.83262 116.262 14.3735C118.486 18.9418 119.592 22.6844 119.592 25.6001C119.592 27.1069 119.199 28.3701 118.4 29.3906C117.626 30.4111 116.618 31.2619 115.378 31.9294C114.112 32.6219 112.761 33.1811 111.336 33.63C109.911 34.0673 108.388 34.5171 106.766 34.991C105.598 35.295 103.855 35.6595 101.533 36.0968C99.6776 36.4373 98.0803 36.6196 96.7536 36.6196H95.9428L94.2476 34.9919L92.9209 43.6059L95.3532 44.5535V45.8656L87.6141 49L86.877 48.2711C86.877 46.5705 87.0487 44.0308 87.4056 40.6162C87.7499 37.2142 88.0195 34.6869 88.2163 33.0353L87.9215 32.5979L86.2874 26.6197L89.1619 25.745C89.7021 24.8213 90.1443 23.1697 90.4886 20.7997C90.8445 18.4546 91.4099 16.8999 92.1839 16.1345C92.9335 15.4909 93.7559 14.9068 94.6898 14.3726C95.2679 14.0321 96.0292 13.8019 96.9631 13.6436C97.9087 13.4978 98.3761 13.401 98.3761 13.352C98.3761 13.3031 96.4103 12.5502 92.467 11.0923C92.2333 10.959 91.5215 10.7518 90.3538 10.5092C89.1134 10.2665 88.4986 10.1572 88.4986 10.1572C87.8594 9.80518 87.393 9.36782 87.0981 8.83262C86.8033 8.34634 86.5327 7.56945 86.2874 6.50002C85.9925 5.47951 85.8325 4.5808 85.784 3.80295C85.6861 3.02509 85.5872 2.41796 85.4766 1.9806C85.8209 1.59215 86.8276 1.39745 88.4986 1.39745C91.6437 1.39745 96.1397 2.12639 101.988 3.58427H101.987ZM128.168 36.1093H128.628C130.205 36.8929 131.304 37.2842 131.917 37.2842H131.987V37.36H132.409C132.569 37.36 132.747 37.4482 132.952 37.6314C133.157 37.8271 133.284 37.9911 133.335 38.1177V38.2693C133.335 38.9512 132.927 39.6466 132.108 40.3602C131.239 41.1371 130.601 41.5917 130.192 41.7183C130.147 41.7432 129.444 42.1355 128.09 42.8932C126.736 43.6768 125.784 44.1564 125.248 44.3396H125.178C124.923 44.3396 124.615 44.0298 124.259 43.4236C123.849 42.7417 123.633 42.1729 123.607 41.7183C123.664 41.6176 123.69 41.5418 123.69 41.4843V41.4142C124.195 40.4791 125.012 39.3483 126.137 38.0093C127.184 36.7394 127.836 36.1074 128.091 36.1074H128.168V36.1093ZM151.96 11.8213C151.186 12.4533 150.129 14.4215 148.791 17.7257C147.476 21.0308 146.666 23.3385 146.37 24.6506L154.098 23.3385C152.832 15.9024 152.12 12.0639 151.96 11.8203V11.8213ZM159.627 0L161.027 1.25166L163.312 0.899663L164.651 3.00207C165.228 5.38359 165.523 8.71273 165.523 12.977V21.0807H168.41C168.803 21.0807 169 21.5181 169 22.3928C169 23.3644 168.607 25.4064 167.808 28.5168C167.415 28.8084 166.85 29.2947 166.124 29.9747C165.326 30.7036 164.737 31.4326 164.356 32.1615C164.294 32.6478 164.22 33.1331 164.122 33.6319C164.024 34.1181 163.803 35.5146 163.458 37.8482L157.267 41.42L157.427 43.9713C157.427 44.0077 157.108 44.1171 156.456 44.2629C155.867 44.6513 155.326 44.8335 154.835 44.8335C155.043 42.4156 155.142 40.5693 155.142 39.3051C155.142 37.1183 154.945 35.2231 154.553 33.6309L142.464 35.4408C142.464 35.5377 142.219 36.3644 141.727 37.9192C141.187 39.5104 140.916 40.3122 140.916 40.3122C140.032 43.3258 139.295 44.941 138.705 45.1357V45.0023H138.631C138.189 45.1357 137.894 45.5251 137.747 46.1571C137.599 46.7767 137.268 47.0923 136.727 47.0923C136.372 47.0434 136.077 46.9954 135.819 46.9465H135.18C135.18 45.598 135.585 43.5569 136.42 40.8234C137.207 38.1628 137.599 36.1218 137.599 34.7118C137.599 34.4203 137.329 33.8611 136.789 33.0353C136.199 32.2095 135.757 31.5899 135.462 31.2005C135.167 30.6173 134.872 30.0102 134.577 29.3906C134.233 28.7585 134.037 28.2243 133.988 27.7869C134.185 27.2038 134.27 26.9122 134.27 26.9122C135.068 26.7664 136.076 26.5717 137.292 26.3291C138.484 26.1344 139.098 25.9886 139.147 25.8792C139.393 25.2961 139.786 24.0444 140.326 22.1003C140.855 20.1561 141.211 18.9658 141.358 18.5285C141.358 18.5285 141.862 16.9737 142.845 13.8633C143.766 10.7528 144.221 9.1616 144.221 9.11269C144.332 8.97937 145.339 8.17754 147.243 6.71966C149.172 5.29823 150.376 4.48393 150.867 4.24127L150.13 1.98156C153.03 0.669472 155.807 0.000959129 158.46 0.000959129H159.627V0Z" fill="#0F1010"/>
</g>
<defs>
<clipPath id="clip0_990_52708">
<rect width="169" height="49" fill="white"/>
</clipPath>
</defs>
</svg>
