<svg width="163" height="27" viewBox="0 0 163 27" fill="none" xmlns="http://www.w3.org/2000/svg">
<g clip-path="url(#clip0_990_52712)">
<path d="M163 17.1094H153.861V26.2069H163V17.1094Z" fill="#0F1010"/>
<mask id="mask0_990_52712" style="mask-type:luminance" maskUnits="userSpaceOnUse" x="0" y="0" width="163" height="27">
<path d="M163 0H0V27H163V0Z" fill="white"/>
</mask>
<g mask="url(#mask0_990_52712)">
<path d="M88.8975 1.31641C95.4755 1.31794 100.827 6.85557 100.827 13.7236V25.8545H98.9043V13.7207C98.9519 12.5439 98.7901 11.3693 98.4277 10.251L98.2598 9.77539C97.8402 8.6741 97.2287 7.65685 96.4551 6.76953L96.1143 6.39746C95.295 5.54831 94.3322 4.8512 93.2715 4.33691L92.8105 4.12793C91.5674 3.6007 90.23 3.32812 88.8789 3.32812C87.6968 3.32817 86.5251 3.53621 85.418 3.94141L84.9473 4.12793C83.7042 4.65523 82.5808 5.42708 81.6445 6.39746C80.7082 7.36793 79.9785 8.5169 79.499 9.77539C79.0795 10.8766 78.8587 12.0417 78.8467 13.2168L78.8545 13.7207V25.8311H76.9727L77.0244 13.7285C77.0721 12.5507 76.9096 11.3751 76.5469 10.2559L76.3799 9.78027C75.9601 8.67844 75.3482 7.66029 74.5742 6.77246L74.2324 6.39941C73.4125 5.54963 72.4492 4.85159 71.3877 4.33691L70.9268 4.12793C69.6827 3.60027 68.3443 3.32817 66.9922 3.32812C65.8091 3.32812 64.6364 3.53688 63.5283 3.94238L63.0566 4.12793C61.968 4.5897 60.9713 5.2392 60.1113 6.04492L59.751 6.39941C58.931 7.24927 58.2699 8.23632 57.7959 9.31348L57.6045 9.78027C57.1271 11.0333 56.9085 12.3689 56.96 13.708H56.959V25.8311H54.9922L55.0439 13.7334V13.7314C55.044 6.86189 60.3814 1.33394 66.9111 1.33203C68.9734 1.3493 70.9933 1.90033 72.7725 2.92871L73.125 3.1416C74.9878 4.30621 76.4884 5.96292 77.46 7.92676L77.9092 8.83398L78.3574 7.92578C79.2659 6.08313 80.6397 4.5096 82.3418 3.3584L82.6865 3.13379C84.5475 1.96695 86.6979 1.33778 88.8975 1.31641Z" fill="#0F1010" stroke="#0F1010"/>
<path d="M54.5444 13.7315C54.5444 6.60432 60.0877 0.8318 66.9145 0.8318C69.2068 0.850841 71.4487 1.50361 73.39 2.71726C75.3313 3.93091 76.8956 5.6577 77.9085 7.70495C78.9186 5.65599 80.4808 3.92681 82.4208 2.71042C84.3608 1.49403 86.6021 0.838292 88.8947 0.816406C95.7679 0.816406 101.327 6.59662 101.327 13.7238V26.354H98.4043V13.7007C98.456 12.4233 98.2479 11.1487 97.7925 9.95333C97.3372 8.75799 96.6439 7.66657 95.7543 6.74457C94.8647 5.82257 93.7972 5.08901 92.6158 4.58791C91.4344 4.08682 90.1634 3.82852 88.8793 3.82852C87.5951 3.82852 86.3242 4.08682 85.1427 4.58791C83.9613 5.08901 82.8938 5.82257 82.0042 6.74457C81.1146 7.66657 80.4214 8.75799 79.966 9.95333C79.5106 11.1487 79.3025 12.4233 79.3543 13.7007V26.3309H76.4705L76.5246 13.7084C76.5763 12.43 76.368 11.1543 75.9123 9.95804C75.4565 8.76175 74.7627 7.66945 73.8724 6.74673C72.9821 5.824 71.9137 5.08985 70.7313 4.58836C69.549 4.08687 68.277 3.82836 66.9918 3.82836C65.7066 3.82836 64.4347 4.08687 63.2523 4.58836C62.0699 5.08985 61.0016 5.824 60.1113 6.74673C59.221 7.66945 58.5271 8.76175 58.0714 9.95804C57.6156 11.1543 57.4073 12.43 57.4591 13.7084V26.3309H54.4902L54.5444 13.7315Z" fill="#0F1010" stroke="#0F1010" stroke-width="0.4" stroke-miterlimit="10"/>
<mask id="path-5-inside-1_990_52712" fill="white">
<path d="M117.57 3.10229C115.749 3.09951 113.961 3.58107 112.389 4.49716C110.818 5.41324 109.521 6.73059 108.633 8.31295C107.713 9.90665 107.229 11.7125 107.229 13.5505C107.229 15.3886 107.713 17.1945 108.633 18.7881C109.519 20.4159 110.83 21.7748 112.429 22.7212C113.979 23.633 115.747 24.1116 117.547 24.1066C119.376 24.1069 121.173 23.6292 122.758 22.7212C124.345 21.8571 125.653 20.5627 126.531 18.9883C127.438 17.3685 127.899 15.5393 127.868 13.6852C127.906 12.2963 127.661 10.9141 127.148 9.62189C126.635 8.32965 125.865 7.15398 124.884 6.16557C123.943 5.18345 122.806 4.40728 121.547 3.8865C120.288 3.36572 118.934 3.11175 117.57 3.14077M130.714 0.831763V26.2309H127.497V21.836C126.239 23.4046 124.657 24.6855 122.858 25.592C120.416 26.756 117.668 27.1273 115.002 26.6537C112.336 26.18 109.886 24.8853 107.999 22.9521C106.754 21.7007 105.775 20.2131 105.119 18.5776C104.462 16.9421 104.143 15.192 104.18 13.4313C104.153 11.6895 104.481 9.96043 105.146 8.34896C105.81 6.73749 106.797 5.2772 108.045 4.05668C109.239 2.80616 110.679 1.81419 112.275 1.14277C113.872 0.47135 115.59 0.134903 117.323 0.154454C119.293 0.127403 121.24 0.584764 122.99 1.48598C124.789 2.44364 126.334 3.81269 127.497 5.48057V0.808673L130.714 0.831763Z"/>
</mask>
<path d="M117.57 3.10229C115.749 3.09951 113.961 3.58107 112.389 4.49716C110.818 5.41324 109.521 6.73059 108.633 8.31295C107.713 9.90665 107.229 11.7125 107.229 13.5505C107.229 15.3886 107.713 17.1945 108.633 18.7881C109.519 20.4159 110.83 21.7748 112.429 22.7212C113.979 23.633 115.747 24.1116 117.547 24.1066C119.376 24.1069 121.173 23.6292 122.758 22.7212C124.345 21.8571 125.653 20.5627 126.531 18.9883C127.438 17.3685 127.899 15.5393 127.868 13.6852C127.906 12.2963 127.661 10.9141 127.148 9.62189C126.635 8.32965 125.865 7.15398 124.884 6.16557C123.943 5.18345 122.806 4.40728 121.547 3.8865C120.288 3.36572 118.934 3.11175 117.57 3.14077M130.714 0.831763V26.2309H127.497V21.836C126.239 23.4046 124.657 24.6855 122.858 25.592C120.416 26.756 117.668 27.1273 115.002 26.6537C112.336 26.18 109.886 24.8853 107.999 22.9521C106.754 21.7007 105.775 20.2131 105.119 18.5776C104.462 16.9421 104.143 15.192 104.18 13.4313C104.153 11.6895 104.481 9.96043 105.146 8.34896C105.81 6.73749 106.797 5.2772 108.045 4.05668C109.239 2.80616 110.679 1.81419 112.275 1.14277C113.872 0.47135 115.59 0.134903 117.323 0.154454C119.293 0.127403 121.24 0.584764 122.99 1.48598C124.789 2.44364 126.334 3.81269 127.497 5.48057V0.808673L130.714 0.831763Z" fill="#0F1010"/>
<path d="M108.633 8.31295L109.499 8.81284L109.505 8.80252L108.633 8.31295ZM108.633 18.7881L109.511 18.3101L109.505 18.2991L109.499 18.2883L108.633 18.7881ZM112.429 22.7212L111.919 23.5817L111.922 23.583L112.429 22.7212ZM117.547 24.1066L117.547 23.1066L117.544 23.1066L117.547 24.1066ZM122.758 22.7212L122.28 21.8429L122.27 21.8481L122.261 21.8534L122.758 22.7212ZM126.531 18.9883L125.658 18.4998L125.657 18.5013L126.531 18.9883ZM127.868 13.6852L126.869 13.6583L126.868 13.68L126.869 13.7018L127.868 13.6852ZM124.884 6.16557L124.162 6.85752L124.168 6.86381L124.174 6.86999L124.884 6.16557ZM130.714 0.831763H131.714V-0.161083L130.721 -0.168211L130.714 0.831763ZM130.714 26.2309V27.2309H131.714V26.2309H130.714ZM127.497 26.2309H126.497V27.2309H127.497V26.2309ZM127.497 21.836H128.497V18.9907L126.717 21.2104L127.497 21.836ZM122.858 25.592L123.289 26.4948L123.299 26.49L123.309 26.485L122.858 25.592ZM107.999 22.9521L108.714 22.2534L108.708 22.2468L107.999 22.9521ZM104.18 13.4313L105.179 13.4519L105.18 13.4339L105.179 13.4158L104.18 13.4313ZM108.045 4.05668L108.744 4.77175L108.757 4.75968L108.769 4.74719L108.045 4.05668ZM117.323 0.154454L117.312 1.15439L117.324 1.15453L117.337 1.15436L117.323 0.154454ZM122.99 1.48598L123.46 0.603196L123.448 0.596922L122.99 1.48598ZM127.497 5.48057L126.677 6.05278L128.497 8.66136V5.48057H127.497ZM127.497 0.808673L127.504 -0.191301L126.497 -0.198532V0.808673H127.497ZM117.57 3.10229L117.572 2.10229C115.574 2.09924 113.611 2.62767 111.886 3.63326L112.389 4.49716L112.893 5.36106C114.311 4.53447 115.925 4.09978 117.569 4.10229L117.57 3.10229ZM112.389 4.49716L111.886 3.63326C110.161 4.63887 108.737 6.08529 107.761 7.82338L108.633 8.31295L109.505 8.80252C110.306 7.37589 111.475 6.18762 112.893 5.36106L112.389 4.49716ZM108.633 8.31295L107.767 7.8131C106.759 9.5586 106.229 11.5369 106.229 13.5505H107.229H108.229C108.229 11.8882 108.667 10.2547 109.499 8.8128L108.633 8.31295ZM107.229 13.5505H106.229C106.229 15.5642 106.759 17.5425 107.767 19.288L108.633 18.7881L109.499 18.2883C108.667 16.8464 108.229 15.2129 108.229 13.5505H107.229ZM108.633 18.7881L107.755 19.2662C108.727 21.0528 110.166 22.5437 111.919 23.5817L112.429 22.7212L112.938 21.8607C111.495 21.006 110.311 19.779 109.511 18.3101L108.633 18.7881ZM112.429 22.7212L111.922 23.583C113.626 24.5859 115.571 25.1121 117.55 25.1066L117.547 24.1066L117.544 23.1066C115.923 23.1111 114.331 22.6801 112.936 21.8593L112.429 22.7212ZM117.547 24.1066L117.547 25.1066C119.55 25.1069 121.518 24.5837 123.255 23.5889L122.758 22.7212L122.261 21.8534C120.827 22.6746 119.202 23.1068 117.547 23.1066L117.547 24.1066ZM122.758 22.7212L123.236 23.5994C124.989 22.6451 126.434 21.2153 127.404 19.4752L126.531 18.9883L125.657 18.5013C124.872 19.9102 123.701 21.069 122.28 21.8429L122.758 22.7212ZM126.531 18.9883L127.403 19.4768C128.396 17.7031 128.902 15.6996 128.868 13.6687L127.868 13.6852L126.869 13.7018C126.896 15.379 126.479 17.034 125.658 18.4998L126.531 18.9883ZM127.868 13.6852L128.868 13.7122C128.909 12.1878 128.64 10.671 128.077 9.25302L127.148 9.62189L126.218 9.99077C126.681 11.1573 126.903 12.4048 126.869 13.6583L127.868 13.6852ZM127.148 9.62189L128.077 9.25302C127.515 7.83502 126.67 6.54526 125.594 5.46115L124.884 6.16557L124.174 6.86999C125.06 7.76269 125.756 8.82427 126.218 9.99077L127.148 9.62189ZM124.884 6.16557L125.606 5.47363C124.569 4.39123 123.316 3.53609 121.929 2.96241L121.547 3.8865L121.165 4.81059C122.296 5.27847 123.317 5.97567 124.162 6.85752L124.884 6.16557ZM121.547 3.8865L121.929 2.96241C120.542 2.38874 119.05 2.10903 117.549 2.141L117.57 3.14077L117.592 4.14054C118.817 4.11446 120.034 4.3427 121.165 4.81059L121.547 3.8865ZM130.714 0.831763H129.714V26.2309H130.714H131.714V0.831763H130.714ZM130.714 26.2309V25.2309H127.497V26.2309V27.2309H130.714V26.2309ZM127.497 26.2309H128.497V21.836H127.497H126.497V26.2309H127.497ZM127.497 21.836L126.717 21.2104C125.549 22.667 124.08 23.8568 122.408 24.699L122.858 25.592L123.309 26.485C125.235 25.5142 126.93 24.1422 128.277 22.4617L127.497 21.836ZM122.858 25.592L122.428 24.6893C120.174 25.7635 117.638 26.1063 115.177 25.6691L115.002 26.6537L114.827 27.6383C117.698 28.1483 120.658 27.7485 123.289 26.4948L122.858 25.592ZM115.002 26.6537L115.177 25.6691C112.716 25.2319 110.456 24.0369 108.714 22.2535L107.999 22.9521L107.283 23.6506C109.317 25.7337 111.956 27.1282 114.827 27.6383L115.002 26.6537ZM107.999 22.9521L108.708 22.2468C107.558 21.0904 106.653 19.716 106.047 18.2053L105.119 18.5776L104.19 18.9499C104.897 20.7102 105.951 22.3109 107.29 23.6573L107.999 22.9521ZM105.119 18.5776L106.047 18.2053C105.441 16.6945 105.146 15.0781 105.179 13.4519L104.18 13.4313L103.18 13.4106C103.141 15.3059 103.484 17.1896 104.19 18.9499L105.119 18.5776ZM104.18 13.4313L105.179 13.4158C105.155 11.8101 105.458 10.216 106.07 8.73018L105.146 8.34896L104.221 7.96774C103.505 9.70486 103.151 11.5689 103.18 13.4467L104.18 13.4313ZM105.146 8.34896L106.07 8.73018C106.683 7.24435 107.593 5.89759 108.744 4.77175L108.045 4.05668L107.346 3.34161C106.001 4.65681 104.938 6.23064 104.221 7.96774L105.146 8.34896ZM108.045 4.05668L108.769 4.74719C109.867 3.59616 111.193 2.68284 112.663 2.06455L112.275 1.14277L111.888 0.220989C110.165 0.945549 108.611 2.01616 107.322 3.36616L108.045 4.05668ZM112.275 1.14277L112.663 2.06455C114.133 1.44627 115.716 1.13638 117.312 1.15439L117.323 0.154454L117.334 -0.845482C115.464 -0.866578 113.61 -0.503568 111.888 0.220989L112.275 1.14277ZM117.323 0.154454L117.337 1.15436C119.143 1.12956 120.928 1.54893 122.532 2.37504L122.99 1.48598L123.448 0.596922C121.552 -0.379401 119.443 -0.874751 117.309 -0.845452L117.323 0.154454ZM122.99 1.48598L122.52 2.36869C124.179 3.25216 125.604 4.51492 126.677 6.05278L127.497 5.48057L128.317 4.90835C127.063 3.11046 125.398 1.63512 123.46 0.603278L122.99 1.48598ZM127.497 5.48057H128.497V0.808673H127.497H126.497V5.48057H127.497ZM127.497 0.808673L127.49 1.80865L130.706 1.83174L130.714 0.831763L130.721 -0.168211L127.504 -0.191301L127.497 0.808673Z" fill="#0F1010" mask="url(#path-5-inside-1_990_52712)"/>
<path d="M117.57 3.10229C115.749 3.09951 113.961 3.58107 112.389 4.49716C110.818 5.41324 109.521 6.73059 108.633 8.31295C107.713 9.90665 107.229 11.7125 107.229 13.5505C107.229 15.3886 107.713 17.1945 108.633 18.7881C109.519 20.4159 110.83 21.7748 112.429 22.7212C113.979 23.633 115.747 24.1116 117.547 24.1066C119.376 24.1069 121.173 23.6292 122.758 22.7212C124.345 21.8571 125.653 20.5627 126.531 18.9883C127.438 17.3685 127.899 15.5393 127.868 13.6852C127.906 12.2963 127.661 10.9141 127.148 9.62189C126.635 8.32965 125.865 7.15398 124.884 6.16557C123.946 5.17648 122.811 4.39315 121.552 3.86568C120.292 3.3382 118.936 3.0782 117.57 3.10229ZM130.714 0.79328V26.1924H127.497V21.836C126.239 23.4046 124.657 24.6855 122.858 25.592C120.416 26.756 117.668 27.1273 115.002 26.6537C112.336 26.18 109.886 24.8853 107.999 22.9521C106.754 21.7007 105.775 20.2131 105.119 18.5776C104.462 16.9421 104.143 15.192 104.18 13.4313C104.153 11.6895 104.481 9.96043 105.146 8.34896C105.81 6.73749 106.797 5.2772 108.045 4.05668C109.239 2.80616 110.679 1.81419 112.275 1.14277C113.872 0.47135 115.59 0.134903 117.323 0.154454C119.293 0.127403 121.24 0.584764 122.99 1.48598C124.789 2.44364 126.334 3.81269 127.497 5.48057V0.808673L130.714 0.79328Z" fill="#0F1010" stroke="#0F1010" stroke-width="0.4" stroke-miterlimit="10"/>
<path d="M141.508 0.654297H141.522C143.585 0.6544 145.706 1.60518 147.893 3.60645L146.474 5.08594C144.796 3.56689 143.091 2.75255 141.373 2.74121H141.374C140.241 2.70984 139.138 3.11436 138.296 3.87109C137.941 4.1782 137.646 4.54805 137.428 4.96191L137.339 5.1416C137.142 5.56754 137.028 6.0263 137.001 6.49316L136.994 6.69434V6.70605C137.013 7.63653 137.346 8.53174 137.938 9.24707L138.059 9.3877L138.067 9.39746L138.077 9.40625C139.25 10.5721 140.627 11.5124 142.142 12.1816H142.143C144.41 13.3567 145.932 14.4551 146.775 15.4746L146.936 15.6777C147.672 16.6793 148.085 17.8772 148.124 19.1133L148.127 19.3613V19.375C148.142 20.1783 148.012 20.9768 147.743 21.7324L147.619 22.0537C147.311 22.7963 146.87 23.4767 146.32 24.0625L146.077 24.3076L146.072 24.3125C145.483 24.896 144.794 25.3702 144.039 25.7129L143.712 25.8516C142.829 26.1998 141.883 26.3655 140.934 26.3389H140.919C139.706 26.3391 138.506 26.0998 137.389 25.6377L136.915 25.4258L136.911 25.4248L136.461 25.1953C135.548 24.6979 134.735 24.04 134.056 23.2549L135.46 21.6777C137.085 23.3631 138.857 24.2552 140.761 24.2588V24.2598C142.128 24.2922 143.456 23.7964 144.465 22.875L144.464 22.874C144.944 22.4639 145.331 21.9571 145.598 21.3857C145.833 20.8811 145.971 20.3374 146.004 19.7832L146.012 19.5449C146.016 18.5748 145.695 17.6331 145.103 16.8682L144.98 16.7178L144.979 16.7148L144.841 16.5635C144.108 15.7997 142.699 14.9114 140.699 13.8945H140.7C138.565 12.7936 137.134 11.7383 136.342 10.7441L136.191 10.5459L136.053 10.3438C135.378 9.32198 135.025 8.12135 135.041 6.89551V6.875C135.022 6.15501 135.133 5.43826 135.371 4.75977L135.481 4.4707C135.755 3.80368 136.149 3.19273 136.642 2.66699L136.858 2.44629H136.859C137.398 1.92804 138.022 1.50816 138.705 1.20508L139.001 1.08203C139.699 0.812742 140.439 0.667528 141.187 0.652344L141.508 0.654297Z" fill="#0F1010" stroke="#0F1010"/>
<path d="M148.604 3.58711L146.493 5.78836C144.746 4.09509 143.03 3.24846 141.36 3.24076C140.351 3.21284 139.37 3.57409 138.623 4.24903C138.271 4.55354 137.988 4.92939 137.793 5.35147C137.598 5.77356 137.496 6.23214 137.494 6.69658C137.511 7.56807 137.843 8.4042 138.43 9.05176C139.566 10.1819 140.903 11.0926 142.373 11.7379C144.808 13.0002 146.462 14.2085 147.336 15.3784C148.187 16.5342 148.64 17.9326 148.627 19.3653C148.646 20.3526 148.46 21.333 148.081 22.2455C147.702 23.1579 147.138 23.9827 146.424 24.6684C145.702 25.3827 144.842 25.9435 143.895 26.3167C142.949 26.6898 141.937 26.8674 140.919 26.8388C139.457 26.8391 138.014 26.5102 136.698 25.8767C135.406 25.2674 134.276 24.366 133.396 23.2445L135.453 20.9355C137.123 22.8211 138.901 23.7601 140.772 23.7601C142.012 23.7896 143.214 23.34 144.128 22.5056C144.559 22.1399 144.906 21.6859 145.145 21.1745C145.384 20.6631 145.509 20.1063 145.512 19.5424C145.516 18.6271 145.192 17.7402 144.599 17.0409C143.986 16.3277 142.61 15.4272 140.471 14.3394C138.172 13.1541 136.61 11.9868 135.785 10.8374C134.958 9.68704 134.522 8.30358 134.541 6.88899C134.516 5.99607 134.679 5.10791 135.019 4.28104C135.358 3.45417 135.867 2.70671 136.512 2.08626C137.175 1.44763 137.96 0.947686 138.821 0.615894C139.681 0.284101 140.6 0.127181 141.522 0.154386C143.872 0.154386 146.233 1.29863 148.604 3.58711Z" fill="#0F1010" stroke="#0F1010" stroke-width="0.4" stroke-miterlimit="10"/>
<mask id="path-10-inside-2_990_52712" fill="white">
<path d="M13.5836 3.10229C11.7627 3.09951 9.97406 3.58107 8.40277 4.49716C6.83148 5.41324 5.53456 6.73059 4.64614 8.31295C3.7316 9.90839 3.2506 11.7136 3.2506 13.5505C3.2506 15.3875 3.7316 17.1927 4.64614 18.7881C5.53222 20.4133 6.84061 21.7717 8.4345 22.7212C9.98427 23.633 11.7525 24.1116 13.5527 24.1066C15.3843 24.1093 17.1843 23.6315 18.7713 22.7212C20.3582 21.8571 21.6665 20.5627 22.5442 18.9883C23.463 17.3587 23.93 15.5152 23.8972 13.6468C23.9364 12.2576 23.6922 10.8749 23.1792 9.58242C22.6663 8.28992 21.8953 7.11444 20.9129 6.12709C19.9716 5.14497 18.8351 4.36879 17.5759 3.84801C16.3167 3.32723 14.9623 3.07327 13.599 3.10229M26.7423 0.79328V26.1924H23.472V21.836C22.2158 23.4063 20.6333 24.6876 18.8332 25.592C17.0916 26.4411 15.1748 26.8733 13.2357 26.8543C11.502 26.8799 9.78185 26.5462 8.18466 25.8744C6.58746 25.2026 5.1481 24.2074 3.95805 22.9521C2.71751 21.6984 1.74179 20.21 1.08848 18.5748C0.435168 16.9396 0.117501 15.1907 0.154224 13.4313C0.127261 11.6895 0.456002 9.96043 1.1205 8.34896C1.785 6.73749 2.77142 5.2772 4.0199 4.05668C5.21428 2.8069 6.65445 1.81542 8.25064 1.14406C9.84683 0.472693 11.5648 0.135826 13.2975 0.154454C15.2678 0.127403 17.2144 0.584764 18.9646 1.48598C20.7663 2.43947 22.312 3.80933 23.472 5.48057V0.808673L26.7423 0.79328Z"/>
</mask>
<path d="M13.5836 3.10229C11.7627 3.09951 9.97406 3.58107 8.40277 4.49716C6.83148 5.41324 5.53456 6.73059 4.64614 8.31295C3.7316 9.90839 3.2506 11.7136 3.2506 13.5505C3.2506 15.3875 3.7316 17.1927 4.64614 18.7881C5.53222 20.4133 6.84061 21.7717 8.4345 22.7212C9.98427 23.633 11.7525 24.1116 13.5527 24.1066C15.3843 24.1093 17.1843 23.6315 18.7713 22.7212C20.3582 21.8571 21.6665 20.5627 22.5442 18.9883C23.463 17.3587 23.93 15.5152 23.8972 13.6468C23.9364 12.2576 23.6922 10.8749 23.1792 9.58242C22.6663 8.28992 21.8953 7.11444 20.9129 6.12709C19.9716 5.14497 18.8351 4.36879 17.5759 3.84801C16.3167 3.32723 14.9623 3.07327 13.599 3.10229M26.7423 0.79328V26.1924H23.472V21.836C22.2158 23.4063 20.6333 24.6876 18.8332 25.592C17.0916 26.4411 15.1748 26.8733 13.2357 26.8543C11.502 26.8799 9.78185 26.5462 8.18466 25.8744C6.58746 25.2026 5.1481 24.2074 3.95805 22.9521C2.71751 21.6984 1.74179 20.21 1.08848 18.5748C0.435168 16.9396 0.117501 15.1907 0.154224 13.4313C0.127261 11.6895 0.456002 9.96043 1.1205 8.34896C1.785 6.73749 2.77142 5.2772 4.0199 4.05668C5.21428 2.8069 6.65445 1.81542 8.25064 1.14406C9.84683 0.472693 11.5648 0.135826 13.2975 0.154454C15.2678 0.127403 17.2144 0.584764 18.9646 1.48598C20.7663 2.43947 22.312 3.80933 23.472 5.48057V0.808673L26.7423 0.79328Z" fill="#0F1010"/>
<path d="M4.64614 8.31295L5.51374 8.81028L5.5181 8.80252L4.64614 8.31295ZM3.2506 13.5505H2.2506H3.2506ZM4.64614 18.7881L5.52412 18.3095L5.51901 18.3001L5.51371 18.2908L4.64614 18.7881ZM8.4345 22.7212L7.92271 23.5803L7.9274 23.583L8.4345 22.7212ZM13.5527 24.1066L13.5542 23.1066L13.5499 23.1066L13.5527 24.1066ZM18.7713 22.7212L18.2931 21.8429L18.2834 21.8482L18.2738 21.8537L18.7713 22.7212ZM22.5442 18.9883L21.6731 18.4971L21.6708 18.5013L22.5442 18.9883ZM23.8972 13.6468L22.8976 13.6185L22.8969 13.6414L22.8973 13.6643L23.8972 13.6468ZM20.9129 6.12709L20.1909 6.81903L20.1974 6.82578L20.204 6.83241L20.9129 6.12709ZM26.7423 0.79328H27.7423V-0.211438L26.7376 -0.206709L26.7423 0.79328ZM26.7423 26.1924V27.1924H27.7423V26.1924H26.7423ZM23.472 26.1924H22.472V27.1924H23.472V26.1924ZM23.472 21.836H24.472V18.9853L22.6911 21.2113L23.472 21.836ZM18.8332 25.592L19.2714 26.491L19.2821 26.4856L18.8332 25.592ZM13.2357 26.8543L13.2455 25.8543L13.2332 25.8542L13.2209 25.8544L13.2357 26.8543ZM3.95805 22.9521L4.68378 22.2641L4.67641 22.2563L4.66887 22.2487L3.95805 22.9521ZM0.154224 13.4313L1.15401 13.4521L1.15439 13.4339L1.1541 13.4158L0.154224 13.4313ZM4.0199 4.05668L4.71895 4.77175L4.7311 4.75987L4.74284 4.74758L4.0199 4.05668ZM13.2975 0.154454L13.2868 1.1544L13.299 1.15453L13.3112 1.15436L13.2975 0.154454ZM18.9646 1.48598L19.4324 0.602062L19.4224 0.596922L18.9646 1.48598ZM23.472 5.48057L22.6504 6.05074L24.472 8.67523V5.48057H23.472ZM23.472 0.808673L23.4673 -0.191316L22.472 -0.186631V0.808673H23.472ZM13.5836 3.10229L13.5851 2.10229C11.5869 2.09924 9.62391 2.62767 7.8991 3.63326L8.40277 4.49716L8.90643 5.36106C10.3242 4.53447 11.9384 4.09978 13.5821 4.10229L13.5836 3.10229ZM8.40277 4.49716L7.8991 3.63326C6.17426 4.63887 4.75003 6.08529 3.77417 7.82338L4.64614 8.31295L5.5181 8.80252C6.31909 7.37589 7.4887 6.18762 8.90643 5.36106L8.40277 4.49716ZM4.64614 8.31295L3.77856 7.81564C2.77735 9.56228 2.2506 11.5389 2.2506 13.5505H3.2506H4.2506C4.2506 11.8883 4.68584 10.2545 5.51371 8.81026L4.64614 8.31295ZM3.2506 13.5505H2.2506C2.2506 15.5622 2.77735 17.5388 3.77856 19.2855L4.64614 18.7881L5.51371 18.2908C4.68584 16.8466 4.2506 15.2128 4.2506 13.5505H3.2506ZM4.64614 18.7881L3.76816 19.2668C4.74023 21.0497 6.17525 22.5393 7.92271 23.5803L8.4345 22.7212L8.94628 21.862C7.50596 21.004 6.32422 19.7769 5.52412 18.3095L4.64614 18.7881ZM8.4345 22.7212L7.9274 23.583C9.63188 24.5859 11.5762 25.1121 13.5554 25.1066L13.5527 24.1066L13.5499 23.1066C11.9287 23.1111 10.3367 22.6801 8.94159 21.8593L8.4345 22.7212ZM13.5527 24.1066L13.5511 25.1066C15.5576 25.1096 17.5298 24.5861 19.2689 23.5886L18.7713 22.7212L18.2738 21.8537C16.8388 22.6768 15.2109 23.1091 13.5542 23.1066L13.5527 24.1066ZM18.7713 22.7212L19.2495 23.5994C21.0021 22.6451 22.4476 21.2153 23.4176 19.4752L22.5442 18.9883L21.6708 18.5013C20.8854 19.9102 19.7143 21.069 18.2931 21.8429L18.7713 22.7212ZM22.5442 18.9883L23.4153 19.4794C24.4214 17.695 24.9329 15.6759 24.897 13.6292L23.8972 13.6468L22.8973 13.6643C22.927 15.3545 22.5046 17.0225 21.6731 18.4971L22.5442 18.9883ZM23.8972 13.6468L24.8968 13.675C24.9399 12.15 24.6717 10.6322 24.1087 9.21354L23.1792 9.58242L22.2498 9.9513C22.7126 11.1176 22.933 12.3652 22.8976 13.6185L23.8972 13.6468ZM23.1792 9.58242L24.1087 9.21354C23.5457 7.7949 22.6996 6.505 21.6218 5.42176L20.9129 6.12709L20.204 6.83241C21.091 7.72388 21.7869 8.78494 22.2498 9.9513L23.1792 9.58242ZM20.9129 6.12709L21.6348 5.43514C20.5974 4.35275 19.3452 3.4976 17.9581 2.92392L17.5759 3.84801L17.1937 4.7721C18.325 5.23999 19.3457 5.93719 20.1909 6.81903L20.9129 6.12709ZM17.5759 3.84801L17.9581 2.92392C16.571 2.35025 15.0792 2.07055 13.5778 2.10251L13.599 3.10229L13.6203 4.10206C14.8454 4.07598 16.0624 4.30422 17.1937 4.7721L17.5759 3.84801ZM26.7423 0.79328H25.7423V26.1924H26.7423H27.7423V0.79328H26.7423ZM26.7423 26.1924V25.1924H23.472V26.1924V27.1924H26.7423V26.1924ZM23.472 26.1924H24.472V21.836H23.472H22.472V26.1924H23.472ZM23.472 21.836L22.6911 21.2113C21.525 22.6689 20.0559 23.8586 18.3842 24.6985L18.8332 25.592L19.2821 26.4856C21.2107 25.5166 22.9065 24.1437 24.2528 22.4607L23.472 21.836ZM18.8332 25.592L18.3949 24.6932C16.793 25.4742 15.0296 25.8719 13.2455 25.8543L13.2357 26.8543L13.2258 27.8542C15.32 27.8748 17.3902 27.408 19.2714 26.4909L18.8332 25.592ZM13.2357 26.8543L13.2209 25.8544C11.6252 25.878 10.0421 25.5708 8.57236 24.9526L8.18466 25.8744L7.79695 26.7962C9.52156 27.5216 11.3787 27.8818 13.2504 27.8542L13.2357 26.8543ZM8.18466 25.8744L8.57236 24.9526C7.10259 24.3344 5.7784 23.4188 4.68378 22.2641L3.95805 22.9521L3.23231 23.64C4.51781 24.9961 6.07233 26.0708 7.79695 26.7962L8.18466 25.8744ZM3.95805 22.9521L4.66887 22.2487C3.52228 21.0899 2.6207 19.7146 2.01711 18.2038L1.08848 18.5748L0.15985 18.9458C0.86288 20.7055 1.91273 22.3068 3.24722 23.6554L3.95805 22.9521ZM1.08848 18.5748L2.01711 18.2038C1.41352 16.693 1.12008 15.0774 1.15401 13.4521L0.154224 13.4313L-0.845558 13.4104C-0.885082 15.304 -0.543183 17.1862 0.15985 18.9458L1.08848 18.5748ZM0.154224 13.4313L1.1541 13.4158C1.12925 11.8101 1.4323 10.216 2.04499 8.73018L1.1205 8.34896L0.196018 7.96774C-0.520294 9.70486 -0.874725 11.5689 -0.845656 13.4467L0.154224 13.4313ZM1.1205 8.34896L2.04499 8.73018C2.65768 7.24435 3.56732 5.89759 4.71895 4.77175L4.0199 4.05668L3.32084 3.34161C1.97551 4.65681 0.912326 6.23064 0.196018 7.96774L1.1205 8.34896ZM4.0199 4.05668L4.74284 4.74758C5.84233 3.5971 7.16834 2.68414 8.63835 2.06584L8.25064 1.14406L7.86293 0.222276C6.14057 0.946711 4.58624 2.01669 3.29695 3.36577L4.0199 4.05668ZM8.25064 1.14406L8.63835 2.06584C10.1084 1.44754 11.6907 1.13724 13.2868 1.1544L13.2975 0.154454L13.3083 -0.845488C11.4389 -0.865586 9.58528 -0.502156 7.86293 0.222276L8.25064 1.14406ZM13.2975 0.154454L13.3112 1.15436C15.1178 1.12956 16.9024 1.54893 18.5068 2.37504L18.9646 1.48598L19.4224 0.596922C17.5263 -0.379401 15.4178 -0.874751 13.2838 -0.845452L13.2975 0.154454ZM18.9646 1.48598L18.4969 2.36985C20.1576 3.24872 21.5819 4.51112 22.6504 6.05074L23.472 5.48057L24.2935 4.91039C23.0422 3.10753 21.3751 1.63023 19.4323 0.602118L18.9646 1.48598ZM23.472 5.48057H24.472V0.808673H23.472H22.472V5.48057H23.472ZM23.472 0.808673L23.4767 1.80866L26.747 1.79327L26.7423 0.79328L26.7376 -0.206709L23.4673 -0.191316L23.472 0.808673Z" fill="#0F1010" mask="url(#path-10-inside-2_990_52712)"/>
<path d="M13.5836 3.10229C11.7627 3.09951 9.97406 3.58107 8.40277 4.49716C6.83148 5.41324 5.53456 6.73059 4.64614 8.31295C3.7316 9.90839 3.2506 11.7136 3.2506 13.5505C3.2506 15.3875 3.7316 17.1927 4.64614 18.7881C5.53222 20.4133 6.84061 21.7717 8.4345 22.7212C9.98427 23.633 11.7525 24.1116 13.5527 24.1066C15.3843 24.1093 17.1843 23.6315 18.7713 22.7212C20.3582 21.8571 21.6665 20.5627 22.5442 18.9883C23.463 17.3587 23.93 15.5152 23.8972 13.6468C23.9364 12.2576 23.6922 10.8749 23.1792 9.58242C22.6663 8.28992 21.8953 7.11444 20.9129 6.12709C19.9698 5.14303 18.8308 4.36572 17.5688 3.84488C16.3068 3.32403 14.9494 3.07111 13.5836 3.10229ZM26.7269 0.79328V26.1924H23.472V21.836C22.2158 23.4063 20.6333 24.6876 18.8332 25.592C17.0916 26.4411 15.1748 26.8733 13.2357 26.8543C11.502 26.8799 9.78185 26.5462 8.18466 25.8744C6.58746 25.2026 5.1481 24.2074 3.95805 22.9521C2.71751 21.6984 1.74179 20.21 1.08848 18.5748C0.435168 16.9396 0.117501 15.1907 0.154224 13.4313C0.127261 11.6895 0.456002 9.96043 1.1205 8.34896C1.785 6.73749 2.77142 5.2772 4.0199 4.05668C5.21428 2.8069 6.65445 1.81542 8.25064 1.14406C9.84683 0.472693 11.5648 0.135826 13.2975 0.154454C15.2678 0.127403 17.2144 0.584764 18.9646 1.48598C20.7663 2.43947 22.312 3.80933 23.472 5.48057V0.808673L26.7269 0.79328Z" fill="#0F1010" stroke="#0F1010" stroke-width="0.4" stroke-miterlimit="10"/>
<path d="M35.6025 1.31641C39.1759 1.31641 41.7735 1.58166 43.4336 2.09668L43.7529 2.20312L43.7637 2.20703C46.0475 2.96639 48.0023 4.47839 49.3047 6.49316V6.49414C50.6938 8.69056 51.3992 11.2476 51.3311 13.8418L51.3301 13.8545L51.3311 13.8672C51.383 15.985 50.9052 18.0803 49.9443 19.9658L49.7461 20.3398L49.7432 20.3447C48.81 22.0802 47.3821 23.5025 45.6387 24.4326C43.978 25.2979 41.5913 25.7539 38.4326 25.7539H30.7988V1.31641H35.6025ZM32.5205 24.0449H35.8887C39.3102 24.0449 41.7571 23.84 43.1709 23.3818L43.1699 23.3809C44.9562 22.8304 46.5142 21.7236 47.6162 20.2266L47.8311 19.9209L47.8359 19.9131C48.9929 18.1174 49.5786 16.0162 49.5166 13.8838C49.581 11.6187 48.9473 9.38853 47.7021 7.49219H47.7031L47.6973 7.4834L47.4609 7.15527C46.2504 5.54681 44.5433 4.37254 42.5967 3.81641H42.5977C40.9748 3.3237 38.3509 3.09473 34.7832 3.09473H32.5205V24.0449Z" fill="#0F1010" stroke="#0F1010"/>
<path d="M33.0203 23.5447H35.8886C39.3136 23.5447 41.6871 23.3369 43.0169 22.9059C44.816 22.353 46.3693 21.2007 47.416 19.6425C48.5235 17.9237 49.0815 15.911 49.0164 13.87C49.078 11.7073 48.4737 9.57754 47.2846 7.76652C46.1299 6.08378 44.4206 4.85587 42.4525 4.29531C40.9062 3.82581 38.3472 3.59491 34.783 3.59491H33.0203V23.5447ZM30.2988 26.254V0.816406H35.6025C39.4218 0.816406 42.1974 1.11658 43.9215 1.73231C46.3149 2.52811 48.3634 4.11396 49.7277 6.22718C51.1697 8.50723 51.9014 11.1612 51.8306 13.8546C51.8883 16.2024 51.3201 18.5234 50.1839 20.5815C49.2031 22.4055 47.702 23.8999 45.8698 24.8763C44.107 25.7947 41.6278 26.254 38.4322 26.254H30.2988Z" fill="#0F1010" stroke="#0F1010" stroke-width="0.4" stroke-miterlimit="10"/>
</g>
</g>
<defs>
<clipPath id="clip0_990_52712">
<rect width="163" height="27" fill="white"/>
</clipPath>
</defs>
</svg>
