<svg width="89" height="68" viewBox="0 0 89 68" fill="none" xmlns="http://www.w3.org/2000/svg">
<g clip-path="url(#clip0_990_52729)">
<path d="M61.2626 39.1008C61.4754 39.3639 61.501 39.6695 61.535 39.992C61.8926 43.336 60.3516 46.7394 60.3772 50.1767C60.3772 51.1188 60.7433 56.4318 61.4499 56.644C61.9352 56.6695 62.3438 56.2875 62.7014 56.0075C64.3615 54.7089 68.5501 49.1752 69.6569 47.2401C69.9038 46.8073 70.6104 45.4917 70.6019 45.0844C70.5678 44.1592 69.3845 43.5906 69.6399 41.7064C69.8953 39.8222 71.2063 39.1602 72.909 39.0244C74.3223 38.9141 78.1108 39.0499 79.4644 39.296C84.0617 40.1278 88.7867 51.7299 88.9825 55.9056C89.1187 58.8762 88.1822 63.4763 85.2025 64.8682C83.0316 65.301 71.7172 69.3155 70.4486 67.5501C69.5632 64.9615 70.9509 63.3659 71.9981 61.2526C72.7558 59.7164 73.1645 57.1617 75.4801 57.2636C76.6039 57.3145 76.655 58.2566 78.0001 58.1208C81.4906 57.7813 79.7454 53.4443 77.6 52.3919C77.319 52.3919 77.2339 52.5616 77.0636 52.7144C76.5273 53.2236 75.5993 54.327 75.0459 54.9466C72.858 57.3824 70.8999 60.2596 68.763 62.6869C65.4257 66.4892 57.8487 68.0339 53.294 65.8103C51.438 64.9021 50.9187 63.8752 50.6974 61.8212C50.476 59.7673 51.8211 52.7314 47.607 54.7598C46.3384 55.3709 46.6109 56.7289 46.1511 57.9765C45.3764 60.0814 43.9717 60.6245 42.5755 62.0504C41.009 63.646 39.7064 65.8951 37.2716 66.311C35.4923 66.6165 33.6023 66.4638 32.0102 65.5981C30.2735 64.6475 30.6396 63.9261 29.6946 62.6021C29.2349 61.957 26.7659 59.6994 26.0508 59.657C24.9185 59.5976 22.2708 63.9261 21.0874 64.8173C18.627 66.6845 13.8765 65.5811 10.7606 65.7678C8.14694 65.9291 5.32046 66.8881 2.89412 67.0494C0.467776 67.2107 -0.264384 66.2855 0.0676417 63.8073C0.263452 62.3559 1.14034 61.3035 1.5575 59.9965C3.25169 54.7174 1.40426 47.1892 1.27656 41.6979C1.23399 39.9835 1.80439 38.8207 1.9321 37.2421C2.13642 34.662 1.43831 31.8187 1.71074 29.3829C1.82142 28.4069 2.23858 27.4393 3.20061 27.0489C4.99695 26.8197 7.1083 26.2766 8.87059 26.1238C16.8988 25.4193 12.2419 31.3604 10.9138 35.1627C9.52613 39.1687 10.5392 47.0364 10.4456 51.6705C10.4286 52.7314 9.8241 56.0584 10.4371 56.7543C11.6545 58.1463 16.2007 56.7034 17.6139 55.8377C19.8785 54.4458 20.3212 52.2137 21.6323 50.0834C23.6585 46.7903 26.7745 42.1478 29.3796 39.347C33.0829 35.3579 34.1301 37.1148 38.3783 38.4558C39.9448 38.9481 42.6095 39.1602 43.7333 40.3315C45.1721 41.8252 45.9298 48.3265 49.6757 46.001C51.5402 44.8467 50.2887 42.1223 50.7144 40.2466C50.9613 39.1687 52.979 37.989 54.0176 37.8108C55.2521 37.5986 60.4794 38.1672 61.2456 39.0923L61.2626 39.1008ZM34.8793 46.7139C32.4274 47.1128 30.9716 51.8742 32.1975 53.962C32.6998 54.8108 35.1006 56.4912 36.0882 56.4318C37.859 56.313 39.5702 50.8217 39.4 49.345C39.2297 47.8682 36.1223 46.5102 34.8793 46.7139Z" fill="#0F1010"/>
<path d="M32.5895 0.000372974C32.283 1.01036 31.9595 1.62993 32.6236 2.62294C33.4068 3.79418 34.5306 2.66538 35.6799 2.54655C36.6164 2.45319 37.4337 2.67386 38.3446 2.75874C38.5234 2.59748 37.3996 0.8491 38.3446 0.636918C38.268 1.98639 40.0218 1.97791 40.5752 2.75874C40.9072 3.22554 40.8136 4.06577 41.2477 4.21855C42.2779 4.08275 43.3846 4.15065 44.3977 4.01485C45.0362 3.93847 45.9387 3.0473 46.4325 4.02334L44.0913 4.88055C44.0402 5.18609 44.6531 5.27097 44.8319 5.27097C45.828 5.23702 46.8666 4.43073 47.9223 4.45619L47.2668 6.13667C46.5516 5.67836 45.9302 6.13667 45.2661 6.15364C44.883 6.17062 44.4062 5.77172 44.0998 6.04331C44.4914 6.49313 44.9 7.01086 45.1214 7.57102C45.3683 8.21605 46.3729 11.263 46.4325 11.7977C46.5516 12.9689 45.9216 14.1317 46.0068 15.3878C46.0323 15.7697 46.5261 18.6724 46.6027 18.8336C46.8071 19.275 47.3434 19.3768 47.6243 19.7248C48.0245 20.217 48.4246 21.1082 48.8843 21.4392C49.3866 21.7957 49.957 21.7363 50.4679 21.9824C52.7835 23.1112 50.8765 24.7577 49.0206 24.3758C48.9099 23.5271 48.3395 22.5171 47.5818 22.0927C47.105 21.8211 46.1685 21.7702 45.8025 21.3204C45.513 20.9554 45.6662 20.5905 45.5556 20.4038C45.5045 20.3274 43.8614 19.9539 43.7592 19.9539C43.0441 19.9285 40.0473 21.8381 39.7409 22.5001C39.3152 23.4167 40.2091 23.9005 40.0218 24.6644C39.7834 25.6234 37.1272 27.7537 37.0676 28.3394C36.9144 29.884 41.3499 31.1996 42.4141 31.921C43.0356 32.5915 41.8437 33.4657 41.2052 33.5251C40.2857 33.61 40.3538 33.0837 39.826 32.7952C38.3957 32.0144 37.7657 31.0044 36.5057 30.3763C35.8161 30.0368 34.2071 29.8161 33.858 29.3918C33.211 28.6194 35.9183 26.6759 34.4029 25.6659C33.9091 25.5555 33.0322 27.55 31.8403 26.7438C31.5339 26.5316 31.3721 25.9714 31.287 25.9205C30.989 25.7423 26.281 27.0493 25.7787 27.4567C24.5783 28.4327 24.706 30.2745 24.1441 31.3439C23.9143 31.7852 23.4716 31.8107 23.2162 32.3284C22.6287 33.5421 22.5181 35.3923 22.3563 36.6739L19.615 36.6993C19.1042 36.2071 21.4709 33.4147 21.6923 32.931C22.0243 32.2011 22.0498 31.0298 22.3733 30.215C23.1821 28.2121 23.2247 29.2984 23.2247 26.8371C23.2247 26.0902 23.3864 24.2315 23.1992 23.6799C22.9523 22.9499 21.4369 23.1197 21.5135 20.8791C21.5901 18.91 22.1946 19.275 20.0406 18.1207C20.4408 17.7727 21.6667 18.7827 21.5305 17.8067L20.4663 16.9579L22.169 17.3823C22.4329 17.0513 21.3773 15.8376 22.0583 15.897C22.782 16.6863 23.8632 17.255 23.6163 18.4941C23.395 19.6229 21.2921 21.609 23.131 22.4577C23.6589 21.9315 23.727 21.1846 24.2889 20.6584C24.8508 20.1322 25.7702 19.9879 26.3236 19.5041C26.9706 18.944 27.524 17.9509 28.3583 17.2889C30.342 15.7188 32.9897 14.9549 34.4795 12.553L34.2582 9.77771C33.5941 9.7183 33.211 8.67436 32.9726 8.52159C32.5895 8.27546 31.8233 8.38579 31.2189 7.83412C29.5758 6.3149 31.6275 5.86508 31.7126 4.93148C31.7467 4.5835 31.2103 3.81116 31.1337 3.251C30.9805 2.10522 31.2785 0.28894 32.6066 -0.0166016L32.5895 0.000372974Z" fill="#0F1010"/>
<path d="M52.0255 33.0322C50.9699 31.9543 51.3615 30.3417 51.9149 29.1365C53.2685 26.1999 57.4656 25.9198 59.611 28.118C61.4074 29.9513 61.5096 32.0816 60.2581 34.2798C59.6366 35.3662 57.5423 36.512 56.3078 36.4695C55.0734 36.4271 54.0092 34.6278 53.2344 33.8469C52.8854 33.4905 52.315 33.3292 52.0255 33.0407V33.0322Z" fill="#0F1010"/>
</g>
<defs>
<clipPath id="clip0_990_52729">
<rect width="89" height="68" fill="white"/>
</clipPath>
</defs>
</svg>
