<svg width="150" height="62" viewBox="0 0 150 62" fill="none" xmlns="http://www.w3.org/2000/svg">
<g clip-path="url(#clip0_990_52734)">
<path d="M129.636 26.962C127.1 27.5465 120.403 27.8713 120.403 27.8713L119.579 30.5127C119.579 30.5127 122.895 30.2313 125.323 30.4694C125.323 30.4694 126.103 30.4045 126.19 31.3355C126.233 32.2881 126.125 33.2841 126.125 33.2841C126.125 33.2841 126.06 33.8686 125.258 34.0202C124.326 34.1718 118.041 34.4532 118.041 34.4532L117.022 37.8741C117.022 37.8741 116.654 38.6535 117.499 38.437C118.279 38.2205 124.868 36.9647 125.735 37.138C126.645 37.3545 127.685 38.6102 127.382 39.7361C127.035 41.1001 120.446 45.3004 116.459 45.0189C116.459 45.0189 114.356 45.1489 112.601 42.3126C110.91 39.6062 113.186 34.5182 113.186 34.5182C113.186 34.5182 112.167 32.1366 112.926 31.2705C112.926 31.2705 113.359 30.9024 114.66 30.7942L116.285 27.4599C116.285 27.4599 114.443 27.5682 113.359 26.2258C112.362 24.9268 112.276 24.3638 113.056 24.0174C113.88 23.5844 121.508 22.2204 126.753 22.3936C126.753 22.3936 128.595 22.1771 130.221 25.3598C130.221 25.3598 130.958 26.6588 129.657 26.962M109.87 39.7794C109.22 41.3599 107.421 43.0271 105.254 42.0094C103.043 40.9702 99.5537 33.8686 99.5537 33.8686C99.5537 33.8686 98.2534 31.2272 97.9933 31.3138C97.9933 31.3138 97.7115 30.7942 97.5598 33.6954C97.3431 36.575 97.6032 42.1827 96.4112 43.0704C95.3275 43.9364 94.0272 43.5683 93.2903 42.5507C92.6834 41.5331 92.4234 39.0866 92.7701 34.8213C93.1602 30.556 94.1355 26.0093 95.3709 24.602C96.6712 23.173 97.7115 24.2123 98.1017 24.602C98.1017 24.602 99.7705 26.1176 102.588 30.5993L103.065 31.4221C103.065 31.4221 105.622 35.6873 105.882 35.6657C105.882 35.6657 106.099 35.8822 106.272 35.709C106.532 35.644 106.446 34.2584 106.446 34.2584C106.446 34.2584 105.969 29.6467 103.585 21.8523C103.585 21.8523 103.238 20.8564 103.477 19.9037C103.693 19.0377 104.625 19.4707 104.625 19.4707C104.625 19.4707 108.223 21.2028 109.978 27.0486C111.712 32.8943 110.542 38.1989 109.892 39.7794M92.2305 24.7752C91.8837 25.3814 91.732 26.2258 90.2366 26.464C90.2366 26.464 75.7179 27.4816 75.0027 28.4992C75.0027 28.4992 74.5259 29.1054 75.3062 29.257C76.1297 29.4302 79.424 29.8632 80.9844 29.9498C82.6749 29.9498 88.3532 29.9931 90.4338 32.5479C90.4338 32.5479 91.6258 33.7604 91.5825 36.5101C91.5391 39.3247 91.0406 40.3207 89.9353 41.3383C88.7867 42.2909 78.9472 46.7077 72.5992 39.9526C72.5992 39.9526 69.695 36.7049 73.6178 34.2367C73.6178 34.2367 76.4353 32.5046 83.6524 34.5182C83.6524 34.5182 85.8196 35.2976 85.733 36.0987C85.6029 36.9647 83.9341 37.8308 81.5068 37.7875C79.1661 37.7225 77.4323 36.5967 77.779 36.7915C78.1041 36.8998 75.2433 35.4059 74.3547 36.4235C73.4878 37.3761 73.7045 37.939 74.5714 38.5236C76.7387 39.7794 85.2562 39.3247 87.7919 36.4884C87.7919 36.4884 88.8105 35.3409 87.2717 34.4099C85.7546 33.5439 81.3334 33.0026 79.6212 32.9377C77.9958 32.851 71.9057 32.9377 70.9954 31.3571C70.9954 31.3571 70.1285 30.2313 71.0821 27.1568C72.0791 23.9092 79.1661 22.6534 82.2436 22.3936C82.2436 22.3936 90.696 22.0472 92.2782 23.7792C92.2782 23.7792 92.4949 24.169 92.2348 24.7535M68.2625 43.8043C67.2438 44.5621 65.0766 44.2373 64.448 43.3713C63.8412 42.6135 63.6245 39.6257 63.7328 34.9274C63.8846 30.1208 63.9496 24.2318 65.0332 23.2791C66.1169 22.3481 66.767 23.1709 67.2005 23.7987C67.634 24.4483 68.1975 25.1628 68.2841 26.6567C68.4142 28.1723 68.7826 35.9666 68.7826 35.9666C68.7826 35.9666 69.2594 43.0682 68.2841 43.8043M70.4298 18.4747C67.4389 19.4923 65.4016 19.1676 63.6678 18.4098C62.9093 19.7738 62.4541 20.1852 61.8907 20.2718C61.0237 20.3584 60.2652 18.9727 60.1568 18.5397C59.9834 18.2149 59.5717 17.6303 60.0701 16.3096C58.3797 14.7941 58.2496 12.7589 58.553 11.3948C58.9431 9.79266 61.804 3.77366 70.4731 3.05918C70.4731 3.05918 74.721 2.75606 75.4579 5.00777H75.5879C75.5879 5.00777 79.7057 5.00777 79.619 8.68845C79.619 12.3691 75.0677 16.9592 70.4298 18.5397M74.2875 7.99778C71.5567 8.43081 67.3522 12.0682 65.3366 15.0777C68.4359 15.6406 73.8541 15.4241 76.2814 10.531C76.2814 10.531 77.4301 7.45651 74.2875 7.99778ZM62.3024 10.3794C61.4355 11.7867 61.3922 12.6311 61.804 13.194C62.8226 11.6785 64.6214 9.29685 67.3305 7.43486C65.2499 7.65137 63.4944 8.51741 62.3024 10.3794ZM136.135 43.6528C134.141 48.5459 132.451 53.504 131.476 60.9282C131.476 60.9282 131.259 62.3788 130.067 61.9025C128.875 61.4694 126.924 59.5208 126.491 56.7711C126.057 53.1771 127.661 47.1148 130.934 40.1453C129.98 38.6297 129.308 36.378 129.85 33.2169C129.85 33.2169 130.717 27.3712 136.569 22.0883C136.569 22.0883 137.262 21.5037 137.652 21.6986C138.129 21.9151 137.934 23.7771 137.544 24.7297C137.197 25.6391 134.597 30.1425 134.597 30.1425C134.597 30.1425 132.971 33.2169 133.426 35.6202C136.504 30.9003 143.504 21.3327 147.837 24.3617C150.589 26.3103 150.589 32.5891 148.53 36.2264C146.905 39.106 142.31 45.0601 136.177 43.6744M145.195 28.9539C143.591 30.6859 140.73 33.9769 138.476 38.437C140.86 38.1772 143.179 36.8565 143.894 36.1853C145.043 35.1677 147.687 32.418 147.275 28.7806C147.275 28.7806 147.015 26.8753 145.195 28.9539ZM48.1089 46.2076C40.4367 48.5459 33.2001 47.4634 29.2557 46.4241C29.1473 48.0263 28.9739 48.6975 28.7138 48.9573C28.4104 49.3037 25.8964 50.7327 24.5093 48.6975C23.9025 47.7232 23.599 45.9694 23.4257 44.3672C14.5398 40.3401 10.4219 34.4078 10.2919 34.1912C10.0752 33.9747 8.05961 31.8746 10.0752 29.2765C11.9607 26.9381 18.2025 24.5782 23.7941 23.6472C24.0108 18.8839 24.531 15.2033 25.2028 13.5794C26.0047 11.6308 27.0234 13.3629 27.9336 14.662C28.6705 15.6363 29.1256 19.8149 29.169 23.1492C32.81 22.976 35.0206 23.2358 39.0735 24.0152C44.405 24.9246 47.9593 27.6526 47.6776 30.7271C47.4175 33.7582 44.6434 35.014 43.5597 35.1006C42.4761 35.1872 40.7423 34.3861 40.7423 34.3861C39.5286 33.8232 40.6339 33.3036 42.0426 32.6973C43.6031 31.9395 43.2563 31.1817 43.2563 31.1817C42.6928 29.4497 35.7792 28.3022 28.9111 28.3022C28.9111 32.0911 29.0628 38.3699 29.1711 42.0289C33.9825 42.9383 37.5802 42.7434 37.5802 42.7434C37.5802 42.7434 55.1331 42.2454 55.6315 31.0518C56.1734 19.8366 38.0787 9.09982 24.7499 5.72226C11.4406 2.2386 3.89842 4.70682 3.24823 5.03159C2.53303 5.378 3.18321 5.50791 3.18321 5.50791C3.18321 5.50791 3.89842 5.61617 5.19879 6.04919C6.49916 6.48221 5.45886 7.13174 5.45886 7.13174C3.18321 7.91118 0.647489 7.45651 0.149014 6.41726C-0.349462 5.39966 0.474107 4.46866 1.44939 3.10464C2.35965 1.69732 3.39994 1.74063 3.39994 1.74063C19.8691 -3.99691 39.9816 6.28735 39.9816 6.28735C58.7914 15.7705 61.999 26.9187 61.6522 31.2489C61.3488 35.5141 59.7017 42.7239 48.1067 46.2292M11.9174 30.7292C10.0535 31.5953 11.3539 32.981 11.3539 32.981C14.8649 36.7266 19.1561 39.0866 23.274 40.5588C23.7508 34.0635 23.7074 31.7468 23.7074 28.4775C17.3356 28.9106 13.6512 29.9498 11.9174 30.7292Z" fill="#0F1010"/>
</g>
<defs>
<clipPath id="clip0_990_52734">
<rect width="150" height="62" fill="white"/>
</clipPath>
</defs>
</svg>
