<?xml version="1.0" encoding="utf-8"?>
<!-- Generator: Adobe Illustrator 27.4.0, SVG Export Plug-In . SVG Version: 6.00 Build 0)  -->
<svg version="1.1" id="Шар_1" xmlns="http://www.w3.org/2000/svg" xmlns:xlink="http://www.w3.org/1999/xlink" x="0px" y="0px"
	 viewBox="0 0 24 24" style="enable-background:new 0 0 24 24;" xml:space="preserve">
<style type="text/css">
	.st0{clip-path:url(#SVGID_00000013886655440827458030000011142394135756918186_);}
	.st1{fill:#0F1010;}
</style>
<g>
	<defs>
		<rect id="SVGID_1_" width="24" height="24"/>
	</defs>
	<clipPath id="SVGID_00000078755389470577543190000006026154912205200513_">
		<use xlink:href="#SVGID_1_"  style="overflow:visible;"/>
	</clipPath>
	<g style="clip-path:url(#SVGID_00000078755389470577543190000006026154912205200513_);">
		<g>
			<path class="st1" d="M10.5,21.2h-6c-0.6,0-1-0.4-1-1V3.8c0-0.6,0.4-1,1-1h6c0.6,0,1,0.4,1,1s-0.4,1-1,1h-5v14.5h5
				c0.6,0,1,0.4,1,1S11.1,21.2,10.5,21.2z"/>
		</g>
		<g>
			<path class="st1" d="M21,13H10.5c-0.6,0-1-0.4-1-1s0.4-1,1-1H21c0.6,0,1,0.4,1,1S21.6,13,21,13z"/>
		</g>
		<g>
			<path class="st1" d="M17.2,16.8c-0.3,0-0.5-0.1-0.7-0.3c-0.4-0.4-0.4-1,0-1.4l3-3l-3-3c-0.4-0.4-0.4-1,0-1.4s1-0.4,1.4,0l3.8,3.8
				c0.4,0.4,0.4,1,0,1.4L18,16.5C17.8,16.7,17.5,16.8,17.2,16.8z"/>
		</g>
	</g>
</g>
</svg>
