<?xml version="1.0" encoding="utf-8"?>
<!-- Generator: Adobe Illustrator 27.4.0, SVG Export Plug-In . SVG Version: 6.00 Build 0)  -->
<svg version="1.1" id="Шар_1" xmlns="http://www.w3.org/2000/svg" xmlns:xlink="http://www.w3.org/1999/xlink" x="0px" y="0px"
	 viewBox="0 0 24 24" style="enable-background:new 0 0 24 24;" xml:space="preserve">
<style type="text/css">
	.st0{clip-path:url(#SVGID_00000156588249804789644180000014736504790565983158_);}
	.st1{fill:#0F1010;}
</style>
<g>
	<defs>
		<rect id="SVGID_1_" width="24" height="24"/>
	</defs>
	<clipPath id="SVGID_00000155141829711048035280000016993658964852278459_">
		<use xlink:href="#SVGID_1_"  style="overflow:visible;"/>
	</clipPath>
	<g style="clip-path:url(#SVGID_00000155141829711048035280000016993658964852278459_);">
		<g>
			<path class="st1" d="M18.8,22.8H5.2c-0.6,0-1-0.4-1-1s0.4-1,1-1h13.5c0.6,0,1,0.4,1,1S19.3,22.8,18.8,22.8z"/>
		</g>
		<g>
			<path class="st1" d="M12,13.8c-2.2,0-4-1.8-4-4s1.8-4,4-4c2.2,0,4,1.8,4,4S14.2,13.8,12,13.8z M12,7.8c-1.1,0-2,0.9-2,2
				s0.9,2,2,2c1.1,0,2-0.9,2-2S13.1,7.8,12,7.8z"/>
		</g>
		<g>
			<path class="st1" d="M12,22.8c-0.2,0-0.4-0.1-0.6-0.2c-0.3-0.2-7.9-5.6-7.9-12.8c0-2.3,0.9-4.4,2.5-6c1.6-1.6,3.7-2.5,6-2.5
				c2.3,0,4.4,0.9,6,2.5c1.6,1.6,2.5,3.7,2.5,6c0,7.2-7.6,12.6-7.9,12.8C12.4,22.7,12.2,22.8,12,22.8z M12,3.2
				c-1.7,0-3.4,0.7-4.6,1.9S5.5,8,5.5,9.8c0,5.1,4.8,9.4,6.5,10.7c1.7-1.3,6.5-5.7,6.5-10.7c0-1.7-0.7-3.4-1.9-4.6
				C15.4,3.9,13.7,3.2,12,3.2z"/>
		</g>
	</g>
</g>
</svg>
