<?xml version="1.0" encoding="utf-8"?>
<!-- Generator: Adobe Illustrator 27.4.0, SVG Export Plug-In . SVG Version: 6.00 Build 0)  -->
<svg version="1.1" id="Шар_1" xmlns="http://www.w3.org/2000/svg" xmlns:xlink="http://www.w3.org/1999/xlink" x="0px" y="0px"
	 viewBox="0 0 24 24" style="enable-background:new 0 0 24 24;" xml:space="preserve">
<style type="text/css">
	.st0{clip-path:url(#SVGID_00000109719066725969486950000003215598122831079822_);}
	.st1{fill:#0F1010;}
</style>
<g>
	<defs>
		<rect id="SVGID_1_" width="24" height="24"/>
	</defs>
	<clipPath id="SVGID_00000098217071894068882520000007603500215515648401_">
		<use xlink:href="#SVGID_1_"  style="overflow:visible;"/>
	</clipPath>
	<g style="clip-path:url(#SVGID_00000098217071894068882520000007603500215515648401_);">
		<g>
			<path class="st1" d="M12,22c-0.2,0-0.3,0-0.5-0.1C11.1,21.7,1.2,16.3,1.2,9.6c0-1.6,0.6-3.1,1.8-4.3c1.1-1.1,2.7-1.8,4.3-1.8
				c1.9,0,3.6,0.8,4.7,2.1c1.1-1.3,2.8-2.1,4.7-2.1c1.6,0,3.1,0.6,4.3,1.8c1.1,1.1,1.8,2.7,1.8,4.3c0,6.7-9.9,12.1-10.3,12.3
				C12.3,22,12.2,22,12,22z M7.3,5.5c-1.1,0-2.1,0.4-2.9,1.2C3.7,7.5,3.2,8.5,3.2,9.6c0,4.8,6.9,9.2,8.8,10.3
				c1.9-1.1,8.8-5.5,8.8-10.3c0-1.1-0.4-2.1-1.2-2.9c-0.8-0.8-1.8-1.2-2.9-1.2c-1.7,0-3.2,0.9-3.8,2.4c-0.2,0.4-0.5,0.6-0.9,0.6
				s-0.8-0.2-0.9-0.6C10.5,6.4,9,5.5,7.3,5.5z"/>
		</g>
	</g>
</g>
</svg>
