<?xml version="1.0" encoding="utf-8"?>
<!-- Generator: Adobe Illustrator 27.4.0, SVG Export Plug-In . SVG Version: 6.00 Build 0)  -->
<svg version="1.1" id="Шар_1" xmlns="http://www.w3.org/2000/svg" xmlns:xlink="http://www.w3.org/1999/xlink" x="0px" y="0px"
	 viewBox="0 0 24 24" style="enable-background:new 0 0 24 24;" xml:space="preserve">
<style type="text/css">
	.st0{clip-path:url(#SVGID_00000039817038314222274770000011256969219265190059_);}
	.st1{fill:#0F1010;}
</style>
<g>
	<defs>
		<rect id="SVGID_1_" width="24" height="24"/>
	</defs>
	<clipPath id="SVGID_00000124882070093803628480000015298521665712625054_">
		<use xlink:href="#SVGID_1_"  style="overflow:visible;"/>
	</clipPath>
	<g style="clip-path:url(#SVGID_00000124882070093803628480000015298521665712625054_);">
		<g>
			<path class="st1" d="M19.5,21.2h-15c-0.5,0-0.9-0.2-1.2-0.5c-0.3-0.3-0.5-0.8-0.5-1.2V6.8c0-0.2,0-0.3,0.1-0.4l1.5-3
				C4.5,3,4.9,2.8,5.2,2.8h13.5c0.4,0,0.7,0.2,0.9,0.6l1.5,3c0.1,0.1,0.1,0.3,0.1,0.4v12.8c0,0.5-0.2,0.9-0.5,1.2
				C20.4,21.1,20,21.2,19.5,21.2z M4.8,19.2h14.5V7l-1.1-2.2H5.9L4.8,7V19.2z"/>
		</g>
		<g>
			<path class="st1" d="M20.2,7.8H3.8c-0.6,0-1-0.4-1-1s0.4-1,1-1h16.5c0.6,0,1,0.4,1,1S20.8,7.8,20.2,7.8z"/>
		</g>
		<g>
			<path class="st1" d="M12,18.2c-0.6,0-1-0.4-1-1V9.8c0-0.6,0.4-1,1-1s1,0.4,1,1v7.5C13,17.8,12.6,18.2,12,18.2z"/>
		</g>
		<g>
			<path class="st1" d="M12,18.2c-0.3,0-0.5-0.1-0.7-0.3l-3-3c-0.4-0.4-0.4-1,0-1.4s1-0.4,1.4,0l2.3,2.3l2.3-2.3
				c0.4-0.4,1-0.4,1.4,0s0.4,1,0,1.4l-3,3C12.5,18.2,12.3,18.2,12,18.2z"/>
		</g>
	</g>
</g>
</svg>
