<?xml version="1.0" encoding="utf-8"?>
<!-- Generator: Adobe Illustrator 27.4.0, SVG Export Plug-In . SVG Version: 6.00 Build 0)  -->
<svg version="1.1" id="Шар_1" xmlns="http://www.w3.org/2000/svg" xmlns:xlink="http://www.w3.org/1999/xlink" x="0px" y="0px"
	 viewBox="0 0 24 24" style="enable-background:new 0 0 24 24;" xml:space="preserve">
<style type="text/css">
	.st0{clip-path:url(#SVGID_00000175304818592957130560000014864095420804331423_);}
	.st1{fill:#0F1010;}
</style>
<g>
	<defs>
		<rect id="SVGID_1_" width="24" height="24"/>
	</defs>
	<clipPath id="SVGID_00000103239026729799443840000011690104707747837629_">
		<use xlink:href="#SVGID_1_"  style="overflow:visible;"/>
	</clipPath>
	<g style="clip-path:url(#SVGID_00000103239026729799443840000011690104707747837629_);">
		<g>
			<path class="st1" d="M12,22C6.5,22,2,17.5,2,12C2,6.5,6.5,2,12,2c5.5,0,10,4.5,10,10C22,17.5,17.5,22,12,22z M12,4
				c-4.4,0-8,3.6-8,8s3.6,8,8,8s8-3.6,8-8S16.4,4,12,4z"/>
		</g>
		<g>
			<path class="st1" d="M12,16c-2.6,0-4.8-2.1-4.8-4.8S9.4,6.5,12,6.5s4.8,2.1,4.8,4.8S14.6,16,12,16z M12,8.5
				c-1.5,0-2.8,1.2-2.8,2.8S10.5,14,12,14s2.8-1.2,2.8-2.8S13.5,8.5,12,8.5z"/>
		</g>
		<g>
			<path class="st1" d="M18,19.7c-0.4,0-0.7-0.2-0.9-0.5c-0.5-0.9-1.2-1.7-2.1-2.3c-1.8-1.1-4.2-1.1-6,0c-0.9,0.6-1.6,1.3-2.1,2.3
				c-0.2,0.5-0.9,0.7-1.3,0.4c-0.5-0.2-0.7-0.9-0.4-1.3c0.6-1.3,1.6-2.3,2.9-3.1c2.4-1.5,5.7-1.5,8.1,0c1.2,0.7,2.2,1.8,2.9,3.1
				c0.2,0.5,0.1,1.1-0.4,1.3C18.3,19.7,18.2,19.7,18,19.7z"/>
		</g>
	</g>
</g>
</svg>
