<?xml version="1.0" encoding="utf-8"?>
<!-- Generator: Adobe Illustrator 27.4.0, SVG Export Plug-In . SVG Version: 6.00 Build 0)  -->
<svg version="1.1" id="Шар_1" xmlns="http://www.w3.org/2000/svg" xmlns:xlink="http://www.w3.org/1999/xlink" x="0px" y="0px"
	 viewBox="0 0 24 24" style="enable-background:new 0 0 24 24;" xml:space="preserve">
<style type="text/css">
	.st0{clip-path:url(#SVGID_00000138545684086646983820000003826052912815554705_);}
	.st1{fill:#0F1010;}
</style>
<g>
	<defs>
		<rect id="SVGID_1_" y="1" width="24" height="24"/>
	</defs>
	<clipPath id="SVGID_00000093147843588908240510000016095631533412760204_">
		<use xlink:href="#SVGID_1_"  style="overflow:visible;"/>
	</clipPath>
	<g style="clip-path:url(#SVGID_00000093147843588908240510000016095631533412760204_);">
		<g>
			<path class="st1" d="M19.5,22.2h-15c-1,0-1.8-0.8-1.8-1.8V10c0-1,0.8-1.8,1.8-1.8h15c1,0,1.8,0.8,1.8,1.8v10.5
				C21.2,21.5,20.5,22.2,19.5,22.2z M4.8,20.2h14.5v-10H4.8V20.2z M19.5,10.2L19.5,10.2L19.5,10.2z"/>
		</g>
		<g>
			<path class="st1" d="M8.2,10.2c-0.6,0-1-0.4-1-1v-3c0-1.3,0.5-2.5,1.4-3.4C9.5,2,10.7,1.5,12,1.5c2.3,0,4.3,1.6,4.7,3.8
				c0.1,0.5-0.2,1.1-0.8,1.2c-0.5,0.1-1.1-0.2-1.2-0.8c-0.3-1.3-1.4-2.2-2.8-2.2c-0.7,0-1.4,0.3-1.9,0.8C9.5,4.8,9.2,5.5,9.2,6.2v3
				C9.2,9.8,8.8,10.2,8.2,10.2z"/>
		</g>
	</g>
</g>
</svg>
