<?xml version="1.0" encoding="utf-8"?>
<!-- Generator: Adobe Illustrator 27.4.0, SVG Export Plug-In . SVG Version: 6.00 Build 0)  -->
<svg version="1.1" id="Шар_1" xmlns="http://www.w3.org/2000/svg" xmlns:xlink="http://www.w3.org/1999/xlink" x="0px" y="0px"
	 viewBox="0 0 24 24" style="enable-background:new 0 0 24 24;" xml:space="preserve">
<style type="text/css">
	.st0{clip-path:url(#SVGID_00000154420094346050843350000016043590404023499947_);}
</style>
<g>
	<defs>
		<rect id="SVGID_1_" width="24" height="24"/>
	</defs>
	<clipPath id="SVGID_00000156573990908115000760000008733997885845677228_">
		<use xlink:href="#SVGID_1_"  style="overflow:visible;"/>
	</clipPath>
	<g style="clip-path:url(#SVGID_00000156573990908115000760000008733997885845677228_);">
		<g>
			<path d="M22.7,24.3H1.3c-0.3,0-0.6-0.1-0.8-0.4c-0.2-0.2-0.3-0.5-0.2-0.8L3,6.5c0.1-0.5,0.5-0.8,1-0.8h16c0.5,0,0.9,0.4,1,0.8
				l2.7,16.6c0,0.3,0,0.6-0.2,0.8C23.3,24.2,23,24.3,22.7,24.3z M2.5,22.3h19L19.1,7.7H4.9L2.5,22.3z"/>
		</g>
		<g>
			<path d="M16,12c-0.6,0-1-0.4-1-1V5.4C15,3.5,13.7,2,12,2S9,3.5,9,5.4V11c0,0.6-0.4,1-1,1s-1-0.4-1-1V5.4C7,2.4,9.2,0,12,0
				s5,2.4,5,5.4V11C17,11.6,16.6,12,16,12z"/>
		</g>
	</g>
</g>
</svg>
