<?xml version="1.0" encoding="utf-8"?>
<!-- Generator: Adobe Illustrator 27.4.0, SVG Export Plug-In . SVG Version: 6.00 Build 0)  -->
<svg version="1.1" id="Шар_1" xmlns="http://www.w3.org/2000/svg" xmlns:xlink="http://www.w3.org/1999/xlink" x="0px" y="0px"
	 viewBox="0 0 20 20" style="enable-background:new 0 0 20 20;" xml:space="preserve">
<style type="text/css">
	.st0{clip-path:url(#SVGID_00000182528667038828487820000010498082937654214559_);}
</style>
<g>
	<defs>
		<rect id="SVGID_1_" width="20" height="20"/>
	</defs>
	<clipPath id="SVGID_00000024714435915183786380000001360167187084572844_">
		<use xlink:href="#SVGID_1_"  style="overflow:visible;"/>
	</clipPath>
	<g style="clip-path:url(#SVGID_00000024714435915183786380000001360167187084572844_);">
		<g>
			<path d="M4.4,16.1c-0.1,0-0.3,0-0.4-0.1c-0.2-0.2-0.2-0.5,0-0.7L15.3,4c0.2-0.2,0.5-0.2,0.7,0s0.2,0.5,0,0.7L4.7,16
				C4.6,16.1,4.5,16.1,4.4,16.1z"/>
		</g>
		<g>
			<path d="M15.6,16.1c-0.1,0-0.3,0-0.4-0.1L4,4.7C3.8,4.5,3.8,4.2,4,4s0.5-0.2,0.7,0L16,15.3c0.2,0.2,0.2,0.5,0,0.7
				C15.9,16.1,15.8,16.1,15.6,16.1z"/>
		</g>
	</g>
</g>
</svg>
