<svg width="66" height="64" viewBox="0 0 66 64" fill="none" xmlns="http://www.w3.org/2000/svg">
<path d="M17.6099 59.0244C17.3198 58.549 17.0985 57.9547 16.878 57.4411C16.6508 56.9108 16.1825 55.9451 16.403 55.3857L17.2808 55.7032C17.585 56.8119 18.0641 57.9024 18.525 58.9554C18.2233 58.9762 17.9083 58.982 17.6091 59.0244H17.6099Z" fill="#16091B"/>
<path d="M34.6377 13.9546C32.7113 12.7877 32.3831 11.1238 31.8634 9.06266C31.4033 7.23337 31.507 4.95778 32.4718 3.3155C33.3745 1.7771 34.9751 0.627671 36.6975 0.210452C38.4531 -0.214248 40.3969 -0.0147806 41.9304 0.979233C43.5285 2.0148 44.345 3.52161 44.9666 5.26197C46.3037 5.32763 51.374 5.79139 52.1516 6.81615C52.217 6.90259 52.2328 6.9749 52.2643 7.07214C52.0571 7.5974 51.6915 7.76445 51.1892 7.98138C49.1965 8.84573 46.699 9.00448 44.5489 9.30368C44.597 11.3108 45.0454 13.9455 43.5103 15.5379C42.5032 16.5826 40.1549 16.315 40.1474 17.5591C40.1391 19.1009 42.3896 23.4035 42.9068 25.3243C44.6367 24.7358 52.9564 22.0688 54.2653 22.0937C54.8422 22.8808 58.646 36.6083 58.5399 37.5815C58.5233 37.732 58.4396 37.7744 58.3194 37.85C57.4839 38.3811 45.861 41.7645 44.2903 42.033C43.749 42.1261 43.25 42.097 42.7212 41.9499C42.378 41.8526 42.0365 41.7487 41.6975 41.639L50.6197 57.7203C51.7984 57.2557 53.0153 56.4379 54.3001 57.0512C54.591 57.1884 54.8165 57.436 54.9267 57.7394C55.1116 58.2472 55.0038 58.8173 54.7485 59.2786C54.0274 60.581 50.6065 62.0404 49.209 62.9738L55.3271 62.9671C56.2264 62.9663 57.1896 62.8865 58.079 62.9704C58.3111 62.9912 58.5067 63.051 58.6825 63.2123C58.8126 63.3311 58.772 63.4001 58.7778 63.563C58.3725 63.8689 57.9058 63.8223 57.4093 63.8331C55.0469 63.8855 52.6829 63.8356 50.3205 63.8481L24.4563 63.8921L11.7866 63.9146C10.36 63.9137 8.04741 64.0883 6.75432 63.9354C6.60263 63.9179 6.47581 63.8664 6.33655 63.809L6.18652 63.578C6.22134 63.445 6.21553 63.2987 6.34153 63.2231C6.99056 62.8333 42.9342 62.9746 47.4757 62.9663C46.2291 60.1895 44.3988 57.5233 42.6582 55.0316C39.6982 50.7938 36.492 46.7105 33.5618 42.4593C33.1125 45.6791 32.7312 49.0767 31.8418 52.21C30.5247 53.5556 26.0437 56.1935 24.2333 57.2366C23.6564 57.5682 22.7761 57.7818 22.3012 58.2098C22.3874 58.3519 22.4819 58.4915 22.5681 58.6328C22.8441 59.0858 23.0596 59.7656 22.903 60.2951C22.6037 61.309 20.868 62.1493 19.9504 62.5316C19.7747 62.6039 19.6313 62.6263 19.444 62.6405C18.6159 62.2133 17.9619 59.9161 17.6088 59.0251C17.908 58.9827 18.223 58.9769 18.5247 58.9561C18.0638 57.9031 17.5847 56.8119 17.2805 55.704L16.4027 55.3865C19.7739 53.3287 23.0174 51.0705 26.2807 48.8473C26.018 45.143 25.6707 41.4113 25.7826 37.6962C25.916 33.2855 27.7711 22.2308 30.5902 19.0086C31.5012 17.9672 32.5696 17.3472 33.8768 16.9217C34.1321 15.9335 34.3965 14.9461 34.6377 13.9546Z" fill="#020003"/>
<path d="M35.2502 8.83326C35.4541 8.79336 35.6472 8.79586 35.8545 8.79004L35.9581 8.95294C35.7707 9.45327 35.3265 9.84223 34.9692 10.2304C34.6766 9.94446 34.234 9.54552 34.1536 9.14659C34.4354 8.86235 34.8722 8.87897 35.2494 8.83326H35.2502Z" fill="#4A3968"/>
<path d="M18.9276 54.8433L19.8079 54.249C20.297 55.3411 21.1018 56.7166 21.101 57.9292C20.9899 58.1029 20.8797 58.2633 20.7454 58.4212C19.9894 57.2743 19.4432 56.1182 18.9276 54.8441V54.8433Z" fill="#FEFEFE"/>
<path d="M33.1118 9.11621L33.6158 9.14946C33.7443 9.24337 33.8321 9.33064 33.9092 9.47276C34.2134 10.0354 35.2943 12.2695 35.3465 12.8255C35.3573 12.9302 35.286 13.0266 35.257 13.128C35.1501 13.1214 35.0407 13.1297 34.937 13.1064C34.4861 13.0033 34.0161 12.3775 33.7791 12.0068C33.2378 11.1591 32.9104 10.1152 33.1118 9.11704V9.11621Z" fill="#4A3968"/>
<path d="M49.1413 56.9307C49.4604 57.4501 49.7 57.9446 49.8351 58.5422C48.8023 58.7766 47.9062 59.4897 47.0467 60.0806L46.1937 58.5912C47.1619 58.0061 48.1839 57.5482 49.1405 56.9307H49.1413Z" fill="#FEFEFE"/>
<path d="M36.9347 27.8954C37.1842 28.517 37.2961 29.3016 37.4577 29.959L38.5535 34.4038L37.6998 33.7414C37.0192 33.1962 36.3288 32.6784 35.5388 32.3061C35.969 30.8367 36.3528 29.3116 36.9339 27.8945L36.9347 27.8954Z" fill="#DF3F45"/>
<path d="M44.9625 6.13184C47.058 6.5557 49.1626 6.49836 51.2605 7.06767C49.6641 7.52894 48.1007 7.88632 46.4512 8.11072C44.2779 8.47475 42.4128 8.57864 40.2535 8.06002C42.2056 7.82648 43.4365 7.36022 44.9625 6.13267V6.13184Z" fill="#DF3F45"/>
<path d="M18.9277 54.8438C19.4433 56.1178 19.9895 57.2739 20.7455 58.4209C21.145 58.7841 21.0845 58.5871 21.5296 58.7101C21.8098 58.7882 22.1413 59.5454 22.1264 59.8063C22.1016 60.2393 21.7352 60.6009 21.4011 60.8344C20.893 61.1893 20.312 61.4594 19.75 61.7162C19.3173 60.8045 18.902 59.8919 18.5257 58.9553C18.0648 57.9023 17.5857 56.811 17.2815 55.7031C17.8244 55.4047 18.3732 55.118 18.9277 54.8438Z" fill="#DF3F45"/>
<path d="M49.8348 58.543C50.9903 58.9718 53.3601 56.6139 54.0805 58.1532C54.1874 58.3809 54.1849 58.4366 54.0796 58.6726C53.6743 59.5785 49.3358 61.8059 48.2632 62.5897C47.8463 61.7644 47.3954 60.9382 47.0472 60.0814C47.9068 59.4904 48.8029 58.7782 49.8357 58.543H49.8348Z" fill="#DF3F45"/>
<path d="M39.6155 18.9014C40.5414 20.8104 41.4813 23.4077 42.0425 25.4555C41.1274 25.8071 40.1543 26.0564 39.2159 26.3415C38.5661 26.5202 37.9179 26.7047 37.2705 26.8925C38.0331 24.208 38.3912 21.4413 39.6155 18.9014Z" fill="#DF3F45"/>
<path d="M44.0213 25.856L44.294 25.8311C44.8295 26.3912 45.4918 29.7182 45.7487 30.6839C43.6914 31.3605 41.6001 31.924 39.5162 32.5091L39.2601 32.5664L39.0496 32.4301C38.3483 31.0039 38.1237 29.1231 37.7963 27.5706C39.8984 27.1101 41.964 26.4835 44.0221 25.856H44.0213Z" fill="#FCCE59"/>
<path d="M45.9249 31.582C46.3783 31.8846 48.1579 38.8576 48.448 40.0021C47.3895 40.3295 46.3327 40.6628 45.2775 41.0019C45.4416 40.6927 45.6016 40.3927 45.6455 40.0386C45.74 39.2939 45.3554 38.7388 44.9211 38.1761C43.725 37.0184 42.5139 36.8355 40.9307 36.6227C39.7719 35.5988 39.4064 35.032 39.1105 33.5036C41.3551 32.7855 43.6752 32.2985 45.9257 31.5829L45.9249 31.582Z" fill="#FCCE59"/>
<path d="M53.2905 23.18L53.6876 23.1484C54.2081 23.5266 54.9616 27.0804 55.202 27.9498C52.455 28.7302 49.7121 29.5248 46.9743 30.3343L46.6751 30.3833C46.0998 29.804 45.4052 26.5012 45.1333 25.5171C47.8289 24.6843 50.5311 23.7643 53.2913 23.1792L53.2905 23.18Z" fill="#FCCE59"/>
<path d="M31.8145 26.0135C33.2775 26.3194 34.7214 26.7216 36.167 27.1006C35.6274 28.9449 35.0546 30.7775 34.6286 32.6525C35.8786 33.3647 37.0208 34.1684 38.0934 35.1309C38.904 35.8581 39.7379 36.8521 40.6771 37.3973C41.4819 37.8652 42.5653 37.5959 43.4274 38.0281C44.2297 38.4312 44.5754 39.146 44.8522 39.9596C44.7196 40.3162 44.5828 40.6245 44.2753 40.8656C43.9239 41.1415 43.4953 41.1739 43.0709 41.0966C40.9664 40.7151 34.2945 35.8323 32.5845 34.205C32.1858 33.8252 31.8866 33.4096 31.589 32.9508C31.3884 30.7002 31.5948 28.2592 31.8153 26.0127L31.8145 26.0135Z" fill="#FEFEFE"/>
<path d="M37.1287 8.60644C39.5151 8.41196 39.8168 9.05192 41.8916 9.35361C42.461 9.43589 43.0893 9.38021 43.6646 9.36109C43.8345 11.0732 44.2158 13.2989 43.0603 14.7617C41.0502 17.3049 37.9178 14.0037 36.541 14.1591L36.4896 14.3544C36.803 15.0817 37.3127 15.336 37.9725 15.7033L39.6046 16.4655C39.2905 17.7379 38.7401 18.9347 38.2154 20.1307C37.3558 18.4419 36.3985 17.7952 34.6395 17.2027C34.8608 16.1064 35.2488 15.1082 35.6201 14.0594C36.0777 12.7678 35.9765 12.25 35.4013 11.0674C36.0213 10.5014 36.4507 10.001 36.7839 9.20983C36.8842 8.97047 36.948 8.80009 37.1295 8.6081L37.1287 8.60644Z" fill="#FEFEFE"/>
<path d="M37.8007 0.886922C39.1377 0.7955 40.2791 0.994967 41.4321 1.72136C42.4152 2.34054 43.8907 3.79084 44.1053 4.9652C44.1725 5.33505 44.0987 5.64755 43.8534 5.93927C42.9449 7.02554 39.5464 7.56659 38.2036 7.66134C36.3245 7.79931 34.4627 8.15835 32.5861 8.34285C32.3839 6.45207 32.4029 4.65021 33.6272 3.06195C34.6816 1.69394 36.1462 1.11631 37.8007 0.886091V0.886922Z" fill="#DF3F45"/>
<path d="M33.3381 18.1632C33.9075 18.1183 34.4049 18.1183 34.9627 18.2604C35.8687 18.4915 36.6014 18.937 37.0689 19.7714C38.1241 21.6539 37.0814 24.4215 36.5824 26.3605C34.9984 25.8751 33.4641 25.4562 31.8212 25.2194C31.8734 24.183 32.2812 21.9797 31.6463 21.1502L31.4473 21.1602C30.8174 22.2265 30.7046 29.3267 30.6566 31.0538C30.6491 31.5491 30.6491 32.0453 30.7071 32.5382C30.8605 33.843 31.6869 34.5844 32.641 35.3689C30.892 35.1853 28.5462 34.8528 26.9464 34.1273C27.6999 30.3191 28.2702 25.4371 29.7862 21.9439C30.5297 20.2294 31.5501 18.8564 33.3389 18.1624L33.3381 18.1632Z" fill="#DF3F45"/>
<path d="M55.0369 28.8852C55.1728 28.8652 55.269 28.8902 55.4024 28.9159C56.0141 29.944 57.352 35.7144 57.7532 37.2528C55.0253 38.1587 52.2252 38.9126 49.4675 39.7254C49.4609 39.7229 49.4526 39.7246 49.4468 39.7196C48.937 39.3381 47.1275 32.3742 46.8051 31.2389C49.4982 30.3504 52.3123 29.6955 55.0377 28.886L55.0369 28.8852Z" fill="#FCCE59"/>
<path d="M26.7639 34.9842C28.0015 35.3649 29.2166 35.6184 30.4998 35.7854C31.327 35.8943 32.2256 35.9209 33.0313 36.1345C34.0798 36.4113 35.1474 37.4119 36.0286 38.0344C37.2528 38.8988 38.9314 39.6509 39.9642 40.7131C40.9448 41.7246 41.6576 43.455 42.3647 44.6875C44.5521 48.4691 46.6725 52.2889 48.724 56.1461C47.6489 56.6447 46.6832 57.2249 45.6886 57.8673C43.0212 53.8472 40.1722 49.9069 37.3482 45.9965C36.506 44.7166 34.888 42.3263 33.817 41.3298C33.5443 41.0763 33.4424 41.0522 33.0752 41.0613C32.233 42.3471 31.9512 49.3766 30.9714 51.7112C30.954 51.752 30.9358 51.7919 30.9184 51.8326C28.7334 53.661 24.5756 55.9001 22.0069 57.4509C21.6753 56.1569 21.1208 54.9917 20.553 53.7907C22.7661 52.2656 25.0033 50.7779 27.2654 49.3268C27.0068 44.5055 26.3976 39.8288 26.7648 34.9834L26.7639 34.9842Z" fill="#D6D6D6"/>
</svg>
