<svg width="112" height="20" viewBox="0 0 112 20" fill="none" xmlns="http://www.w3.org/2000/svg">
<g clip-path="url(#clip0_702_912)">
<path d="M27.4492 11.6146V2.66951C27.4492 2.24355 27.7987 1.89746 28.2289 1.89746H37.5644C37.9946 1.89746 38.3441 2.24355 38.3441 2.66951C38.3441 3.09546 37.9946 3.44155 37.5644 3.44155H29.4521V6.06385H37.1141C37.5443 6.06385 37.8938 6.40994 37.8938 6.8359C37.8938 7.26185 37.5443 7.60794 37.1141 7.60794H29.4521V10.8292H37.5712C38.0013 10.8292 38.3508 11.1753 38.3508 11.6013C38.3508 12.0272 38.0013 12.3733 37.5712 12.3733H28.2289C27.7987 12.3933 27.4492 12.0406 27.4492 11.6146Z" fill="white"/>
<path d="M41.2612 11.6142C41.2612 11.1883 41.6107 10.8355 42.0409 10.8355H50.4758C51.3563 10.8355 51.7999 10.5094 51.7999 9.86382V8.53936C51.7999 7.89377 51.3563 7.56765 50.4758 7.56765H44.2454C43.6405 7.56765 43.1297 7.50775 42.7063 7.38129C42.2828 7.25484 41.9401 7.08179 41.6779 6.86216C41.4091 6.63587 41.2209 6.36965 41.0999 6.06349C40.9789 5.75733 40.9185 5.41124 40.9185 5.03188V4.41956C40.9185 4.0402 40.9789 3.70076 41.0999 3.38795C41.2209 3.08179 41.4158 2.81557 41.6779 2.58928C41.9468 2.36299 42.2896 2.18995 42.7063 2.07015C43.123 1.95034 43.6405 1.88379 44.2454 1.88379H52.4384C52.8685 1.88379 53.218 2.22988 53.218 2.65584C53.218 3.08179 52.8685 3.42788 52.4384 3.42788H44.2454C43.3649 3.42788 42.9213 3.75401 42.9213 4.3996V5.03853C42.9213 5.68412 43.3649 6.01025 44.2454 6.01025H50.4758C51.0807 6.01025 51.5915 6.07015 52.015 6.1966C52.4384 6.32306 52.7812 6.4961 53.0433 6.71574C53.3121 6.94203 53.5003 7.20825 53.6213 7.51441C53.7423 7.82056 53.8028 8.16665 53.8028 8.54602V9.84386C53.8028 10.2232 53.7423 10.5627 53.6213 10.8755C53.5003 11.1816 53.3054 11.4479 53.0433 11.6741C52.7744 11.9004 52.4317 12.0735 52.015 12.1933C51.5915 12.3197 51.0807 12.3796 50.4758 12.3796H42.0476C41.6107 12.3929 41.2612 12.0402 41.2612 11.6142Z" fill="white"/>
<path d="M58.1246 8.06718V11.6146C58.1246 12.0406 57.7751 12.3866 57.3449 12.3866H56.9081C56.4779 12.3866 56.1284 12.0406 56.1284 11.6146V2.66951C56.1284 2.24355 56.4779 1.89746 56.9081 1.89746H66.2436C66.6738 1.89746 67.0233 2.24355 67.0233 2.66951C67.0233 3.09546 66.6738 3.44155 66.2436 3.44155H58.1246V6.51643H65.6387C66.0689 6.51643 66.4184 6.86252 66.4184 7.28848C66.4184 7.71443 66.0689 8.06052 65.6387 8.06052H58.1246V8.06718Z" fill="white"/>
<path d="M68.6494 11.6146V2.66951C68.6494 2.24355 68.9989 1.89746 69.4291 1.89746H69.8659C70.2961 1.89746 70.6456 2.24355 70.6456 2.66951V11.6146C70.6456 12.0406 70.2961 12.3866 69.8659 12.3866H69.4291C68.9989 12.3933 68.6494 12.0406 68.6494 11.6146Z" fill="white"/>
<path d="M80.7404 11.974L78.5224 7.70778H74.3688V11.6146C74.3688 12.0406 74.026 12.3866 73.6026 12.3866H73.1724C72.749 12.3866 72.4062 12.0406 72.4062 11.6146V2.66951C72.4062 2.24355 72.749 1.89746 73.1724 1.89746H79.9137C80.5051 1.89746 81.0025 1.95736 81.4192 2.08382C81.8292 2.21027 82.1653 2.38332 82.4274 2.60295C82.6895 2.82924 82.8777 3.09546 82.9919 3.40162C83.1129 3.70778 83.1667 4.05387 83.1667 4.43323V5.17866C83.1667 5.85753 82.9718 6.4166 82.5752 6.86917C82.1854 7.32175 81.5267 7.59463 80.5992 7.68116L82.4543 11.2552C82.7231 11.7743 82.3534 12.3933 81.7754 12.3933H81.4125C81.1369 12.3933 80.8748 12.2336 80.7404 11.974ZM81.2041 4.41327C81.2041 3.76768 80.774 3.44155 79.907 3.44155H74.3688V6.15703H79.907C80.774 6.15703 81.2041 5.83091 81.2041 5.18531V4.41327Z" fill="white"/>
<path d="M88.2144 12.3259C87.623 12.3259 87.1256 12.266 86.7089 12.1396C86.2989 12.0131 85.9629 11.8401 85.7007 11.6204C85.4386 11.3941 85.2504 11.1279 85.1362 10.8218C85.0152 10.5156 84.9614 10.1695 84.9614 9.79014V2.60212C84.9614 2.17617 85.3042 1.83008 85.7276 1.83008H86.1578C86.5812 1.83008 86.924 2.17617 86.924 2.60212V9.80345C86.924 10.449 87.3541 10.7752 88.2211 10.7752H94.2634C95.1304 10.7752 95.5606 10.449 95.5606 9.80345V2.60212C95.5606 2.17617 95.9033 1.83008 96.3268 1.83008H96.7569C97.1803 1.83008 97.5231 2.17617 97.5231 2.60212V9.79014C97.5231 10.1695 97.4895 10.5089 97.4156 10.8218C97.3416 11.1279 97.2005 11.3941 96.9854 11.6204C96.7771 11.8467 96.4813 12.0198 96.1184 12.1396C95.7487 12.266 95.2716 12.3259 94.6801 12.3259H88.2144Z" fill="white"/>
<path d="M110.186 11.5472V4.97151L106.724 11.9998C106.583 12.1995 106.348 12.3193 106.106 12.3193H105.279C105.038 12.3193 104.802 12.1995 104.661 11.9998L101.247 4.98482V11.5472C101.247 11.9732 100.904 12.3193 100.481 12.3193H100.198C99.7749 12.3193 99.4321 11.9732 99.4321 11.5472V2.60212C99.4321 2.17617 99.7749 1.83008 100.198 1.83008H100.897C101.119 1.83008 101.321 1.95653 101.428 2.14955L105.77 10.4025L110.146 2.14955C110.253 1.94988 110.455 1.83008 110.676 1.83008H111.228C111.651 1.83008 111.994 2.17617 111.994 2.60212V11.5472C111.994 11.9732 111.651 12.3193 111.228 12.3193H110.952C110.529 12.3259 110.186 11.9732 110.186 11.5472Z" fill="white"/>
<path d="M8.62986 20C10.0664 20 11.2309 18.8469 11.2309 17.4243C11.2309 16.0018 10.0664 14.8486 8.62986 14.8486C7.19334 14.8486 6.02881 16.0018 6.02881 17.4243C6.02881 18.8469 7.19334 20 8.62986 20Z" fill="white"/>
<path d="M14.3896 12.752C15.8262 12.752 16.9907 11.5988 16.9907 10.1763C16.9907 8.75377 15.8262 7.60059 14.3896 7.60059C12.9531 7.60059 11.7886 8.75377 11.7886 10.1763C11.7886 11.5988 12.9531 12.752 14.3896 12.752Z" fill="white"/>
<path d="M2.60106 12.752C4.03758 12.752 5.20211 11.5988 5.20211 10.1763C5.20211 8.75377 4.03758 7.60059 2.60106 7.60059C1.16453 7.60059 0 8.75377 0 10.1763C0 11.5988 1.16453 12.752 2.60106 12.752Z" fill="white"/>
<path d="M14.3896 5.15141C15.8262 5.15141 16.9907 3.99823 16.9907 2.57571C16.9907 1.15318 15.8262 0 14.3896 0C12.9531 0 11.7886 1.15318 11.7886 2.57571C11.7886 3.99823 12.9531 5.15141 14.3896 5.15141Z" fill="white"/>
<path d="M2.60106 5.15141C4.03758 5.15141 5.20211 3.99823 5.20211 2.57571C5.20211 1.15318 4.03758 0 2.60106 0C1.16453 0 0 1.15318 0 2.57571C0 3.99823 1.16453 5.15141 2.60106 5.15141Z" fill="white"/>
<path d="M29.8688 16.5588C29.9696 16.6852 30.0233 16.8516 30.0233 17.0446C30.0233 17.3042 29.9225 17.5105 29.7209 17.6503C29.5193 17.79 29.2302 17.8632 28.8471 17.8632H27.3887V14.835H28.7665C29.116 14.835 29.3848 14.9015 29.5797 15.0413C29.7679 15.1811 29.8688 15.3741 29.8688 15.6137C29.8688 15.7734 29.8284 15.9065 29.7545 16.0263C29.6806 16.1395 29.5797 16.2326 29.452 16.2925C29.6268 16.3391 29.7679 16.4323 29.8688 16.5588ZM27.8323 15.1877V16.1594H28.7262C28.948 16.1594 29.1227 16.1195 29.2437 16.033C29.3647 15.9531 29.4252 15.8333 29.4252 15.6736C29.4252 15.5138 29.3647 15.394 29.2437 15.3142C29.1227 15.2343 28.948 15.1877 28.7262 15.1877H27.8323ZM29.3916 17.3907C29.5193 17.3108 29.5797 17.1844 29.5797 17.0113C29.5797 16.6719 29.3311 16.5055 28.8337 16.5055H27.8323V17.5105H28.8337C29.0824 17.5105 29.2706 17.4706 29.3916 17.3907Z" fill="white"/>
<path d="M34.2238 17.4839V17.8632H32.0059V14.835H34.1633V15.2143H32.4427V16.1461H33.9751V16.5122H32.4427V17.4905H34.2238V17.4839Z" fill="white"/>
<path d="M37.383 16.8183V17.8632H36.9528V16.805L35.7363 14.835H36.2068L37.1881 16.4323L38.1694 14.835H38.5995L37.383 16.8183Z" fill="white"/>
<path d="M40.7573 17.6971C40.5086 17.564 40.3137 17.3776 40.1726 17.1447C40.0315 16.9051 39.9575 16.6455 39.9575 16.3527C39.9575 16.0598 40.0247 15.8003 40.1726 15.5607C40.3137 15.3211 40.5086 15.1414 40.7573 15.0083C41.006 14.8751 41.2816 14.8086 41.5907 14.8086C41.8932 14.8086 42.1755 14.8751 42.4174 15.0083C42.6661 15.1414 42.861 15.3277 42.9954 15.5607C43.1366 15.7936 43.2038 16.0598 43.2038 16.3527C43.2038 16.6455 43.1366 16.9118 42.9954 17.1447C42.8543 17.3776 42.6594 17.564 42.4174 17.6971C42.1688 17.8302 41.8932 17.8968 41.5907 17.8968C41.2883 17.8968 41.006 17.8302 40.7573 17.6971ZM42.2024 17.3643C42.3838 17.2645 42.525 17.1247 42.6258 16.945C42.7266 16.7653 42.7804 16.5723 42.7804 16.3527C42.7804 16.1331 42.7266 15.9334 42.6258 15.7603C42.525 15.5806 42.3838 15.4409 42.2024 15.341C42.0209 15.2412 41.8193 15.188 41.5975 15.188C41.3757 15.188 41.1673 15.2412 40.9858 15.341C40.8044 15.4409 40.6632 15.5806 40.5557 15.7603C40.4549 15.94 40.4011 16.1331 40.4011 16.3527C40.4011 16.5723 40.4549 16.772 40.5557 16.945C40.6565 17.1247 40.8044 17.2645 40.9858 17.3643C41.1673 17.4642 41.3689 17.5174 41.5975 17.5174C41.8193 17.5108 42.0209 17.4642 42.2024 17.3643Z" fill="white"/>
<path d="M47.8213 14.835V17.8632H47.4651L45.6302 15.607V17.8632H45.1934V14.835H45.5496L47.3844 17.0912V14.835H47.8213Z" fill="white"/>
<path d="M50.0449 14.835H51.3354C51.658 14.835 51.947 14.9015 52.1957 15.028C52.4443 15.1544 52.6393 15.3341 52.7804 15.5604C52.9215 15.7867 52.9888 16.0529 52.9888 16.3524C52.9888 16.6519 52.9215 16.9115 52.7804 17.1444C52.6393 17.3707 52.4511 17.5504 52.1957 17.6769C51.947 17.8033 51.658 17.8699 51.3354 17.8699H50.0449V14.835ZM51.3085 17.4839C51.5572 17.4839 51.7722 17.4373 51.9604 17.3441C52.1486 17.2509 52.2898 17.1178 52.3973 16.9448C52.4981 16.7717 52.5519 16.5721 52.5519 16.3524C52.5519 16.1261 52.4981 15.9265 52.3973 15.7601C52.2965 15.587 52.1486 15.4539 51.9604 15.3608C51.7722 15.2676 51.5572 15.221 51.3085 15.221H50.4818V17.4972H51.3085V17.4839Z" fill="white"/>
<path d="M58.0568 15.2143H57.0083V14.835H59.5354V15.2143H58.4869V17.8632H58.0568V15.2143Z" fill="white"/>
<path d="M63.9512 14.835V17.8632H63.5143V16.5122H61.7601V17.8632H61.3232V14.835H61.7601V16.1395H63.5143V14.835H63.9512Z" fill="white"/>
<path d="M68.4006 17.4839V17.8632H66.1826V14.835H68.3401V15.2143H66.6195V16.1461H68.1519V16.5122H66.6195V17.4905H68.4006V17.4839Z" fill="white"/>
<path d="M72.8975 14.835H73.3343V17.8632H72.8975V14.835Z" fill="white"/>
<path d="M78.4014 17.8632L78.3946 15.6603L77.2924 17.4972H77.0907L75.9885 15.6736V17.8632H75.5718V14.835H75.928L77.205 16.9647L78.4619 14.835H78.8181L78.8248 17.8632H78.4014Z" fill="white"/>
<path d="M83.1737 15.1143C83.4022 15.3007 83.5164 15.5602 83.5164 15.8864C83.5164 16.2125 83.4022 16.4721 83.1737 16.6584C82.9451 16.8448 82.636 16.9379 82.2394 16.9379H81.4867V17.8564H81.0498V14.8281H82.2394C82.636 14.8348 82.9451 14.928 83.1737 15.1143ZM82.8578 16.3922C83.0056 16.2724 83.0728 16.106 83.0728 15.8864C83.0728 15.6667 82.9989 15.5003 82.8578 15.3805C82.7099 15.2607 82.5016 15.2075 82.226 15.2075H81.4867V16.5719H82.226C82.5016 16.5719 82.7099 16.512 82.8578 16.3922Z" fill="white"/>
<path d="M86.0498 17.6971C85.8011 17.564 85.6062 17.3776 85.4651 17.1447C85.3239 16.9051 85.25 16.6455 85.25 16.3527C85.25 16.0598 85.3172 15.8003 85.4651 15.5607C85.6062 15.3211 85.8011 15.1414 86.0498 15.0083C86.2985 14.8751 86.574 14.8086 86.8832 14.8086C87.1857 14.8086 87.4679 14.8751 87.7099 15.0083C87.9586 15.1414 88.1535 15.3277 88.2879 15.5607C88.429 15.7936 88.4963 16.0598 88.4963 16.3527C88.4963 16.6455 88.429 16.9118 88.2879 17.1447C88.1468 17.3776 87.9519 17.564 87.7099 17.6971C87.4612 17.8302 87.1857 17.8968 86.8832 17.8968C86.5808 17.8968 86.2985 17.8302 86.0498 17.6971ZM87.4948 17.3643C87.6763 17.2645 87.8174 17.1247 87.9182 16.945C88.0191 16.7653 88.0728 16.5723 88.0728 16.3527C88.0728 16.1331 88.0191 15.9334 87.9182 15.7603C87.8174 15.5806 87.6763 15.4409 87.4948 15.341C87.3134 15.2412 87.1117 15.188 86.8899 15.188C86.6681 15.188 86.4598 15.2412 86.2783 15.341C86.0968 15.4409 85.9557 15.5806 85.8482 15.7603C85.7474 15.94 85.6936 16.1331 85.6936 16.3527C85.6936 16.5723 85.7474 16.772 85.8482 16.945C85.949 17.1247 86.0968 17.2645 86.2783 17.3643C86.4598 17.4642 86.6614 17.5174 86.8899 17.5174C87.1117 17.5108 87.3134 17.4642 87.4948 17.3643Z" fill="white"/>
<path d="M90.7082 17.7899C90.4931 17.7167 90.3251 17.6302 90.2041 17.5171L90.3654 17.1776C90.4797 17.2841 90.6342 17.364 90.8157 17.4305C90.9972 17.4971 91.1854 17.5304 91.3736 17.5304C91.629 17.5304 91.8171 17.4904 91.9381 17.4039C92.0658 17.3174 92.1263 17.2042 92.1263 17.0645C92.1263 16.958 92.0927 16.8781 92.0255 16.8116C91.9583 16.745 91.8709 16.6984 91.7701 16.6651C91.6693 16.6319 91.5281 16.5919 91.3467 16.5453C91.1182 16.4921 90.93 16.4388 90.7888 16.3789C90.6477 16.3257 90.5267 16.2392 90.4259 16.126C90.3251 16.0129 90.278 15.8598 90.278 15.6668C90.278 15.5071 90.3184 15.3606 90.4057 15.2275C90.4931 15.1011 90.6208 14.9946 90.7956 14.9147C90.9703 14.8349 91.1854 14.7949 91.4475 14.7949C91.629 14.7949 91.8037 14.8149 91.9785 14.8615C92.1532 14.9081 92.3011 14.9746 92.4288 15.0611L92.2876 15.4072C92.1599 15.3274 92.0255 15.2675 91.8776 15.2209C91.7298 15.1809 91.5886 15.161 91.4475 15.161C91.1988 15.161 91.0173 15.2076 90.8897 15.2941C90.7687 15.3806 90.7015 15.5004 90.7015 15.6402C90.7015 15.7467 90.7351 15.8265 90.809 15.8931C90.8762 15.9596 90.9636 16.0062 91.0711 16.0462C91.1719 16.0794 91.3131 16.1194 91.4945 16.1593C91.7231 16.2126 91.9112 16.2658 92.0524 16.3257C92.1935 16.3789 92.3145 16.4655 92.4153 16.5786C92.5161 16.6918 92.5632 16.8448 92.5632 17.0312C92.5632 17.1909 92.5229 17.3374 92.4355 17.4638C92.3481 17.5969 92.2137 17.6968 92.0389 17.7766C91.8642 17.8498 91.6424 17.8898 91.387 17.8898C91.145 17.8964 90.9233 17.8631 90.7082 17.7899Z" fill="white"/>
<path d="M94.7341 17.7899C94.519 17.7167 94.351 17.6302 94.23 17.5171L94.3913 17.1776C94.5055 17.2841 94.6601 17.364 94.8416 17.4305C95.0231 17.4971 95.2113 17.5304 95.3994 17.5304C95.6549 17.5304 95.843 17.4904 95.964 17.4039C96.0917 17.3174 96.1522 17.2042 96.1522 17.0645C96.1522 16.958 96.1186 16.8781 96.0514 16.8116C95.9842 16.745 95.8968 16.6984 95.796 16.6651C95.6952 16.6319 95.554 16.5919 95.3726 16.5453C95.144 16.4921 94.9559 16.4388 94.8147 16.3789C94.6736 16.3257 94.5526 16.2392 94.4518 16.126C94.351 16.0129 94.3039 15.8598 94.3039 15.6668C94.3039 15.5071 94.3442 15.3606 94.4316 15.2275C94.519 15.1011 94.6467 14.9946 94.8214 14.9147C94.9962 14.8349 95.2113 14.7949 95.4734 14.7949C95.6548 14.7949 95.8296 14.8149 96.0043 14.8615C96.1791 14.9081 96.327 14.9746 96.4547 15.0611L96.3135 15.4072C96.1858 15.3274 96.0514 15.2675 95.9035 15.2209C95.7557 15.1809 95.6145 15.161 95.4734 15.161C95.2247 15.161 95.0432 15.2076 94.9155 15.2941C94.7945 15.3806 94.7273 15.5004 94.7273 15.6402C94.7273 15.7467 94.7609 15.8265 94.8349 15.8931C94.9021 15.9596 94.9895 16.0062 95.097 16.0462C95.1978 16.0794 95.339 16.1194 95.5204 16.1593C95.7489 16.2126 95.9371 16.2658 96.0783 16.3257C96.2194 16.3789 96.3404 16.4655 96.4412 16.5786C96.542 16.6918 96.5891 16.8448 96.5891 17.0312C96.5891 17.1909 96.5487 17.3374 96.4614 17.4638C96.374 17.5969 96.2396 17.6968 96.0648 17.7766C95.8901 17.8498 95.6683 17.8898 95.4129 17.8898C95.1709 17.8964 94.9491 17.8631 94.7341 17.7899Z" fill="white"/>
<path d="M98.5312 14.835H98.9681V17.8632H98.5312V14.835Z" fill="white"/>
<path d="M103.673 16.5588C103.774 16.6852 103.828 16.8516 103.828 17.0446C103.828 17.3042 103.727 17.5105 103.526 17.6503C103.324 17.79 103.035 17.8632 102.652 17.8632H101.193V14.835H102.564C102.914 14.835 103.183 14.9015 103.378 15.0413C103.566 15.1811 103.667 15.3741 103.667 15.6137C103.667 15.7734 103.626 15.9065 103.552 16.0263C103.479 16.1395 103.378 16.2326 103.25 16.2925C103.431 16.3391 103.566 16.4323 103.673 16.5588ZM101.63 15.1877V16.1594H102.524C102.746 16.1594 102.921 16.1195 103.042 16.033C103.163 15.9531 103.223 15.8333 103.223 15.6736C103.223 15.5138 103.163 15.394 103.042 15.3142C102.921 15.2343 102.746 15.1877 102.524 15.1877H101.63ZM103.196 17.3907C103.324 17.3108 103.384 17.1844 103.384 17.0113C103.384 16.6719 103.136 16.5055 102.638 16.5055H101.637V17.5105H102.638C102.88 17.5105 103.069 17.4706 103.196 17.3907Z" fill="white"/>
<path d="M105.811 14.835H106.247V17.4839H107.901V17.8632H105.811V14.835Z" fill="white"/>
<path d="M111.933 17.4839V17.8632H109.715V14.835H111.872V15.2143H110.152V16.1461H111.684V16.5122H110.152V17.4905H111.933V17.4839Z" fill="white"/>
</g>
<defs>
<clipPath id="clip0_702_912">
<rect width="112" height="20" fill="white"/>
</clipPath>
</defs>
</svg>
