<?xml version="1.0" encoding="utf-8"?>
<!-- Generator: Adobe Illustrator 27.4.0, SVG Export Plug-In . SVG Version: 6.00 Build 0)  -->
<svg version="1.1" id="Шар_1" xmlns="http://www.w3.org/2000/svg" xmlns:xlink="http://www.w3.org/1999/xlink" x="0px" y="0px"
	 viewBox="0 0 24 24" style="enable-background:new 0 0 24 24;" xml:space="preserve">
<g>
	<path d="M12,22.2L12,22.2c-0.3,0-0.5-0.1-0.7-0.3l-8.8-8.8c-1.2-1.2-1.9-2.9-1.9-4.6s0.7-3.4,1.9-4.6S5.3,2,7.1,2
		c1.7,0,3.4,0.7,4.6,1.9L12,4.3l0.4-0.4c0.6-0.6,1.3-1.1,2.1-1.4c1.6-0.7,3.4-0.7,5,0c0.8,0.3,1.5,0.8,2.1,1.4l0,0
		C22.2,4.5,22.6,5.2,23,6c0.3,0.8,0.5,1.6,0.5,2.5S23.3,10.2,23,11c-0.3,0.8-0.8,1.5-1.4,2.1l-8.8,8.8C12.5,22.1,12.3,22.2,12,22.2z
		 M7.1,4C5.8,4,4.7,4.5,3.9,5.3s-1.3,2-1.3,3.2s0.5,2.3,1.3,3.2l8.1,8.1l8.1-8.1c0.4-0.4,0.7-0.9,1-1.5c0.2-0.5,0.3-1.1,0.3-1.7
		s-0.1-1.2-0.3-1.7c-0.2-0.5-0.6-1-1-1.5c0,0,0,0,0,0c-0.4-0.4-0.9-0.7-1.5-1c-1.1-0.5-2.3-0.5-3.4,0c-0.5,0.2-1,0.6-1.5,1l-1.1,1.1
		c-0.4,0.4-1,0.4-1.4,0l-1.1-1.1C9.4,4.5,8.3,4,7.1,4z"/>
</g>
</svg>
