<?xml version="1.0" encoding="utf-8"?>
<!-- Generator: Adobe Illustrator 27.4.0, SVG Export Plug-In . SVG Version: 6.00 Build 0)  -->
<svg version="1.1" id="Шар_1" xmlns="http://www.w3.org/2000/svg" xmlns:xlink="http://www.w3.org/1999/xlink" x="0px" y="0px"
	 viewBox="0 0 20 20" style="enable-background:new 0 0 20 20;" xml:space="preserve">
<style type="text/css">
	.st0{clip-path:url(#SVGID_00000017475163974876091410000000151709360022641077_);}
	.st1{fill:#0F1010;}
</style>
<g>
	<defs>
		<rect id="SVGID_1_" width="20" height="20"/>
	</defs>
	<clipPath id="SVGID_00000027569569519712217120000006971313232596541872_">
		<use xlink:href="#SVGID_1_"  style="overflow:visible;"/>
	</clipPath>
	<g style="clip-path:url(#SVGID_00000027569569519712217120000006971313232596541872_);">
		<g>
			<path class="st1" d="M10,17.5c0,0-8.1-4.4-8.1-9.5c0-1.1,0.4-2.2,1.2-3s1.9-1.2,3-1.2c1.8,0,3.3,1,3.9,2.5
				c0.6-1.5,2.1-2.5,3.9-2.5c1.1,0,2.2,0.4,3,1.2c0.8,0.8,1.2,1.9,1.2,3C18.1,13.1,10,17.5,10,17.5z"/>
			<path class="st1" d="M10,18.5c-0.2,0-0.3,0-0.5-0.1C9.2,18.2,0.9,13.7,0.9,8c0-1.4,0.5-2.7,1.5-3.7c1-1,2.3-1.5,3.7-1.5
				C7.6,2.8,9,3.4,10,4.4c1-1,2.4-1.7,3.9-1.7c1.4,0,2.7,0.5,3.7,1.5c1,1,1.5,2.3,1.5,3.7c0,5.7-8.3,10.2-8.7,10.4
				C10.3,18.5,10.2,18.5,10,18.5z M6.1,4.8c-0.9,0-1.7,0.3-2.3,0.9C3.2,6.3,2.9,7.1,2.9,8c0,3.5,4.8,7,7.1,8.4
				c2.4-1.4,7.1-4.9,7.1-8.4c0-0.9-0.3-1.7-0.9-2.3s-1.4-0.9-2.3-0.9c-1.4,0-2.5,0.7-3,1.9C10.8,7,10.4,7.2,10,7.2S9.2,7,9.1,6.6
				C8.6,5.5,7.5,4.8,6.1,4.8z"/>
		</g>
	</g>
</g>
</svg>
