<?xml version="1.0" encoding="utf-8"?>
<!-- Generator: Adobe Illustrator 27.4.0, SVG Export Plug-In . SVG Version: 6.00 Build 0)  -->
<svg version="1.1" id="Шар_1" xmlns="http://www.w3.org/2000/svg" xmlns:xlink="http://www.w3.org/1999/xlink" x="0px" y="0px"
	 viewBox="0 0 28 28" style="enable-background:new 0 0 28 28;" xml:space="preserve">
<style type="text/css">
	.st0{clip-path:url(#SVGID_00000063605675708024218070000013805862881003353731_);}
	.st1{fill:#FFFFFF;}
</style>
<g>
	<defs>
		<rect id="SVGID_1_" width="28" height="28"/>
	</defs>
	<clipPath id="SVGID_00000176009328616521264380000011473559546949496241_">
		<use xlink:href="#SVGID_1_"  style="overflow:visible;"/>
	</clipPath>
	<g style="clip-path:url(#SVGID_00000176009328616521264380000011473559546949496241_);">
		<g>
			<path class="st1" d="M14,25.5C7.7,25.5,2.5,20.3,2.5,14C2.5,7.7,7.7,2.5,14,2.5c6.3,0,11.5,5.2,11.5,11.5
				C25.5,20.3,20.3,25.5,14,25.5z M14,4.5c-5.2,0-9.5,4.3-9.5,9.5s4.3,9.5,9.5,9.5s9.5-4.3,9.5-9.5S19.2,4.5,14,4.5z"/>
		</g>
		<g>
			<path class="st1" d="M14,25.5c-0.6,0-1-0.4-1-1V12.2c0-1,0.4-1.9,1.1-2.6c0.7-0.7,1.6-1.1,2.6-1.1h1.8c0.6,0,1,0.4,1,1
				s-0.4,1-1,1h-1.8c-0.4,0-0.8,0.2-1.1,0.5c-0.3,0.3-0.5,0.7-0.5,1.1v12.2C15,25.1,14.6,25.5,14,25.5z"/>
		</g>
		<g>
			<path class="st1" d="M17.5,16.8h-7c-0.6,0-1-0.4-1-1s0.4-1,1-1h7c0.6,0,1,0.4,1,1S18.1,16.8,17.5,16.8z"/>
		</g>
	</g>
</g>
</svg>
