<?xml version="1.0" encoding="utf-8"?>
<!-- Generator: Adobe Illustrator 27.4.0, SVG Export Plug-In . SVG Version: 6.00 Build 0)  -->
<svg version="1.1" id="Шар_1" xmlns="http://www.w3.org/2000/svg" xmlns:xlink="http://www.w3.org/1999/xlink" x="0px" y="0px"
	 viewBox="0 0 20 20" style="enable-background:new 0 0 20 20;" xml:space="preserve">
<style type="text/css">
	.st0{clip-path:url(#SVGID_00000101821876156643936040000018308241508670739895_);}
</style>
<g>
	<defs>
		<rect id="SVGID_1_" width="20" height="20"/>
	</defs>
	<clipPath id="SVGID_00000183240851377682419220000011328573702044417202_">
		<use xlink:href="#SVGID_1_"  style="overflow:visible;"/>
	</clipPath>
	<g style="clip-path:url(#SVGID_00000183240851377682419220000011328573702044417202_);">
		<g>
			<path d="M15,11.6H5c-0.6,0-1-0.4-1-1c0-0.6,0.4-1,1-1h10c0.6,0,1,0.4,1,1C16,11.2,15.6,11.6,15,11.6z"/>
		</g>
		<g>
			<path d="M18.1,7.9H1.9c-0.6,0-1-0.4-1-1s0.4-1,1-1h16.2c0.6,0,1,0.4,1,1S18.7,7.9,18.1,7.9z"/>
		</g>
		<g>
			<path d="M11.9,15.4H8.1c-0.6,0-1-0.4-1-1s0.4-1,1-1h3.8c0.6,0,1,0.4,1,1S12.4,15.4,11.9,15.4z"/>
		</g>
	</g>
</g>
</svg>
