<?xml version="1.0" encoding="utf-8"?>
<!-- Generator: Adobe Illustrator 27.4.0, SVG Export Plug-In . SVG Version: 6.00 Build 0)  -->
<svg version="1.1" id="Шар_1" xmlns="http://www.w3.org/2000/svg" xmlns:xlink="http://www.w3.org/1999/xlink" x="0px" y="0px"
	 viewBox="0 0 28 28" style="enable-background:new 0 0 28 28;" xml:space="preserve">
<style type="text/css">
	.st0{fill:#FFFFFF;}
</style>
<g>
	<path class="st0" d="M19.8,26.7H8.2c-3.8,0-6.8-3.1-6.8-6.8V8.2c0-3.8,3.1-6.8,6.8-6.8h11.7c3.8,0,6.8,3.1,6.8,6.8v11.7
		C26.7,23.6,23.6,26.7,19.8,26.7z M8.2,3.3c-2.7,0-4.8,2.2-4.8,4.8v11.7c0,2.7,2.2,4.8,4.8,4.8h11.7c2.7,0,4.8-2.2,4.8-4.8V8.2
		c0-2.7-2.2-4.8-4.8-4.8H8.2z"/>
</g>
<g>
	<path class="st0" d="M14.1,19.6c-0.3,0-0.6,0-0.9-0.1C12,19.4,10.9,18.8,10,18c-0.8-0.8-1.4-1.9-1.6-3.1c-0.2-1.2,0-2.4,0.5-3.4
		c0.5-1.1,1.4-1.9,2.5-2.5c1.1-0.6,2.3-0.8,3.4-0.6c1.2,0.2,2.3,0.7,3.2,1.6c0.9,0.9,1.4,2,1.6,3.2c0,0,0,0,0,0
		c0.2,1.2,0,2.4-0.6,3.4c-0.6,1.1-1.4,1.9-2.5,2.5C15.8,19.4,14.9,19.6,14.1,19.6z M14,10.3c-0.6,0-1.2,0.1-1.7,0.4
		c-0.7,0.4-1.2,0.9-1.6,1.6c-0.3,0.7-0.5,1.5-0.3,2.2c0.1,0.8,0.5,1.5,1,2s1.2,0.9,2,1s1.5,0,2.2-0.3c0.7-0.3,1.2-0.9,1.6-1.6
		c0.4-0.7,0.5-1.5,0.4-2.2c-0.1-0.8-0.5-1.5-1-2.1c-0.6-0.6-1.3-0.9-2.1-1C14.4,10.3,14.2,10.3,14,10.3z"/>
</g>
<g>
	<path class="st0" d="M20.4,8.6c-0.6,0-1-0.4-1-1s0.4-1,1-1h0c0.6,0,1,0.4,1,1S21,8.6,20.4,8.6z"/>
</g>
</svg>
