<svg width="35" height="32" viewBox="0 0 35 32" fill="none" xmlns="http://www.w3.org/2000/svg">
<path d="M30.0156 0V13.5903L17.9604 0.0164575H16.7902V17.7449H18.0482L18.0448 3.78706H18.0482L30.2233 17.7741H31.304V0H30.0156Z" fill="#0F1010"/>
<path d="M14.4868 0V7.53023C14.4868 9.79588 14.2537 11.6172 13.227 13.1057C13.0193 13.4129 12.7745 13.7055 12.4925 13.9834C11.1534 15.2963 9.21653 15.6968 7.25096 15.6968C5.59779 15.6968 3.83147 15.375 2.57851 14.4643C2.56162 14.4515 2.54473 14.4369 2.52785 14.4241C0.930398 13.2538 0.121541 11.5257 0.0472412 8.68408V0H2.52616L2.52109 8.11904C2.52109 8.24156 2.52447 8.36225 2.52616 8.48111C2.64605 12.1603 4.59474 14.1718 7.90446 14.1718C11.7934 14.1718 13.1291 11.9939 13.227 7.87949C13.2304 7.71309 13.227 0.00182861 13.227 0.00182861H14.4868V0Z" fill="#0F1010"/>
<path d="M14.5645 17.0408H0V17.7686H14.5645V17.0408Z" fill="#0F1010"/>
<path d="M32.8788 20.9655H0V22.069H32.8788V20.9655Z" fill="#0F1010"/>
<path d="M2.52456 31.6574C2.02216 31.6574 1.54174 31.5778 1.0833 31.4185C0.62486 31.2526 0.26376 31.0402 0 30.7813L0.34854 30.0048C0.59974 30.2371 0.920021 30.4296 1.30938 30.5822C1.69874 30.7349 2.1038 30.8112 2.52456 30.8112C2.90764 30.8112 3.2185 30.7647 3.45714 30.6718C3.69578 30.5789 3.87162 30.4528 3.98466 30.2935C4.0977 30.1276 4.15422 29.9418 4.15422 29.736C4.15422 29.4971 4.07886 29.3046 3.92814 29.1586C3.7837 29.0126 3.59216 28.8964 3.35352 28.8101C3.12116 28.7172 2.86368 28.6376 2.58108 28.5712C2.29848 28.5048 2.01274 28.4285 1.72386 28.3422C1.44126 28.2493 1.18064 28.1332 0.942001 27.9938C0.70964 27.8544 0.52124 27.6686 0.3768 27.4363C0.23236 27.1973 0.16014 26.892 0.16014 26.5204C0.16014 26.162 0.24806 25.8334 0.4239 25.5348C0.60602 25.2295 0.882341 24.9872 1.25286 24.808C1.62966 24.6222 2.10694 24.5293 2.6847 24.5293C3.06778 24.5293 3.44772 24.5823 3.82452 24.6885C4.20132 24.7947 4.52788 24.9474 4.8042 25.1465L4.49334 25.9429C4.21074 25.7438 3.91244 25.6011 3.59844 25.5149C3.28444 25.4219 2.97986 25.3755 2.6847 25.3755C2.31418 25.3755 2.0096 25.4253 1.77096 25.5248C1.53232 25.6244 1.35648 25.7571 1.24344 25.923C1.13668 26.089 1.0833 26.2748 1.0833 26.4805C1.0833 26.7261 1.15552 26.9219 1.29996 27.0679C1.45068 27.2139 1.64222 27.3301 1.87458 27.4164C2.11322 27.5026 2.37384 27.5823 2.65644 27.6553C2.93904 27.7217 3.22164 27.798 3.50424 27.8843C3.79312 27.9706 4.05374 28.0834 4.2861 28.2228C4.52474 28.3621 4.71628 28.548 4.86072 28.7803C5.00516 29.0126 5.07738 29.3112 5.07738 29.6763C5.07738 30.028 4.98632 30.3566 4.8042 30.6619C4.62208 30.9605 4.33948 31.2028 3.9564 31.3886C3.5796 31.5678 3.10232 31.6574 2.52456 31.6574Z" fill="#0F1010"/>
<path d="M8.04778 31.5778V25.475H5.78698V24.6089H11.2412V25.475H8.98036V31.5778H8.04778Z" fill="#0F1010"/>
<path d="M15.5287 31.6574C15.0263 31.6574 14.5584 31.5678 14.1251 31.3886C13.698 31.2094 13.3275 30.9605 13.0135 30.642C12.6995 30.3167 12.4546 29.9384 12.2788 29.507C12.1029 29.0756 12.015 28.6044 12.015 28.0933C12.015 27.5823 12.1029 27.1111 12.2788 26.6797C12.4546 26.2482 12.6995 25.8733 13.0135 25.5547C13.3275 25.2295 13.698 24.9773 14.1251 24.7981C14.5521 24.6189 15.02 24.5293 15.5287 24.5293C16.0311 24.5293 16.4926 24.6189 16.9134 24.7981C17.3404 24.9706 17.711 25.2195 18.025 25.5447C18.3452 25.8633 18.5902 26.2383 18.7597 26.6697C18.9356 27.1011 19.0235 27.5757 19.0235 28.0933C19.0235 28.611 18.9356 29.0856 18.7597 29.517C18.5902 29.9484 18.3452 30.3267 18.025 30.6519C17.711 30.9705 17.3404 31.2194 16.9134 31.3986C16.4926 31.5711 16.0311 31.6574 15.5287 31.6574ZM15.5287 30.7714C15.8929 30.7714 16.2289 30.705 16.5366 30.5723C16.8506 30.4395 17.1206 30.2537 17.3467 30.0148C17.5791 29.7692 17.7581 29.4838 17.8837 29.1586C18.0155 28.8334 18.0815 28.4783 18.0815 28.0933C18.0815 27.7084 18.0155 27.3533 17.8837 27.0281C17.7581 26.7029 17.5791 26.4208 17.3467 26.1819C17.1206 25.9363 16.8506 25.7471 16.5366 25.6144C16.2289 25.4817 15.8929 25.4153 15.5287 25.4153C15.1581 25.4153 14.8159 25.4817 14.5019 25.6144C14.1942 25.7471 13.9241 25.9363 13.6918 26.1819C13.4594 26.4208 13.2773 26.7029 13.1454 27.0281C13.0198 27.3533 12.957 27.7084 12.957 28.0933C12.957 28.4783 13.0198 28.8334 13.1454 29.1586C13.2773 29.4838 13.4594 29.7692 13.6918 30.0148C13.9241 30.2537 14.1942 30.4395 14.5019 30.5723C14.8159 30.705 15.1581 30.7714 15.5287 30.7714Z" fill="#0F1010"/>
<path d="M20.8401 31.5778V24.6089H23.4117C23.9895 24.6089 24.4825 24.7051 24.8907 24.8976C25.2989 25.0901 25.6129 25.3688 25.8327 25.7339C26.0525 26.0989 26.1624 26.5336 26.1624 27.0381C26.1624 27.5425 26.0525 27.9772 25.8327 28.3422C25.6129 28.7006 25.2989 28.9761 24.8907 29.1685C24.4825 29.361 23.9895 29.4573 23.4117 29.4573H21.3582L21.7821 28.9993V31.5778H20.8401ZM25.2486 31.5778L23.5719 29.0491H24.5798L26.2754 31.5778H25.2486ZM21.7821 29.0989L21.3582 28.611H23.3835C23.9864 28.611 24.4417 28.475 24.7494 28.2029C25.0634 27.9241 25.2204 27.5358 25.2204 27.0381C25.2204 26.5403 25.0634 26.1553 24.7494 25.8832C24.4417 25.6111 23.9864 25.475 23.3835 25.475H21.3582L21.7821 24.9773V29.0989Z" fill="#0F1010"/>
<path d="M28.9183 27.6155H32.3095V28.4617H28.9183V27.6155ZM29.0031 30.7117H32.8465V31.5778H28.0611V24.6089H32.7146V25.475H29.0031V30.7117Z" fill="#0F1010"/>
</svg>
