<svg width="186" height="45" viewBox="0 0 186 45" fill="none" xmlns="http://www.w3.org/2000/svg">
<g clip-path="url(#clip0_2001_1657)">
<path d="M44.6087 0V19.1113L26.6923 0.0231434H24.9531V24.9537H26.8228L26.8178 5.32555H26.8228L44.9174 24.9949H46.5235V0H44.6087Z" fill="#0F1010"/>
<path d="M165.079 0.00257149V19.1113L147.16 0H145.421V24.6554H147.291L147.286 5.32555H147.291L165.385 24.9949H166.991V0.00257149H165.076H165.079Z" fill="#0F1010"/>
<path d="M113.026 6.49042C113.049 4.22751 111.914 2.33489 110.213 1.35258C110.193 1.3423 110.17 1.32687 110.15 1.31401C108.68 0.452563 106.815 0.0951263 104.132 0.0436966C103.891 0.0411251 96.4023 0.0359821 96.4023 0.0359821V24.9563H100.044V13.0863H101.525C103.68 13.0863 112.958 13.0863 113.026 6.49042ZM102.074 11.5074H100.044V1.35258H102.792C106.047 1.35258 109.658 2.41975 109.633 6.83499C109.613 10.4891 104.27 11.5048 102.072 11.5048L102.074 11.5074Z" fill="#0F1010"/>
<path d="M138.133 0V24.9923H141.807V0H138.133Z" fill="#0F1010"/>
<path d="M66.932 1.51204C64.7536 0.426868 61.9102 0.0462875 58.103 0.0462875H50.1475V24.9923H56.2409C59.9025 24.9923 63.0144 24.5834 65.6621 23.5934C66.7739 23.1768 67.8053 22.6574 68.7565 22.0222C72.0115 19.8416 74.0042 16.4935 73.959 12.0937C73.9088 7.22074 70.4882 3.28122 66.932 1.51204ZM58.7079 23.5934C58.5949 23.6011 58.4745 23.6011 58.3565 23.6011C58.2084 23.6011 58.0654 23.6011 57.9249 23.5934H53.8316V1.36546C53.8316 1.36546 58.0729 1.36289 58.2511 1.36546C60.8611 1.41432 63.1324 1.84376 64.9544 2.86721C68.2947 4.67239 69.8607 8.29819 69.8607 12.3971C69.8607 18.8773 66.0887 23.4622 58.7104 23.596L58.7079 23.5934Z" fill="#0F1010"/>
<path d="M92.779 1.3526V0.0462875H77.4375V24.9923H81.1116H92.779V23.6834H81.1116V13.1094H96.7969V11.546L81.1116 11.5665V1.3526H92.779Z" fill="#0F1010"/>
<path d="M174.332 1.34232V11.5665L184.23 11.546V13.1094H174.332V23.6834H185.999V24.9923H170.655V0.0334301H185.999V1.34232H174.332Z" fill="#0F1010"/>
<path d="M122.948 23.4854V0.0462868V0.0385723H119.256V24.9923H134.69V23.4854H122.948Z" fill="#0F1010"/>
<path d="M100.044 13.0863C100.044 13.0863 110.928 13.8192 112.148 24.9769C113.365 24.9769 115.624 25 115.624 25C115.624 25 113.747 12.1091 100.044 11.5074C99.2309 11.6437 100.044 13.0863 100.044 13.0863Z" fill="#0F1010"/>
<path d="M21.5303 0V10.5894C21.5303 13.7755 21.184 16.3367 19.6581 18.4299C19.3494 18.8619 18.9855 19.2733 18.5664 19.6642C16.5763 21.5105 13.6977 22.0737 10.7765 22.0737C8.31952 22.0737 5.69443 21.6211 3.83227 20.3405C3.80718 20.3225 3.78208 20.3019 3.75698 20.2839C1.38286 18.6381 0.180737 16.2081 0.0703125 12.212V0H3.75447L3.74695 11.4174C3.74695 11.5897 3.75197 11.7594 3.75447 11.9266C3.93266 17.1004 6.82879 19.929 11.7477 19.929C17.5274 19.929 19.5126 16.8664 19.6581 11.0805C19.6631 10.8465 19.6581 0.00257149 19.6581 0.00257149H21.5303V0Z" fill="#0F1010"/>
<path d="M21.6457 23.9637H0V24.9871H21.6457V23.9637Z" fill="#0F1010"/>
</g>
<path d="M94 38H0V39H94V38Z" fill="#0F1010"/>
<path d="M186 38H155V39H186V38Z" fill="#0F1010"/>
<path d="M105.326 43.112C104.58 43.112 103.866 43 103.184 42.776C102.503 42.5427 101.966 42.244 101.574 41.88L102.092 40.788C102.466 41.1147 102.942 41.3853 103.52 41.6C104.099 41.8147 104.701 41.922 105.326 41.922C105.896 41.922 106.358 41.8567 106.712 41.726C107.067 41.5953 107.328 41.418 107.496 41.194C107.664 40.9607 107.748 40.6993 107.748 40.41C107.748 40.074 107.636 39.8033 107.412 39.598C107.198 39.3927 106.913 39.2293 106.558 39.108C106.213 38.9773 105.83 38.8653 105.41 38.772C104.99 38.6787 104.566 38.5713 104.136 38.45C103.716 38.3193 103.329 38.156 102.974 37.96C102.629 37.764 102.349 37.5027 102.134 37.176C101.92 36.84 101.812 36.4107 101.812 35.888C101.812 35.384 101.943 34.922 102.204 34.502C102.475 34.0727 102.886 33.732 103.436 33.48C103.996 33.2187 104.706 33.088 105.564 33.088C106.134 33.088 106.698 33.1627 107.258 33.312C107.818 33.4613 108.304 33.676 108.714 33.956L108.252 35.076C107.832 34.796 107.389 34.5953 106.922 34.474C106.456 34.3433 106.003 34.278 105.564 34.278C105.014 34.278 104.561 34.348 104.206 34.488C103.852 34.628 103.59 34.8147 103.422 35.048C103.264 35.2813 103.184 35.5427 103.184 35.832C103.184 36.1773 103.292 36.4527 103.506 36.658C103.73 36.8633 104.015 37.0267 104.36 37.148C104.715 37.2693 105.102 37.3813 105.522 37.484C105.942 37.5773 106.362 37.6847 106.782 37.806C107.212 37.9273 107.599 38.086 107.944 38.282C108.299 38.478 108.584 38.7393 108.798 39.066C109.013 39.3927 109.12 39.8127 109.12 40.326C109.12 40.8207 108.985 41.2827 108.714 41.712C108.444 42.132 108.024 42.4727 107.454 42.734C106.894 42.986 106.185 43.112 105.326 43.112Z" fill="#0F1010"/>
<path d="M113.535 43V34.418H110.175V33.2H118.281V34.418H114.921V43H113.535Z" fill="#0F1010"/>
<path d="M124.653 43.112C123.906 43.112 123.211 42.986 122.567 42.734C121.932 42.482 121.382 42.132 120.915 41.684C120.448 41.2267 120.084 40.6947 119.823 40.088C119.562 39.4813 119.431 38.8187 119.431 38.1C119.431 37.3813 119.562 36.7187 119.823 36.112C120.084 35.5053 120.448 34.978 120.915 34.53C121.382 34.0727 121.932 33.718 122.567 33.466C123.202 33.214 123.897 33.088 124.653 33.088C125.4 33.088 126.086 33.214 126.711 33.466C127.346 33.7087 127.896 34.0587 128.363 34.516C128.839 34.964 129.203 35.4913 129.455 36.098C129.716 36.7047 129.847 37.372 129.847 38.1C129.847 38.828 129.716 39.4953 129.455 40.102C129.203 40.7087 128.839 41.2407 128.363 41.698C127.896 42.146 127.346 42.496 126.711 42.748C126.086 42.9907 125.4 43.112 124.653 43.112ZM124.653 41.866C125.194 41.866 125.694 41.7727 126.151 41.586C126.618 41.3993 127.019 41.138 127.355 40.802C127.7 40.4567 127.966 40.0553 128.153 39.598C128.349 39.1407 128.447 38.6413 128.447 38.1C128.447 37.5587 128.349 37.0593 128.153 36.602C127.966 36.1447 127.7 35.748 127.355 35.412C127.019 35.0667 126.618 34.8007 126.151 34.614C125.694 34.4273 125.194 34.334 124.653 34.334C124.102 34.334 123.594 34.4273 123.127 34.614C122.67 34.8007 122.268 35.0667 121.923 35.412C121.578 35.748 121.307 36.1447 121.111 36.602C120.924 37.0593 120.831 37.5587 120.831 38.1C120.831 38.6413 120.924 39.1407 121.111 39.598C121.307 40.0553 121.578 40.4567 121.923 40.802C122.268 41.138 122.67 41.3993 123.127 41.586C123.594 41.7727 124.102 41.866 124.653 41.866Z" fill="#0F1010"/>
<path d="M132.547 43V33.2H136.369C137.227 33.2 137.96 33.3353 138.567 33.606C139.173 33.8767 139.64 34.2687 139.967 34.782C140.293 35.2953 140.457 35.9067 140.457 36.616C140.457 37.3253 140.293 37.9367 139.967 38.45C139.64 38.954 139.173 39.3413 138.567 39.612C137.96 39.8827 137.227 40.018 136.369 40.018H133.317L133.947 39.374V43H132.547ZM139.099 43L136.607 39.444H138.105L140.625 43H139.099ZM133.947 39.514L133.317 38.828H136.327C137.223 38.828 137.899 38.6367 138.357 38.254C138.823 37.862 139.057 37.316 139.057 36.616C139.057 35.916 138.823 35.3747 138.357 34.992C137.899 34.6093 137.223 34.418 136.327 34.418H133.317L133.947 33.718V39.514Z" fill="#0F1010"/>
<path d="M144.553 37.428H149.593V38.618H144.553V37.428ZM144.679 41.782H150.391V43H143.279V33.2H150.195V34.418H144.679V41.782Z" fill="#0F1010"/>
<defs>
<clipPath id="clip0_2001_1657">
<rect width="186" height="25" fill="white"/>
</clipPath>
</defs>
</svg>
