<svg width="186" height="45" viewBox="0 0 186 45" fill="none" xmlns="http://www.w3.org/2000/svg">
<g clip-path="url(#clip0_702_948)">
<path d="M44.6087 0V19.1113L26.6923 0.0231434H24.9531V24.9537H26.8228L26.8178 5.32555H26.8228L44.9174 24.9949H46.5235V0H44.6087Z" fill="white"/>
<path d="M165.079 0.00257149V19.1113L147.16 0H145.421V24.6554H147.291L147.286 5.32555H147.291L165.385 24.9949H166.991V0.00257149H165.076H165.079Z" fill="white"/>
<path d="M113.026 6.49057C113.049 4.22766 111.914 2.33504 110.213 1.35273C110.193 1.34245 110.17 1.32702 110.15 1.31416C108.68 0.452714 106.815 0.095277 104.132 0.0438473C103.891 0.0412758 96.4023 0.0361328 96.4023 0.0361328V24.9564H100.044V13.0864H101.525C103.68 13.0864 112.958 13.0864 113.026 6.49057ZM102.074 11.5075H100.044V1.35273H102.792C106.047 1.35273 109.658 2.4199 109.633 6.83515C109.613 10.4892 104.27 11.505 102.072 11.505L102.074 11.5075Z" fill="white"/>
<path d="M138.133 0V24.9923H141.807V0H138.133Z" fill="white"/>
<path d="M66.932 1.51165C64.7536 0.426479 61.9102 0.0458984 58.103 0.0458984H50.1475V24.9919H56.2409C59.9025 24.9919 63.0144 24.583 65.6621 23.593C66.7739 23.1764 67.8053 22.657 68.7565 22.0218C72.0115 19.8412 74.0042 16.4931 73.959 12.0933C73.9088 7.22035 70.4882 3.28083 66.932 1.51165ZM58.7079 23.593C58.5949 23.6007 58.4745 23.6007 58.3565 23.6007C58.2084 23.6007 58.0654 23.6007 57.9249 23.593H53.8316V1.36507C53.8316 1.36507 58.0729 1.3625 58.2511 1.36507C60.8611 1.41393 63.1324 1.84337 64.9544 2.86682C68.2947 4.672 69.8607 8.2978 69.8607 12.3968C69.8607 18.8769 66.0887 23.4619 58.7104 23.5956L58.7079 23.593Z" fill="white"/>
<path d="M92.779 1.35221V0.0458984H77.4375V24.9919H81.1116H92.779V23.683H81.1116V13.1091H96.7969V11.5456L81.1116 11.5662V1.35221H92.779Z" fill="white"/>
<path d="M174.332 1.34209V11.5663L184.23 11.5458V13.1092H174.332V23.6832H185.999V24.9921H170.655V0.0332031H185.999V1.34209H174.332Z" fill="white"/>
<path d="M122.948 23.4849V0.0458004V0.0380859H119.256V24.9918H134.69V23.4849H122.948Z" fill="white"/>
<path d="M100.044 13.0867C100.044 13.0867 110.928 13.8196 112.148 24.9773C113.365 24.9773 115.624 25.0004 115.624 25.0004C115.624 25.0004 113.747 12.1095 100.044 11.5078C99.2309 11.6441 100.044 13.0867 100.044 13.0867Z" fill="white"/>
<path d="M21.5303 0V10.5894C21.5303 13.7755 21.184 16.3367 19.6581 18.4299C19.3494 18.8619 18.9855 19.2733 18.5664 19.6642C16.5763 21.5105 13.6977 22.0737 10.7765 22.0737C8.31952 22.0737 5.69443 21.6211 3.83227 20.3405C3.80718 20.3225 3.78208 20.3019 3.75698 20.2839C1.38286 18.6381 0.180737 16.2081 0.0703125 12.212V0H3.75447L3.74695 11.4174C3.74695 11.5897 3.75197 11.7594 3.75447 11.9266C3.93266 17.1004 6.82879 19.929 11.7477 19.929C17.5274 19.929 19.5126 16.8664 19.6581 11.0805C19.6631 10.8465 19.6581 0.00257149 19.6581 0.00257149H21.5303V0Z" fill="white"/>
<path d="M21.6457 23.9639H0V24.9873H21.6457V23.9639Z" fill="white"/>
</g>
<path d="M94 38H0V39H94V38Z" fill="white"/>
<path d="M186 38H155V39H186V38Z" fill="white"/>
<path d="M105.326 43.1119C104.58 43.1119 103.866 42.9999 103.184 42.7759C102.503 42.5426 101.966 42.2439 101.574 41.8799L102.092 40.7879C102.466 41.1146 102.942 41.3852 103.52 41.5999C104.099 41.8146 104.701 41.9219 105.326 41.9219C105.896 41.9219 106.358 41.8566 106.712 41.7259C107.067 41.5952 107.328 41.4179 107.496 41.1939C107.664 40.9606 107.748 40.6992 107.748 40.4099C107.748 40.0739 107.636 39.8032 107.412 39.5979C107.198 39.3926 106.913 39.2292 106.558 39.1079C106.213 38.9772 105.83 38.8652 105.41 38.7719C104.99 38.6786 104.566 38.5712 104.136 38.4499C103.716 38.3192 103.329 38.1559 102.974 37.9599C102.629 37.7639 102.349 37.5026 102.134 37.1759C101.92 36.8399 101.812 36.4106 101.812 35.8879C101.812 35.3839 101.943 34.9219 102.204 34.5019C102.475 34.0726 102.886 33.7319 103.436 33.4799C103.996 33.2186 104.706 33.0879 105.564 33.0879C106.134 33.0879 106.698 33.1626 107.258 33.3119C107.818 33.4612 108.304 33.6759 108.714 33.9559L108.252 35.0759C107.832 34.7959 107.389 34.5952 106.922 34.4739C106.456 34.3432 106.003 34.2779 105.564 34.2779C105.014 34.2779 104.561 34.3479 104.206 34.4879C103.852 34.6279 103.59 34.8146 103.422 35.0479C103.264 35.2812 103.184 35.5426 103.184 35.8319C103.184 36.1772 103.292 36.4526 103.506 36.6579C103.73 36.8632 104.015 37.0266 104.36 37.1479C104.715 37.2692 105.102 37.3812 105.522 37.4839C105.942 37.5772 106.362 37.6846 106.782 37.8059C107.212 37.9272 107.599 38.0859 107.944 38.2819C108.299 38.4779 108.584 38.7392 108.798 39.0659C109.013 39.3926 109.12 39.8126 109.12 40.3259C109.12 40.8206 108.985 41.2826 108.714 41.7119C108.444 42.1319 108.024 42.4726 107.454 42.7339C106.894 42.9859 106.185 43.1119 105.326 43.1119Z" fill="white"/>
<path d="M113.535 42.9999V34.4179H110.175V33.1999H118.281V34.4179H114.921V42.9999H113.535Z" fill="white"/>
<path d="M124.653 43.1119C123.906 43.1119 123.211 42.9859 122.567 42.7339C121.932 42.4819 121.382 42.1319 120.915 41.6839C120.448 41.2266 120.084 40.6946 119.823 40.0879C119.562 39.4812 119.431 38.8186 119.431 38.0999C119.431 37.3812 119.562 36.7186 119.823 36.1119C120.084 35.5052 120.448 34.9779 120.915 34.5299C121.382 34.0726 121.932 33.7179 122.567 33.4659C123.202 33.2139 123.897 33.0879 124.653 33.0879C125.4 33.0879 126.086 33.2139 126.711 33.4659C127.346 33.7086 127.896 34.0586 128.363 34.5159C128.839 34.9639 129.203 35.4912 129.455 36.0979C129.716 36.7046 129.847 37.3719 129.847 38.0999C129.847 38.8279 129.716 39.4952 129.455 40.1019C129.203 40.7086 128.839 41.2406 128.363 41.6979C127.896 42.1459 127.346 42.4959 126.711 42.7479C126.086 42.9906 125.4 43.1119 124.653 43.1119ZM124.653 41.8659C125.194 41.8659 125.694 41.7726 126.151 41.5859C126.618 41.3992 127.019 41.1379 127.355 40.8019C127.7 40.4566 127.966 40.0552 128.153 39.5979C128.349 39.1406 128.447 38.6412 128.447 38.0999C128.447 37.5586 128.349 37.0592 128.153 36.6019C127.966 36.1446 127.7 35.7479 127.355 35.4119C127.019 35.0666 126.618 34.8006 126.151 34.6139C125.694 34.4272 125.194 34.3339 124.653 34.3339C124.102 34.3339 123.594 34.4272 123.127 34.6139C122.67 34.8006 122.268 35.0666 121.923 35.4119C121.578 35.7479 121.307 36.1446 121.111 36.6019C120.924 37.0592 120.831 37.5586 120.831 38.0999C120.831 38.6412 120.924 39.1406 121.111 39.5979C121.307 40.0552 121.578 40.4566 121.923 40.8019C122.268 41.1379 122.67 41.3992 123.127 41.5859C123.594 41.7726 124.102 41.8659 124.653 41.8659Z" fill="white"/>
<path d="M132.547 42.9999V33.1999H136.369C137.227 33.1999 137.96 33.3352 138.567 33.6059C139.173 33.8766 139.64 34.2686 139.967 34.7819C140.293 35.2952 140.457 35.9066 140.457 36.6159C140.457 37.3252 140.293 37.9366 139.967 38.4499C139.64 38.9539 139.173 39.3412 138.567 39.6119C137.96 39.8826 137.227 40.0179 136.369 40.0179H133.317L133.947 39.3739V42.9999H132.547ZM139.099 42.9999L136.607 39.4439H138.105L140.625 42.9999H139.099ZM133.947 39.5139L133.317 38.8279H136.327C137.223 38.8279 137.899 38.6366 138.357 38.2539C138.823 37.8619 139.057 37.3159 139.057 36.6159C139.057 35.9159 138.823 35.3746 138.357 34.9919C137.899 34.6092 137.223 34.4179 136.327 34.4179H133.317L133.947 33.7179V39.5139Z" fill="white"/>
<path d="M144.553 37.4279H149.593V38.6179H144.553V37.4279ZM144.679 41.7819H150.391V42.9999H143.279V33.1999H150.195V34.4179H144.679V41.7819Z" fill="white"/>
<defs>
<clipPath id="clip0_702_948">
<rect width="186" height="25" fill="white"/>
</clipPath>
</defs>
</svg>
