<?xml version="1.0" encoding="utf-8"?>
<!-- Generator: Adobe Illustrator 27.4.0, SVG Export Plug-In . SVG Version: 6.00 Build 0)  -->
<svg version="1.1" id="Шар_1" xmlns="http://www.w3.org/2000/svg" xmlns:xlink="http://www.w3.org/1999/xlink" x="0px" y="0px"
	 viewBox="0 0 24 24" style="enable-background:new 0 0 24 24;" xml:space="preserve">
<style type="text/css">
	.st0{clip-path:url(#SVGID_00000160890798641913702530000010724940916132713114_);}
	.st1{fill:#0F1010;}
</style>
<g>
	<defs>
		<rect id="SVGID_1_" width="24" height="24"/>
	</defs>
	<clipPath id="SVGID_00000096016976433000016470000003234940951406348716_">
		<use xlink:href="#SVGID_1_"  style="overflow:visible;"/>
	</clipPath>
	<g style="clip-path:url(#SVGID_00000096016976433000016470000003234940951406348716_);">
		<g>
			<path class="st1" d="M9.8,22c-3.5,0-6.2-4.4-6.2-10S6.2,2,9.8,2S16,6.4,16,12S13.3,22,9.8,22z M9.8,4c-2.3,0-4.2,3.7-4.2,8
				c0,4.3,1.9,8,4.2,8s4.2-3.7,4.2-8C14,7.7,12.1,4,9.8,4z"/>
		</g>
		<g>
			<path class="st1" d="M14.2,22H9.8c-0.6,0-1-0.4-1-1s0.4-1,1-1h4.5c2.3,0,4.2-3.7,4.2-8c0-4.3-1.9-8-4.2-8H9.8c-0.6,0-1-0.4-1-1
				s0.4-1,1-1h4.5c3.5,0,6.2,4.4,6.2,10S17.8,22,14.2,22z"/>
		</g>
		<g>
			<path class="st1" d="M18.2,7h-4.5c-0.6,0-1-0.4-1-1s0.4-1,1-1h4.5c0.6,0,1,0.4,1,1S18.7,7,18.2,7z"/>
		</g>
		<g>
			<path class="st1" d="M19.5,13H15c-0.6,0-1-0.4-1-1s0.4-1,1-1h4.5c0.6,0,1,0.4,1,1S20.1,13,19.5,13z"/>
		</g>
		<g>
			<path class="st1" d="M18.2,19h-4.5c-0.6,0-1-0.4-1-1s0.4-1,1-1h4.5c0.6,0,1,0.4,1,1S18.7,19,18.2,19z"/>
		</g>
	</g>
</g>
</svg>
