<?xml version="1.0" encoding="utf-8"?>
<!-- Generator: Adobe Illustrator 27.4.0, SVG Export Plug-In . SVG Version: 6.00 Build 0)  -->
<svg version="1.1" id="Шар_1" xmlns="http://www.w3.org/2000/svg" xmlns:xlink="http://www.w3.org/1999/xlink" x="0px" y="0px"
	 viewBox="0 0 24 24" style="enable-background:new 0 0 24 24;" xml:space="preserve">
<style type="text/css">
	.st0{clip-path:url(#SVGID_00000016768886937787758860000008650756958438578100_);}
	.st1{fill:#0F1010;}
</style>
<g>
	<defs>
		<rect id="SVGID_1_" width="24" height="24"/>
	</defs>
	<clipPath id="SVGID_00000098201939038520929090000003725784594962938272_">
		<use xlink:href="#SVGID_1_"  style="overflow:visible;"/>
	</clipPath>
	<g style="clip-path:url(#SVGID_00000098201939038520929090000003725784594962938272_);">
		<g>
			<path class="st1" d="M12,18c0.6,0,1.1-0.5,1.1-1.1s-0.5-1.1-1.1-1.1s-1.1,0.5-1.1,1.1S11.4,18,12,18z"/>
		</g>
		<g>
			<path class="st1" d="M12,14.5c-0.6,0-1-0.4-1-1v-0.8c0-0.6,0.4-1,1-1c1.1,0,2-0.7,2-1.6s-0.9-1.6-2-1.6c-1.1,0-2,0.7-2,1.6v0.4
				c0,0.6-0.4,1-1,1s-1-0.4-1-1v-0.4c0-2,1.8-3.6,4-3.6c2.2,0,4,1.6,4,3.6c0,1.7-1.3,3.1-3,3.5C12.9,14.1,12.5,14.5,12,14.5z"/>
		</g>
		<g>
			<path class="st1" d="M12,22C6.5,22,2,17.5,2,12C2,6.5,6.5,2,12,2c5.5,0,10,4.5,10,10C22,17.5,17.5,22,12,22z M12,4
				c-4.4,0-8,3.6-8,8s3.6,8,8,8s8-3.6,8-8S16.4,4,12,4z"/>
		</g>
	</g>
</g>
</svg>
