<?xml version="1.0" encoding="utf-8"?>
<!-- Generator: Adobe Illustrator 27.4.0, SVG Export Plug-In . SVG Version: 6.00 Build 0)  -->
<svg version="1.1" id="Шар_1" xmlns="http://www.w3.org/2000/svg" xmlns:xlink="http://www.w3.org/1999/xlink" x="0px" y="0px"
	 viewBox="0 0 24 24" style="enable-background:new 0 0 24 24;" xml:space="preserve">
<style type="text/css">
	.st0{clip-path:url(#SVGID_00000001658769259800204830000012723959096607657627_);}
</style>
<g>
	<defs>
		<rect id="SVGID_1_" width="24" height="24"/>
	</defs>
	<clipPath id="SVGID_00000176039694059910166940000016220521169683679623_">
		<use xlink:href="#SVGID_1_"  style="overflow:visible;"/>
	</clipPath>
	<g style="clip-path:url(#SVGID_00000176039694059910166940000016220521169683679623_);">
		<g>
			<path d="M12,16c-2.6,0-4.8-2.1-4.8-4.8S9.4,6.5,12,6.5s4.8,2.1,4.8,4.8S14.6,16,12,16z M12,8.5c-1.5,0-2.8,1.2-2.8,2.8
				S10.5,14,12,14s2.8-1.2,2.8-2.8S13.5,8.5,12,8.5z"/>
		</g>
		<g>
			<path d="M6,19.7c-0.2,0-0.3,0-0.5-0.1c-0.5-0.2-0.7-0.9-0.4-1.3c0.6-1.3,1.6-2.3,2.9-3.1c2.4-1.5,5.7-1.5,8.1,0
				c1.2,0.7,2.2,1.8,2.9,3.1c0.2,0.5,0.1,1.1-0.4,1.3c-0.5,0.3-1.1,0.1-1.3-0.4c-0.5-0.9-1.2-1.7-2.1-2.3c-1.8-1.1-4.2-1.1-6,0
				c-0.9,0.6-1.6,1.3-2.1,2.3C6.7,19.5,6.3,19.7,6,19.7z"/>
		</g>
		<g>
			<path d="M12,22c-0.5,0-1,0-1.6-0.1c-2.1-0.3-4-1.3-5.5-2.8c-1.5-1.5-2.5-3.4-2.8-5.5c-0.3-2.1,0-4.2,1-6.1c1-1.9,2.5-3.4,4.4-4.4
				c1.9-1,4-1.3,6.1-0.9c0.5,0.1,0.9,0.6,0.8,1.2c-0.1,0.5-0.6,0.9-1.2,0.8c-1.7-0.3-3.4,0-4.9,0.7c-1.5,0.8-2.7,2-3.5,3.5
				c-0.8,1.5-1.1,3.2-0.8,4.9c0.3,1.7,1,3.2,2.2,4.4c1.2,1.2,2.7,2,4.4,2.2c1.7,0.3,3.4,0,4.9-0.8c1.5-0.8,2.7-2,3.5-3.5
				s1-3.2,0.7-4.9c-0.1-0.5,0.3-1.1,0.8-1.2c0.5-0.1,1.1,0.3,1.2,0.8c0.4,2.1,0,4.2-0.9,6.1c-1,1.9-2.5,3.4-4.4,4.4
				C15.2,21.6,13.6,22,12,22z"/>
		</g>
		<g>
			<path d="M18.8,7.8c-0.3,0-0.5-0.1-0.7-0.3L16.5,6c-0.4-0.4-0.4-1,0-1.4s1-0.4,1.4,0l0.8,0.8L21,3c0.4-0.4,1-0.4,1.4,0
				s0.4,1,0,1.4l-3,3C19.3,7.7,19,7.8,18.8,7.8z"/>
		</g>
	</g>
</g>
</svg>
