<?xml version="1.0" encoding="utf-8"?>
<!-- Generator: Adobe Illustrator 27.4.0, SVG Export Plug-In . SVG Version: 6.00 Build 0)  -->
<svg version="1.1" id="Шар_1" xmlns="http://www.w3.org/2000/svg" xmlns:xlink="http://www.w3.org/1999/xlink" x="0px" y="0px"
	 viewBox="0 0 24 24" style="enable-background:new 0 0 24 24;" xml:space="preserve">
<style type="text/css">
	.st0{clip-path:url(#SVGID_00000076577421432055495610000013869179289712540836_);}
	.st1{fill:#0F1010;}
</style>
<g>
	<defs>
		<rect id="SVGID_1_" width="24" height="24"/>
	</defs>
	<clipPath id="SVGID_00000145039664463393942090000007053149655699822724_">
		<use xlink:href="#SVGID_1_"  style="overflow:visible;"/>
	</clipPath>
	<g style="clip-path:url(#SVGID_00000145039664463393942090000007053149655699822724_);">
		<g>
			<path class="st1" d="M15,19c-0.1,0-0.2,0-0.2,0l-6-1.5c-0.1,0-0.2-0.1-0.3-0.2l-5.2-3.8c-0.4-0.3-0.6-0.9-0.2-1.4
				c0.3-0.5,0.9-0.6,1.4-0.2l5.1,3.6l5.3,1.3l3.3-3.3c0.4-0.4,1-0.4,1.4,0s0.4,1,0,1.4l-3.8,3.8C15.5,18.9,15.3,19,15,19z"/>
		</g>
		<g>
			<path class="st1" d="M17.2,7.6c-0.1,0-0.2,0-0.3,0L12,6.3L7.1,7.6C6.5,7.7,6,7.4,5.8,6.9C5.7,6.3,6,5.8,6.6,5.7l5.2-1.4
				c0.2,0,0.3,0,0.5,0l5.2,1.4c0.5,0.1,0.9,0.7,0.7,1.2C18,7.3,17.6,7.6,17.2,7.6z"/>
		</g>
		<g>
			<path class="st1" d="M3.7,13.8c-0.2,0-0.3,0-0.4-0.1l-2.6-1.3c-0.4-0.2-0.7-0.6-0.9-1c-0.1-0.4-0.1-0.9,0.1-1.3l2.4-4.8l0,0
				C2.4,5,2.6,4.8,2.7,4.7c0.2-0.1,0.4-0.3,0.6-0.3C3.6,4.3,3.8,4.2,4,4.3c0.2,0,0.4,0.1,0.7,0.2l2.6,1.3c0.2,0.1,0.4,0.3,0.5,0.6
				c0.1,0.3,0.1,0.5-0.1,0.8l-3.1,6.1c-0.1,0.2-0.3,0.4-0.6,0.5C4,13.7,3.9,13.8,3.7,13.8z M1.8,10.7l1.5,0.7l2.2-4.3L4,6.3
				L1.8,10.7z M4.1,6.1L4.1,6.1C4.1,6.1,4.1,6.1,4.1,6.1L4.1,6.1z"/>
		</g>
		<g>
			<path class="st1" d="M20.2,13.8c-0.1,0-0.2,0-0.3-0.1c-0.3-0.1-0.5-0.3-0.6-0.5l-3.1-6.1c-0.1-0.2-0.1-0.5-0.1-0.8
				s0.3-0.5,0.5-0.6l2.6-1.3c0.2-0.1,0.4-0.2,0.7-0.2c0.2,0,0.5,0,0.7,0.1c0.2,0.1,0.4,0.2,0.6,0.3c0.2,0.2,0.3,0.3,0.4,0.5l2.4,4.8
				c0.2,0.4,0.2,0.9,0.1,1.3c-0.1,0.4-0.5,0.8-0.9,1l-2.6,1.3C20.6,13.7,20.4,13.8,20.2,13.8z M18.5,7.1l2.2,4.3l1.5-0.7L20,6.3
				L18.5,7.1z"/>
		</g>
		<g>
			<path class="st1" d="M18.8,15.2c-0.2,0-0.4-0.1-0.6-0.2L15,12.6c-1.9,1.5-4.3,1.6-6.2,0.4c-0.2-0.1-0.4-0.3-0.5-0.6
				C8.1,12.1,8,11.9,8,11.6c0-0.3,0-0.5,0.1-0.8c0.1-0.2,0.2-0.5,0.4-0.7L12.8,6c0.2-0.2,0.4-0.3,0.7-0.3h3.8c0.6,0,1,0.4,1,1
				s-0.4,1-1,1h-3.3l-3.7,3.6c1.1,0.6,2.7,0.6,4.1-0.8c0.4-0.4,0.9-0.4,1.3-0.1l3.1,2.4l0.9-0.9c0.4-0.4,1-0.4,1.4,0s0.4,1,0,1.4
				L19.5,15C19.3,15.2,19,15.2,18.8,15.2z M9.9,11.2C9.9,11.2,9.9,11.2,9.9,11.2C9.9,11.2,9.9,11.2,9.9,11.2z"/>
		</g>
		<g>
			<path class="st1" d="M11.6,21.2c-0.1,0-0.2,0-0.2,0l-3.9-1c-0.1,0-0.2-0.1-0.3-0.2l-2.5-1.8c-0.4-0.3-0.6-0.9-0.2-1.4
				c0.3-0.5,0.9-0.6,1.4-0.2l2.3,1.7l3.7,0.9c0.5,0.1,0.9,0.7,0.7,1.2C12.5,20.9,12.1,21.2,11.6,21.2z"/>
		</g>
	</g>
</g>
</svg>
