<svg width="33" height="20" viewBox="0 0 33 20" fill="none" xmlns="http://www.w3.org/2000/svg">
<g clip-path="url(#clip0_421_6168)">
<path d="M21.1026 2.14551H12.4429V17.9122H21.1026V2.14551Z" fill="#FF5A00"/>
<path d="M13.0194 10.0286C13.0194 6.82531 14.5054 3.98224 16.7856 2.14528C15.1075 0.808133 12.9906 0 10.6816 0C5.21159 0 0.785645 4.4853 0.785645 10.0286C0.785645 15.572 5.21159 20.0573 10.6816 20.0573C12.9906 20.0573 15.1075 19.2491 16.7856 17.912C14.5022 16.101 13.0194 13.232 13.0194 10.0286Z" fill="#EB001B"/>
<path d="M32.7856 10.0286C32.7856 15.572 28.3597 20.0573 22.8897 20.0573C20.5807 20.0573 18.4638 19.2491 16.7856 17.912C19.0947 16.0718 20.5519 13.232 20.5519 10.0286C20.5519 6.82531 19.0659 3.98224 16.7856 2.14528C18.4606 0.808133 20.5775 0 22.8865 0C28.3597 0 32.7856 4.51451 32.7856 10.0286Z" fill="#F79E1B"/>
</g>
<defs>
<clipPath id="clip0_421_6168">
<rect width="32" height="20" fill="white" transform="translate(0.785645)"/>
</clipPath>
</defs>
</svg>
