<?xml version="1.0" encoding="utf-8"?>
<!-- Generator: Adobe Illustrator 27.4.0, SVG Export Plug-In . SVG Version: 6.00 Build 0)  -->
<svg version="1.1" id="Шар_1" xmlns="http://www.w3.org/2000/svg" xmlns:xlink="http://www.w3.org/1999/xlink" x="0px" y="0px"
	 viewBox="0 0 25 24" style="enable-background:new 0 0 25 24;" xml:space="preserve">
<style type="text/css">
	.st0{clip-path:url(#SVGID_00000006674975825034616100000009964974766929396391_);}
	.st1{fill:#0F1010;}
</style>
<g>
	<defs>
		<rect id="SVGID_1_" x="0.5" width="24" height="24"/>
	</defs>
	<clipPath id="SVGID_00000138540172767187109780000011716710762592802462_">
		<use xlink:href="#SVGID_1_"  style="overflow:visible;"/>
	</clipPath>
	<g style="clip-path:url(#SVGID_00000138540172767187109780000011716710762592802462_);">
		<g>
			<path class="st1" d="M20.8,10h-4.5c-0.6,0-1-0.4-1-1s0.4-1,1-1h3.5V4.5c0-0.6,0.4-1,1-1s1,0.4,1,1V9C21.8,9.6,21.3,10,20.8,10z"
				/>
		</g>
		<g>
			<path class="st1" d="M20.8,10c-0.3,0-0.5-0.1-0.7-0.3l-2.7-2.7c-1.4-1.4-3.2-2.1-5.1-2.1c-1.9,0-3.7,0.7-5.1,2.1
				c-0.4,0.4-1,0.4-1.4,0c-0.4-0.4-0.4-1,0-1.4C7.6,3.9,9.9,3,12.3,2.9c2.5,0,4.8,1,6.5,2.7l2.7,2.7c0.4,0.4,0.4,1,0,1.4
				C21.3,9.9,21,10,20.8,10z"/>
		</g>
		<g>
			<path class="st1" d="M4.2,20.5c-0.6,0-1-0.4-1-1V15c0-0.6,0.4-1,1-1h4.5c0.6,0,1,0.4,1,1s-0.4,1-1,1H5.2v3.5
				C5.2,20.1,4.8,20.5,4.2,20.5z"/>
		</g>
		<g>
			<path class="st1" d="M12.7,21.1C12.7,21.1,12.7,21.1,12.7,21.1c-2.5,0-4.8-1-6.5-2.7l-2.7-2.7c-0.4-0.4-0.4-1,0-1.4s1-0.4,1.4,0
				l2.7,2.7c1.4,1.4,3.2,2.1,5.1,2.1c0,0,0,0,0,0c1.9,0,3.7-0.7,5.1-2.1c0.4-0.4,1-0.4,1.4,0c0.4,0.4,0.4,1,0,1.4
				C17.5,20.1,15.2,21.1,12.7,21.1z"/>
		</g>
	</g>
</g>
</svg>
