<svg width="170" height="170" viewBox="0 0 170 170" fill="none" xmlns="http://www.w3.org/2000/svg">
<g clip-path="url(#clip0_787_8978)">
<path d="M167.339 45.957C167.791 46.8293 168.286 47.6729 168.586 48.6119L161.449 50.3111C161.279 49.5485 161.047 48.8169 160.82 48.0709C163 47.3202 165.209 46.8865 167.339 45.957Z" fill="#0F1010"/>
<path d="M16.5559 16.0456C21.0191 14.1438 80.8025 0.0639154 85.2418 -0.000430739C89.0636 -0.0552441 103.559 4.03431 108.096 5.06146C118.334 7.37554 128.606 9.49658 138.829 11.8917C144.001 13.1023 149.417 14.1176 154.38 16.0289C156.838 19.0984 169.457 43.4713 170.002 46.803C169.629 47.8278 169.409 47.9469 168.588 48.6119C168.289 47.6753 167.794 46.8292 167.341 45.957C165.211 46.8864 163 47.3202 160.822 48.0709C161.052 48.8168 161.282 49.5484 161.452 50.3111C161.04 58.5259 161.325 66.8981 161.318 75.132L161.334 122.515C161.339 131.273 161.88 140.367 161.064 149.068C136.443 155.655 112.129 163.679 87.386 169.761C86.0267 170.097 85.1197 170.073 83.7724 169.759C78.8305 168.603 73.9413 166.923 69.0688 165.486C61.8894 163.362 54.6836 161.332 47.4515 159.397C40.6382 157.485 33.8057 155.641 26.9565 153.865C21.2656 152.412 15.467 151.139 9.87659 149.344C9.61095 141.015 9.76651 132.638 9.75693 124.302C9.72822 100.024 10.1877 75.6515 9.68035 51.3811C7.2537 50.5589 1.46944 49.9655 0.00244141 47.9231C0.993207 43.152 13.239 21.7152 16.5583 16.0503L16.5559 16.0456Z" fill="#0F1010"/>
<path d="M83.3655 2.90527L83.4875 3.02205C84.3969 5.34089 83.7723 29.8139 83.7699 34.3038C67.4295 29.2967 50.6391 25.6957 34.1838 21.0556C29.273 19.9022 24.3838 18.6558 19.5186 17.3164C25.2837 16.1749 31.0153 14.6401 36.7445 13.3174C52.2473 9.73788 67.7526 5.98435 83.3655 2.90527Z" fill="#F3F3F3"/>
<path d="M86.3665 2.99805C93.1941 3.75352 99.9644 5.93414 106.675 7.41171L151.025 17.1542C146.636 18.689 142.113 19.7971 137.606 20.9268C120.488 25.0139 103.468 29.8971 86.4861 34.5229C86.0793 24.0559 86.3354 13.4793 86.3665 3.00043V2.99805Z" fill="#F3F3F3"/>
<path d="M88.4294 36.3956C110.19 30.8308 131.923 25.1469 153.624 19.3486C156.096 22.9711 157.809 27.4157 159.702 31.3575C162.088 36.3193 164.656 41.1453 167.336 45.9569C165.207 46.8864 162.995 47.3201 160.817 48.0708C156.062 49.1742 151.331 50.6899 146.609 51.9578L114.194 60.8042C109.87 62.0196 105.598 63.4305 101.233 64.5005C99.8639 61.7694 98.8707 58.7785 97.667 55.9663C94.8239 49.3244 91.8995 42.7372 88.427 36.3956H88.4294Z" fill="#F3F3F3"/>
<path d="M17.4197 19.499C31.4771 23.2835 45.5752 26.9203 59.7091 30.4069C67.2212 32.3158 74.8075 34.0889 82.2239 36.341C80.3859 41.1098 70.6913 61.7768 68.2144 64.4603L2.75208 46.8461C7.44744 37.7042 12.1452 28.3168 17.4173 19.499H17.4197Z" fill="#F3F3F3"/>
<path d="M83.8991 38.1855C84.6219 41.6722 83.9829 46.4052 83.935 50.0062C83.8417 56.7244 83.813 63.445 83.8489 70.1632L83.9685 167.235C77.3228 165.898 70.6028 163.258 64.036 161.392C48.4565 156.964 32.767 152.514 17.0368 148.663C15.4789 148.265 13.9018 147.936 12.3343 147.586C11.9586 133.966 12.1787 120.296 12.1979 106.674C12.174 88.5185 12.2434 70.3657 12.4109 52.2106C22.2635 55.3254 32.487 57.5776 42.4689 60.2658C49.9594 62.282 62.3919 66.4954 69.4756 66.9769C72.4814 64.7367 82.1665 42.7088 83.8944 38.1855H83.8991Z" fill="#F3F3F3"/>
<path d="M25.1832 84.4934C25.3866 84.4695 25.59 84.4457 25.7958 84.429C30.6276 84.0501 68.5519 95.6276 71.9574 98.6519C73.3358 103.118 72.7567 136.383 72.6107 143.418C72.5604 145.839 72.2134 147.102 70.4425 148.799C69.6982 149.032 68.9157 149.128 68.1355 149.078C64.3136 148.837 57.194 146.101 53.1376 144.993C44.8214 142.715 35.9978 140.911 27.8659 138.091C26.7411 137.7 24.19 136.876 23.5917 135.861C22.6225 134.219 22.9504 92.4627 23.2687 87.8894C23.3859 86.2021 23.91 85.5682 25.1808 84.4934H25.1832Z" fill="#0F1010"/>
<path d="M42.5479 91.0566C45.3216 91.886 53.6928 93.7187 55.5236 95.7325C56.1721 96.4427 56.1841 96.619 56.1195 97.5079L54.8367 98.0036C54.1355 99.4264 54.4084 102.026 54.3414 103.671C50.4022 102.513 46.4751 101.288 42.4713 100.365C42.9978 98.3802 43.2898 96.5618 43.4238 94.5242C42.6388 93.9856 41.6576 93.6257 41.4423 92.682L42.5503 91.0566H42.5479Z" fill="white"/>
<path d="M26.0327 86.7104C29.2395 87.025 35.9523 88.3119 38.4986 90.1756C41.5523 92.4157 37.326 96.2646 38.1253 99.1244C38.4627 100.333 39.633 101.188 40.7171 101.703C43.1629 102.861 56.1314 107.132 58.1009 106.503C58.6729 105.976 59.0893 105.535 59.2856 104.758C59.635 103.376 59.9269 100.364 59.1037 99.1149C58.4599 98.9934 58.0722 99.0005 57.5601 98.5715L57.8497 97.4729C58.3355 97.0987 58.4886 96.8771 59.118 96.7865C61.2408 96.491 67.8243 98.6764 69.5378 99.9585C70.9953 103.471 70.2582 126.269 70.2606 131.967C70.2486 135.878 70.8995 140.711 70.0763 144.498C69.8298 145.63 69.5905 145.821 68.6236 146.426C63.0715 146.061 56.7943 143.366 51.3738 141.865C43.127 139.581 34.1646 137.954 26.2912 134.608L26.4611 134.379L25.8197 134.307C25.1927 130.282 25.1807 89.9372 26.0327 86.708V86.7104Z" fill="white"/>
<path d="M45.4317 110.587C47.9995 112.424 50.7947 118.139 52.3192 120.949C52.6781 121.609 53.4822 122.96 53.1855 123.671C52.6063 125.06 50.6344 125.694 49.3421 126.273C49.2583 129.14 50.2826 133.554 48.8323 136.061C47.9253 136.409 47.5903 136.17 46.6737 135.918L41.0474 133.752C40.9971 129.6 41.3083 125.387 41.4399 121.233C40.5616 121.061 39.3411 120.885 38.6064 120.346C37.9818 119.886 37.6874 119.228 37.7999 118.461C38.1948 115.789 43.3089 112.119 45.4293 110.587H45.4317Z" fill="#0F1010"/>
<path d="M45.3575 113.888C47.5688 115.928 49.3373 120.086 50.8761 122.708C44.3045 126.933 49.1387 129.815 46.6737 133.549C45.4963 133.127 44.3691 132.488 43.2515 131.928C43.2515 128.077 43.5674 124.207 43.6248 120.349L40.4084 119.09C41.9568 117.224 43.5913 115.554 45.3575 113.89V113.888Z" fill="#B83D3D"/>
<path d="M86.7254 38.1211C89.0731 42.0009 98.7606 65.9043 100 66.4286C101.17 66.9219 103.26 66.4739 104.475 66.207C110.939 64.7937 117.463 62.5416 123.87 60.7971C135.503 57.6275 147.27 54.6747 158.776 51.0785L158.767 146.754L154.282 148.012C148.323 149.583 142.438 151.532 136.522 153.267C119.938 158.134 103.279 163.191 86.5436 167.492L86.443 83.2801C86.455 68.2398 86.2085 53.1495 86.7278 38.1211H86.7254Z" fill="#F3F3F3"/>
<path d="M148.179 111.615C149.115 111.72 149.287 111.731 150.034 112.287C151.41 114.83 150.658 136.984 150.661 141.14C147.744 142.465 144.364 143.151 141.299 144.114C135.194 146.085 129.077 148.023 122.951 149.927C121.807 150.032 121.462 150.032 120.605 149.324C119.734 146.073 120.395 125.761 120.414 120.8C123.807 119.336 127.598 118.435 131.133 117.306C136.828 115.447 142.51 113.55 148.179 111.612V111.615Z" fill="#0F1010"/>
<path d="M146.839 114.973L147.653 115.03C148.624 117.196 147.995 135.404 147.983 139.205C139.775 141.447 131.643 144.405 123.563 147.084L123.104 146.993C122.364 145.616 122.984 126.267 122.814 122.675C130.903 120.533 138.865 117.525 146.839 114.973Z" fill="white"/>
<path d="M141.809 120.315L142.73 120.375C143.3 121.052 143.391 121.069 143.422 121.936C142.053 123.881 130.793 126.781 127.885 127.696L126.667 127.606C126.023 127.026 125.959 127.024 125.806 126.183C126.804 124.646 139.045 121.257 141.809 120.315Z" fill="#0F1010"/>
<path d="M142.89 126.724L143.888 127.014C143.857 127.798 143.841 127.389 143.955 128.244L144.159 128.094C144.116 128.187 144.087 128.292 144.032 128.378C142.589 130.761 130.369 133.661 127.208 134.543C126.555 134.207 126.493 134.128 126.112 133.499L126.301 132.789C128.812 130.494 139.107 127.972 142.893 126.724H142.89Z" fill="#0F1010"/>
<path d="M143.094 133.697C143.596 133.754 143.307 133.681 143.919 134.055C144.183 134.906 144.274 135.022 144.01 135.859C141.505 138.192 131.616 140.439 127.895 141.526C127.55 141.49 127.172 141.354 126.837 141.264L126.349 140.394L126.55 139.872C129.951 137.212 138.654 135.237 143.094 133.697Z" fill="#0F1010"/>
</g>
<defs>
<clipPath id="clip0_787_8978">
<rect width="170" height="170" fill="white"/>
</clipPath>
</defs>
</svg>
