<?xml version="1.0" encoding="utf-8"?>
<!-- Generator: Adobe Illustrator 27.4.0, SVG Export Plug-In . SVG Version: 6.00 Build 0)  -->
<svg version="1.1" id="Шар_1" xmlns="http://www.w3.org/2000/svg" xmlns:xlink="http://www.w3.org/1999/xlink" x="0px" y="0px"
	 viewBox="0 0 24 24" style="enable-background:new 0 0 24 24;" xml:space="preserve">
<style type="text/css">
	.st0{clip-path:url(#SVGID_00000118390424685731394880000010001046498226277801_);}
	.st1{fill:#B83D3D;}
</style>
<g>
	<defs>
		<rect id="SVGID_1_" width="24" height="24"/>
	</defs>
	<clipPath id="SVGID_00000082341655158294929280000011631479211786094507_">
		<use xlink:href="#SVGID_1_"  style="overflow:visible;"/>
	</clipPath>
	<g style="clip-path:url(#SVGID_00000082341655158294929280000011631479211786094507_);">
		<g>
			<path class="st1" d="M12,22.7c-0.6,0-1-0.4-1-1v-9.6c0-0.6,0.4-1,1-1s1,0.4,1,1v9.6C13,22.3,12.6,22.7,12,22.7z"/>
		</g>
		<g>
			<path class="st1" d="M12,13.1c-0.2,0-0.3,0-0.5-0.1L2.6,8.1C2.1,7.8,1.9,7.2,2.2,6.7c0.3-0.5,0.9-0.7,1.4-0.4L12,11l8.5-4.6
				c0.5-0.3,1.1-0.1,1.4,0.4c0.3,0.5,0.1,1.1-0.4,1.4L12.5,13C12.3,13.1,12.2,13.1,12,13.1z"/>
		</g>
		<g>
			<path class="st1" d="M12,22.8c-0.3,0-0.6-0.1-0.8-0.2L2.9,18c-0.3-0.1-0.5-0.4-0.7-0.6C2.1,17.1,2,16.8,2,16.5v-9
				c0-0.3,0.1-0.6,0.2-0.9C2.4,6.4,2.6,6.1,2.9,6l8.2-4.5c0.5-0.3,1.2-0.3,1.7,0L21.1,6c0.3,0.2,0.5,0.4,0.7,0.6S22,7.2,22,7.5v9
				c0,0.3-0.1,0.6-0.2,0.9c-0.2,0.3-0.4,0.5-0.7,0.6l-8.3,4.5C12.6,22.7,12.3,22.8,12,22.8z M4,16.3l8,4.4l8-4.4V7.7l-8-4.4L4,7.7
				V16.3z"/>
		</g>
		<g>
			<path class="st1" d="M16.5,15.2c-0.6,0-1-0.4-1-1V10L7.2,5.4C6.7,5.1,6.5,4.5,6.8,4C7,3.6,7.6,3.4,8.1,3.7L17,8.5
				c0.3,0.2,0.5,0.5,0.5,0.9v4.9C17.5,14.8,17.1,15.2,16.5,15.2z"/>
		</g>
	</g>
</g>
</svg>
