<svg width="20" height="20" viewBox="0 0 20 20" fill="none" xmlns="http://www.w3.org/2000/svg">
<g clip-path="url(#clip0_754_13920)">
<path d="M5.625 3.11583V16.8846C5.62704 16.9945 5.65802 17.1018 5.7148 17.1959C5.77158 17.29 5.85217 17.3675 5.94843 17.4205C6.0447 17.4735 6.15323 17.5002 6.2631 17.4978C6.37297 17.4955 6.48028 17.4643 6.57422 17.4072L17.8305 10.5229C17.9204 10.4684 17.9947 10.3917 18.0463 10.3002C18.0979 10.2086 18.1251 10.1053 18.1251 10.0002C18.1251 9.89511 18.0979 9.79179 18.0463 9.70023C17.9947 9.60867 17.9204 9.53197 17.8305 9.47755L6.57422 2.59318C6.48028 2.53615 6.37297 2.5049 6.2631 2.50258C6.15323 2.50026 6.0447 2.52694 5.94843 2.57995C5.85217 2.63295 5.77158 2.7104 5.7148 2.80449C5.65802 2.89857 5.62704 3.00596 5.625 3.11583Z" fill="#0F1010"/>
</g>
<defs>
<clipPath id="clip0_754_13920">
<rect width="20" height="20" fill="white"/>
</clipPath>
</defs>
</svg>
