<?xml version="1.0" encoding="utf-8"?>
<!-- Generator: Adobe Illustrator 27.4.0, SVG Export Plug-In . SVG Version: 6.00 Build 0)  -->
<svg version="1.1" id="Шар_1" xmlns="http://www.w3.org/2000/svg" xmlns:xlink="http://www.w3.org/1999/xlink" x="0px" y="0px"
	 viewBox="0 0 52 24" style="enable-background:new 0 0 52 24;" xml:space="preserve">
<style type="text/css">
	.st0{clip-path:url(#SVGID_00000094616844186178332610000008785121421845251514_);}
	.st1{fill:#0F1010;}
</style>
<g>
	<defs>
		<rect id="SVGID_1_" width="52" height="24"/>
	</defs>
	<clipPath id="SVGID_00000101068762216460833650000011743307129970555551_">
		<use xlink:href="#SVGID_1_"  style="overflow:visible;"/>
	</clipPath>
	<g style="clip-path:url(#SVGID_00000101068762216460833650000011743307129970555551_);">
		<g>
			<path class="st1" d="M46.5,13H6c-0.6,0-1-0.4-1-1s0.4-1,1-1h40.5c0.6,0,1,0.4,1,1S47.1,13,46.5,13z"/>
		</g>
		<g>
			<path class="st1" d="M39.5,20c-0.3,0-0.5-0.1-0.7-0.3c-0.4-0.4-0.4-1,0-1.4l6.3-6.3l-6.3-6.3c-0.4-0.4-0.4-1,0-1.4s1-0.4,1.4,0
				l7,7c0.4,0.4,0.4,1,0,1.4l-7,7C40,19.9,39.8,20,39.5,20z"/>
		</g>
	</g>
</g>
</svg>
