<?xml version="1.0" encoding="utf-8"?>
<!-- Generator: Adobe Illustrator 27.4.0, SVG Export Plug-In . SVG Version: 6.00 Build 0)  -->
<svg version="1.1" id="Шар_1" xmlns="http://www.w3.org/2000/svg" xmlns:xlink="http://www.w3.org/1999/xlink" x="0px" y="0px"
	 viewBox="0 0 18 18" style="enable-background:new 0 0 18 18;" xml:space="preserve">
<style type="text/css">
	.st0{fill:#0F1010;}
</style>
<g>
	<path class="st0" d="M14.2,9.5H3.8C3.5,9.5,3.2,9.3,3.2,9s0.2-0.5,0.5-0.5h10.5c0.3,0,0.5,0.2,0.5,0.5S14.5,9.5,14.2,9.5z"/>
</g>
<g>
	<path class="st0" d="M9,14.8c-0.1,0-0.3,0-0.4-0.1c-0.2-0.2-0.2-0.5,0-0.7L13.5,9L8.6,4.1c-0.2-0.2-0.2-0.5,0-0.7s0.5-0.2,0.7,0
		l5.2,5.2c0.2,0.2,0.2,0.5,0,0.7l-5.2,5.2C9.3,14.7,9.1,14.8,9,14.8z"/>
</g>
</svg>
