<?xml version="1.0" encoding="utf-8"?>
<!-- Generator: Adobe Illustrator 27.4.0, SVG Export Plug-In . SVG Version: 6.00 Build 0)  -->
<svg version="1.1" id="Шар_1" xmlns="http://www.w3.org/2000/svg" xmlns:xlink="http://www.w3.org/1999/xlink" x="0px" y="0px"
	 viewBox="0 0 72 24" style="enable-background:new 0 0 72 24;" xml:space="preserve">
<style type="text/css">
	.st0{clip-path:url(#SVGID_00000099621808104150552960000017467270085234655131_);}
	.st1{fill:#0F1010;}
</style>
<g>
	<defs>
		<rect id="SVGID_1_" width="72" height="24"/>
	</defs>
	<clipPath id="SVGID_00000136383038018880818600000010920505874171958437_">
		<use xlink:href="#SVGID_1_"  style="overflow:visible;"/>
	</clipPath>
	<g style="clip-path:url(#SVGID_00000136383038018880818600000010920505874171958437_);">
		<g>
			<path class="st1" d="M69.2,17.2H2.8c-1,0-1.8-0.8-1.8-1.8c0-0.6,0.4-1,1-1c0.5,0,0.9,0.3,1,0.8h66c0.1-0.4,0.5-0.8,1-0.8
				c0.6,0,1,0.4,1,1C71,16.5,70.2,17.2,69.2,17.2z"/>
		</g>
		<g>
			<path class="st1" d="M70.1,16c-0.6,0-1-0.4-1-1V7.8c0-0.6,0.4-1,1-1s1,0.4,1,1V15C71.1,15.6,70.7,16,70.1,16z"/>
		</g>
		<g>
			<path class="st1" d="M36,17c-0.6,0-1-0.4-1-1V7.8c0-0.6,0.4-1,1-1s1,0.4,1,1V16C37,16.6,36.6,17,36,17z"/>
		</g>
		<g>
			<path class="st1" d="M8.1,17c-0.6,0-1-0.4-1-1v-4.5c0-0.6,0.4-1,1-1s1,0.4,1,1V16C9.1,16.6,8.7,17,8.1,17z"/>
		</g>
		<g>
			<path class="st1" d="M42.2,17c-0.6,0-1-0.4-1-1v-4.5c0-0.6,0.4-1,1-1s1,0.4,1,1V16C43.2,16.6,42.8,17,42.2,17z"/>
		</g>
		<g>
			<path class="st1" d="M12.2,17c-0.6,0-1-0.4-1-1v-4.5c0-0.6,0.4-1,1-1s1,0.4,1,1V16C13.2,16.6,12.8,17,12.2,17z"/>
		</g>
		<g>
			<path class="st1" d="M46.4,17c-0.6,0-1-0.4-1-1v-4.5c0-0.6,0.4-1,1-1s1,0.4,1,1V16C47.4,16.6,46.9,17,46.4,17z"/>
		</g>
		<g>
			<path class="st1" d="M16.4,17c-0.6,0-1-0.4-1-1v-4.5c0-0.6,0.4-1,1-1s1,0.4,1,1V16C17.4,16.6,16.9,17,16.4,17z"/>
		</g>
		<g>
			<path class="st1" d="M50.5,17c-0.6,0-1-0.4-1-1v-4.5c0-0.6,0.4-1,1-1s1,0.4,1,1V16C51.5,16.6,51.1,17,50.5,17z"/>
		</g>
		<g>
			<path class="st1" d="M20.5,17c-0.6,0-1-0.4-1-1v-4.5c0-0.6,0.4-1,1-1s1,0.4,1,1V16C21.5,16.6,21.1,17,20.5,17z"/>
		</g>
		<g>
			<path class="st1" d="M54.6,17c-0.6,0-1-0.4-1-1v-4.5c0-0.6,0.4-1,1-1s1,0.4,1,1V16C55.6,16.6,55.2,17,54.6,17z"/>
		</g>
		<g>
			<path class="st1" d="M24.6,17c-0.6,0-1-0.4-1-1v-4.5c0-0.6,0.4-1,1-1s1,0.4,1,1V16C25.6,16.6,25.2,17,24.6,17z"/>
		</g>
		<g>
			<path class="st1" d="M58.8,17c-0.6,0-1-0.4-1-1v-4.5c0-0.6,0.4-1,1-1s1,0.4,1,1V16C59.8,16.6,59.3,17,58.8,17z"/>
		</g>
		<g>
			<path class="st1" d="M28.8,17c-0.6,0-1-0.4-1-1v-4.5c0-0.6,0.4-1,1-1s1,0.4,1,1V16C29.8,16.6,29.3,17,28.8,17z"/>
		</g>
		<g>
			<path class="st1" d="M62.9,17c-0.6,0-1-0.4-1-1v-4.5c0-0.6,0.4-1,1-1s1,0.4,1,1V16C63.9,16.6,63.4,17,62.9,17z"/>
		</g>
		<g>
			<path class="st1" d="M2.1,16.5c-0.6,0-1-0.4-1-1V7.8c0-0.6,0.4-1,1-1s1,0.4,1,1v7.7C3.1,16.1,2.7,16.5,2.1,16.5z"/>
		</g>
	</g>
</g>
</svg>
