<?xml version="1.0" encoding="utf-8"?>
<!-- Generator: Adobe Illustrator 27.4.0, SVG Export Plug-In . SVG Version: 6.00 Build 0)  -->
<svg version="1.1" id="Шар_1" xmlns="http://www.w3.org/2000/svg" xmlns:xlink="http://www.w3.org/1999/xlink" x="0px" y="0px"
	 viewBox="0 0 24 24" style="enable-background:new 0 0 24 24;" xml:space="preserve">
<style type="text/css">
	.st0{clip-path:url(#SVGID_00000125581251617447988900000006803077411494642357_);}
	.st1{fill:#0F1010;}
</style>
<g>
	<defs>
		<rect id="SVGID_1_" width="24" height="24"/>
	</defs>
	<clipPath id="SVGID_00000025408204504811010280000011982310148336399248_">
		<use xlink:href="#SVGID_1_"  style="overflow:visible;"/>
	</clipPath>
	<g style="clip-path:url(#SVGID_00000025408204504811010280000011982310148336399248_);">
		<g>
			<path class="st1" d="M2.6,19.8c-0.2,0-0.4,0-0.6-0.1c-0.3-0.1-0.5-0.3-0.6-0.6c-0.1-0.3-0.2-0.6-0.2-0.8C2,12,8.1,7.1,13.2,6.6V3
				c0-0.4,0.2-0.8,0.6-0.9C14.2,1.9,14.7,2,15,2.3l7.5,7.5c0.4,0.4,0.4,1,0,1.4L15,18.7c-0.3,0.3-0.7,0.4-1.1,0.2
				c-0.4-0.2-0.6-0.5-0.6-0.9v-3.5c-5.1,0.4-8.6,3.7-9.6,4.8c-0.2,0.2-0.5,0.4-0.7,0.4C2.8,19.7,2.7,19.8,2.6,19.8z M3.2,18.4
				C3.2,18.4,3.2,18.4,3.2,18.4C3.2,18.4,3.2,18.4,3.2,18.4z M15.2,5.4v2.1c0,0.6-0.4,1-1,1c-3.9,0-9,3.4-10.6,8
				c2.1-1.8,5.7-4,10.6-4c0.6,0,1,0.4,1,1v2.1l5.1-5.1L15.2,5.4z"/>
		</g>
	</g>
</g>
</svg>
