<svg width="20" height="10" viewBox="0 0 20 10" fill="none" xmlns="http://www.w3.org/2000/svg">
<path opacity="0.6" d="M4.79975 9.08C3.96775 9.08 3.22108 8.89867 2.55975 8.536C1.90908 8.16267 1.39708 7.656 1.02375 7.016C0.650416 6.36533 0.46375 5.624 0.46375 4.792C0.46375 3.94933 0.650416 3.208 1.02375 2.568C1.39708 1.928 1.90908 1.42667 2.55975 1.064C3.22108 0.701333 3.96775 0.52 4.79975 0.52C5.51442 0.52 6.15975 0.658666 6.73575 0.936C7.31175 1.21333 7.76508 1.62933 8.09575 2.184L7.24775 2.76C6.95975 2.33333 6.60242 2.01867 6.17575 1.816C5.74908 1.61333 5.28508 1.512 4.78375 1.512C4.18642 1.512 3.64775 1.65067 3.16775 1.928C2.68775 2.19467 2.30908 2.57333 2.03175 3.064C1.75442 3.55467 1.61575 4.13067 1.61575 4.792C1.61575 5.45333 1.75442 6.02933 2.03175 6.52C2.30908 7.01067 2.68775 7.39467 3.16775 7.672C3.64775 7.93867 4.18642 8.072 4.78375 8.072C5.28508 8.072 5.74908 7.97067 6.17575 7.768C6.60242 7.56533 6.95975 7.256 7.24775 6.84L8.09575 7.416C7.76508 7.96 7.31175 8.376 6.73575 8.664C6.15975 8.94133 5.51442 9.08 4.79975 9.08ZM9.97538 9V0.599999H11.1274L14.9354 7.048H14.4554L18.3274 0.599999H19.3834V9H18.3434V1.896L18.5514 1.992L14.9354 7.976H14.4234L10.7754 1.928L11.0154 1.88V9H9.97538Z" fill="#0F1010"/>
</svg>
