<?xml version="1.0" encoding="utf-8"?>
<!-- Generator: Adobe Illustrator 27.4.0, SVG Export Plug-In . SVG Version: 6.00 Build 0)  -->
<svg version="1.1" id="Шар_1" xmlns="http://www.w3.org/2000/svg" xmlns:xlink="http://www.w3.org/1999/xlink" x="0px" y="0px"
	 viewBox="0 0 28 28" style="enable-background:new 0 0 28 28;" xml:space="preserve">
<style type="text/css">
	.st0{clip-path:url(#SVGID_00000105396121502555959680000011528658348512613538_);}
	.st1{fill:#FFFFFF;}
</style>
<g>
	<defs>
		<rect id="SVGID_1_" width="28" height="28"/>
	</defs>
	<clipPath id="SVGID_00000134232891162806677650000009940073049680238523_">
		<use xlink:href="#SVGID_1_"  style="overflow:visible;"/>
	</clipPath>
	<g style="clip-path:url(#SVGID_00000134232891162806677650000009940073049680238523_);">
		<g>
			<path class="st1" d="M19.2,24.6c-0.1,0-0.3,0-0.4,0c-0.3-0.1-0.6-0.2-0.9-0.4l-9.7-8.5l-6.2-1.2c-0.4-0.1-0.7-0.3-0.9-0.5
				c-0.2-0.3-0.4-0.6-0.4-1s0.1-0.7,0.2-1c0.2-0.3,0.5-0.5,0.8-0.7L24,2.6c0.2-0.1,0.4-0.1,0.6-0.1c0.2,0,0.4,0.1,0.5,0.2
				c0.2,0.1,0.3,0.3,0.4,0.5c0.1,0.2,0.1,0.4,0,0.6L21,23.2c-0.1,0.3-0.2,0.6-0.4,0.8s-0.5,0.4-0.8,0.5
				C19.6,24.6,19.4,24.6,19.2,24.6z M19.3,22.7L19.3,22.7L19.3,22.7z M3.6,12.7l5.4,1.1c0.2,0,0.3,0.1,0.5,0.2l9.7,8.5l4-17.5
				L3.6,12.7z M2.6,13.1L2.6,13.1C2.6,13.1,2.6,13.1,2.6,13.1z"/>
		</g>
		<g>
			<path class="st1" d="M8.8,15.8c-0.3,0-0.6-0.1-0.8-0.4c-0.3-0.4-0.2-1.1,0.2-1.4L23.9,2.7c0.5-0.3,1.1-0.2,1.4,0.2S25.5,4,25,4.3
				L9.3,15.6C9.2,15.7,9,15.8,8.8,15.8z"/>
		</g>
		<g>
			<path class="st1" d="M9.6,23.8c-0.2,0-0.5,0-0.7-0.1c-0.3-0.1-0.6-0.4-0.9-0.7c-0.2-0.3-0.3-0.7-0.3-1v-7.1c0-0.6,0.4-1,1-1
				s1,0.4,1,1v6.8l3.1-3.3c0.4-0.4,1-0.4,1.4,0c0.4,0.4,0.4,1,0,1.4L11,23.2c-0.3,0.3-0.6,0.5-1,0.5C9.9,23.7,9.8,23.8,9.6,23.8z
				 M9.8,21.9L9.8,21.9L9.8,21.9L9.8,21.9z"/>
		</g>
	</g>
</g>
</svg>
