<?xml version="1.0" encoding="utf-8"?>
<!-- Generator: Adobe Illustrator 27.4.0, SVG Export Plug-In . SVG Version: 6.00 Build 0)  -->
<svg version="1.1" id="Шар_1" xmlns="http://www.w3.org/2000/svg" xmlns:xlink="http://www.w3.org/1999/xlink" x="0px" y="0px"
	 viewBox="0 0 20 20" style="enable-background:new 0 0 20 20;" xml:space="preserve">
<style type="text/css">
	.st0{clip-path:url(#SVGID_00000060714156953882338730000010144122846221563553_);}
	.st1{fill:#0F1010;}
</style>
<g>
	<defs>
		<rect id="SVGID_1_" y="-0.3" width="20" height="20"/>
	</defs>
	<clipPath id="SVGID_00000106840148120641089890000008614009906892040840_">
		<use xlink:href="#SVGID_1_"  style="overflow:visible;"/>
	</clipPath>
	<g style="clip-path:url(#SVGID_00000106840148120641089890000008614009906892040840_);">
		<g>
			<path class="st1" d="M16.9,5.7H3.1c-0.6,0-1-0.4-1-1s0.4-1,1-1h13.8c0.6,0,1,0.4,1,1S17.4,5.7,16.9,5.7z"/>
		</g>
		<g>
			<path class="st1" d="M13.1,3.2H6.9c-0.6,0-1-0.4-1-1s0.4-1,1-1h6.2c0.6,0,1,0.4,1,1S13.7,3.2,13.1,3.2z"/>
		</g>
		<g>
			<path class="st1" d="M15,18.2H5c-0.4,0-0.8-0.2-1.1-0.5c-0.3-0.3-0.5-0.7-0.5-1.1V4.7c0-0.6,0.4-1,1-1s1,0.4,1,1v11.5h9.2V4.7
				c0-0.6,0.4-1,1-1s1,0.4,1,1v11.9c0,0.4-0.2,0.8-0.5,1.1C15.8,18,15.4,18.2,15,18.2z"/>
		</g>
	</g>
</g>
</svg>
