<svg width="769" height="142" viewBox="0 0 769 142" fill="none" xmlns="http://www.w3.org/2000/svg">
<path d="M205.407 0V60.3068L149.417 0.0730303H143.982V78.7428H149.825L149.809 16.8051H149.825L206.372 78.8727H211.392V0H205.407Z" fill="white"/>
<path d="M581.89 0.00811447V60.3068L525.892 0H520.457V77.8016H526.3L526.284 16.8051H526.3L582.847 78.8727H587.866V0.00811447H581.882H581.89Z" fill="white"/>
<path d="M419.22 20.4811C419.291 13.3404 415.746 7.36811 410.429 4.26838C410.366 4.23592 410.295 4.18723 410.232 4.14666C405.636 1.42831 399.809 0.300402 391.425 0.138113C390.672 0.129998 367.269 0.11377 367.269 0.11377V78.7511H378.649V41.2947H383.276C390.013 41.2947 419.009 41.2947 419.22 20.4811ZM384.994 36.3124H378.649V4.26838H387.237C397.409 4.26838 408.695 7.63588 408.617 21.5684C408.554 33.0991 391.857 36.3043 384.986 36.3043L384.994 36.3124Z" fill="white"/>
<path d="M497.681 0V78.8645H509.163V0H497.681Z" fill="white"/>
<path d="M275.17 4.77124C268.362 1.34694 259.476 0.145996 247.579 0.145996H222.717V78.8645H241.759C253.202 78.8645 262.927 77.5743 271.202 74.4502C274.676 73.1357 277.899 71.4965 280.872 69.4923C291.044 62.6112 297.271 52.0461 297.13 38.1623C296.973 22.7854 286.283 10.354 275.17 4.77124ZM249.469 74.4502C249.116 74.4745 248.74 74.4745 248.371 74.4745C247.908 74.4745 247.461 74.4745 247.022 74.4502H234.23V4.30872C234.23 4.30872 247.485 4.3006 248.042 4.30872C256.198 4.46289 263.296 5.81801 268.99 9.04757C279.429 14.7439 284.323 26.1853 284.323 39.1198C284.323 59.5683 272.535 74.0364 249.477 74.4583L249.469 74.4502Z" fill="white"/>
<path d="M355.944 4.26815V0.145996H308V78.8645H319.483H355.944V74.7342H319.483V41.3675H368.501V36.4339L319.483 36.4988V4.26815H355.944Z" fill="white"/>
<path d="M610.807 4.23573V36.4989L641.739 36.434V41.3676H610.807V74.7343H647.268V78.8645H599.317V0.105469H647.268V4.23573H610.807Z" fill="white"/>
<path d="M450.223 74.1093V0.145925V0.121582H438.687V78.8644H486.92V74.1093H450.223Z" fill="white"/>
<path d="M378.649 41.2948C378.649 41.2948 412.664 43.6074 416.476 78.8161C420.279 78.8161 427.338 78.8891 427.338 78.8891C427.338 78.8891 421.472 38.2113 378.649 36.3125C376.108 36.7426 378.649 41.2948 378.649 41.2948Z" fill="white"/>
<path d="M133.284 0V33.4154C133.284 43.4692 132.202 51.5512 127.434 58.1564C126.469 59.5197 125.332 60.818 124.022 62.0514C117.802 67.8776 108.807 69.6546 99.6775 69.6546C91.9993 69.6546 83.7957 68.2265 77.9762 64.1855C77.8978 64.1287 77.8194 64.0638 77.7409 64.007C70.3216 58.8137 66.5648 51.1455 66.2197 38.5356V0H77.7331L77.7096 36.0283C77.7096 36.5719 77.7253 37.1075 77.7331 37.6349C78.2899 53.9612 87.3406 62.8872 102.713 62.8872C120.775 62.8872 126.979 53.2228 127.434 34.9653C127.449 34.2268 127.434 0.00811447 127.434 0.00811447H133.284V0Z" fill="white"/>
<path d="M133.645 75.6187H66V78.8482H133.645V75.6187Z" fill="white"/>
<path d="M357 120H0V123H357V120Z" fill="white"/>
<path d="M769 119.911H550.39V123.067H769V119.911Z" fill="white"/>
<path d="M395.154 136.042C392.821 136.042 390.589 135.689 388.46 134.982C386.331 134.246 384.654 133.303 383.429 132.155L385.048 128.709C386.214 129.74 387.702 130.594 389.51 131.271C391.319 131.949 393.2 132.287 395.154 132.287C396.933 132.287 398.377 132.081 399.485 131.669C400.594 131.256 401.411 130.697 401.936 129.99C402.461 129.254 402.723 128.429 402.723 127.516C402.723 126.456 402.373 125.602 401.673 124.954C401.002 124.306 400.113 123.79 399.004 123.408C397.925 122.995 396.729 122.642 395.417 122.347C394.104 122.053 392.777 121.714 391.435 121.331C390.123 120.919 388.912 120.403 387.804 119.785C386.725 119.167 385.85 118.342 385.179 117.311C384.508 116.251 384.172 114.896 384.172 113.247C384.172 111.656 384.581 110.198 385.398 108.873C386.243 107.518 387.527 106.443 389.248 105.648C390.998 104.823 393.214 104.411 395.898 104.411C397.677 104.411 399.442 104.647 401.192 105.118C402.942 105.589 404.459 106.267 405.742 107.15L404.298 110.684C402.986 109.801 401.6 109.168 400.142 108.785C398.683 108.372 397.269 108.166 395.898 108.166C394.177 108.166 392.762 108.387 391.654 108.829C390.546 109.271 389.729 109.86 389.204 110.596C388.708 111.332 388.46 112.157 388.46 113.07C388.46 114.16 388.796 115.029 389.466 115.676C390.166 116.324 391.056 116.84 392.135 117.223C393.244 117.606 394.454 117.959 395.767 118.283C397.079 118.577 398.392 118.916 399.704 119.299C401.046 119.682 402.256 120.183 403.336 120.801C404.444 121.42 405.334 122.244 406.004 123.275C406.675 124.306 407.011 125.631 407.011 127.251C407.011 128.812 406.588 130.27 405.742 131.625C404.896 132.95 403.584 134.025 401.804 134.85C400.054 135.645 397.838 136.042 395.154 136.042Z" fill="white"/>
<path d="M420.807 135.689V108.608H410.306V104.765H435.638V108.608H425.138V135.689H420.807Z" fill="white"/>
<path d="M455.552 136.042C453.218 136.042 451.045 135.645 449.033 134.85C447.049 134.054 445.329 132.95 443.87 131.536C442.412 130.093 441.274 128.414 440.458 126.5C439.641 124.586 439.233 122.495 439.233 120.227C439.233 117.959 439.641 115.868 440.458 113.954C441.274 112.039 442.412 110.375 443.87 108.961C445.329 107.518 447.049 106.399 449.033 105.604C451.016 104.809 453.189 104.411 455.552 104.411C457.885 104.411 460.029 104.809 461.983 105.604C463.967 106.37 465.688 107.474 467.146 108.917C468.634 110.331 469.771 111.995 470.559 113.909C471.375 115.824 471.784 117.93 471.784 120.227C471.784 122.524 471.375 124.63 470.559 126.544C469.771 128.459 468.634 130.137 467.146 131.58C465.688 132.994 463.967 134.099 461.983 134.894C460.029 135.66 457.885 136.042 455.552 136.042ZM455.552 132.111C457.244 132.111 458.804 131.816 460.233 131.227C461.692 130.638 462.946 129.813 463.996 128.753C465.075 127.663 465.906 126.397 466.49 124.954C467.102 123.511 467.408 121.935 467.408 120.227C467.408 118.519 467.102 116.943 466.49 115.5C465.906 114.057 465.075 112.805 463.996 111.745C462.946 110.655 461.692 109.816 460.233 109.227C458.804 108.637 457.244 108.343 455.552 108.343C453.831 108.343 452.241 108.637 450.783 109.227C449.354 109.816 448.1 110.655 447.02 111.745C445.941 112.805 445.095 114.057 444.483 115.5C443.899 116.943 443.608 118.519 443.608 120.227C443.608 121.935 443.899 123.511 444.483 124.954C445.095 126.397 445.941 127.663 447.02 128.753C448.1 129.813 449.354 130.638 450.783 131.227C452.241 131.816 453.831 132.111 455.552 132.111Z" fill="white"/>
<path d="M480.221 135.689V104.765H492.165C494.848 104.765 497.138 105.192 499.034 106.046C500.93 106.9 502.388 108.137 503.409 109.757C504.43 111.376 504.94 113.306 504.94 115.544C504.94 117.782 504.43 119.711 503.409 121.331C502.388 122.922 500.93 124.144 499.034 124.998C497.138 125.852 494.848 126.279 492.165 126.279H482.627L484.596 124.247V135.689H480.221ZM500.696 135.689L492.909 124.468H497.59L505.465 135.689H500.696ZM484.596 124.689L482.627 122.524H492.034C494.834 122.524 496.948 121.92 498.378 120.713C499.836 119.476 500.565 117.753 500.565 115.544C500.565 113.335 499.836 111.627 498.378 110.419C496.948 109.212 494.834 108.608 492.034 108.608H482.627L484.596 106.399V124.689Z" fill="white"/>
<path d="M517.74 118.106H533.491V121.861H517.74V118.106ZM518.134 131.846H535.985V135.689H513.759V104.765H535.372V108.608H518.134V131.846Z" fill="white"/>
</svg>
