<svg width="63" height="20" viewBox="0 0 63 20" fill="none" xmlns="http://www.w3.org/2000/svg">
<g clip-path="url(#clip0_421_6166)">
<path d="M41.1592 0.0307617C36.7615 0.0307617 32.8313 2.29576 32.8313 6.47957C32.8313 11.2781 39.8014 11.6095 39.8014 14.0205C39.8014 15.0357 38.6308 15.9443 36.6307 15.9443C33.793 15.9443 31.6719 14.6747 31.6719 14.6747L30.7643 18.8973C30.7643 18.8973 33.2077 19.9698 36.4515 19.9698C41.2596 19.9698 45.0435 17.5939 45.0435 13.338C45.0435 8.26718 38.0443 7.94563 38.0443 5.70835C38.0443 4.91311 39.0053 4.0421 40.9992 4.0421C43.2492 4.0421 45.0844 4.96547 45.0844 4.96547L45.9729 0.887605C45.9729 0.887605 43.9752 0.0307617 41.1586 0.0307617H41.1592ZM0.923046 0.338757L0.816406 0.954132C0.816406 0.954132 2.66649 1.29046 4.33305 1.96189C6.47887 2.73127 6.63139 3.17971 6.99285 4.57062L10.9305 19.6519H16.2091L24.3411 0.338757H19.0748L13.8494 13.4698L11.7172 2.33888C11.5219 1.06501 10.5312 0.338141 9.31909 0.338141H0.923666L0.923046 0.338757ZM26.459 0.338757L22.3279 19.6519H27.3499L31.4661 0.338757H26.459ZM54.4681 0.338757C53.2572 0.338757 52.6155 0.983084 52.145 2.1085L44.7874 19.6519H50.0537L51.0724 16.7278H57.4881L58.1075 19.6519H62.7544L58.7008 0.338757H54.4681ZM55.1532 5.55682L56.7144 12.804H52.5325L55.1538 5.55682H55.1532Z" fill="#D9D9D9"/>
</g>
<defs>
<clipPath id="clip0_421_6166">
<rect width="62" height="20" fill="white" transform="translate(0.785645)"/>
</clipPath>
</defs>
</svg>
