<?xml version="1.0" encoding="utf-8"?>
<!-- Generator: Adobe Illustrator 27.4.0, SVG Export Plug-In . SVG Version: 6.00 Build 0)  -->
<svg version="1.1" id="Шар_1" xmlns="http://www.w3.org/2000/svg" xmlns:xlink="http://www.w3.org/1999/xlink" x="0px" y="0px"
	 viewBox="0 0 28 28" style="enable-background:new 0 0 28 28;" xml:space="preserve">
<style type="text/css">
	.st0{clip-path:url(#SVGID_00000023968303920664372810000004023065201872988553_);}
	.st1{fill:#FFFFFF;}
</style>
<g>
	<defs>
		<rect id="SVGID_1_" width="28" height="28"/>
	</defs>
	<clipPath id="SVGID_00000028284740665226596970000005233711618050887063_">
		<use xlink:href="#SVGID_1_"  style="overflow:visible;"/>
	</clipPath>
	<g style="clip-path:url(#SVGID_00000028284740665226596970000005233711618050887063_);">
		<g>
			<path class="st1" d="M12.2,18.5c-0.2,0-0.3,0-0.5-0.1c-0.3-0.2-0.5-0.5-0.5-0.9v-7c0-0.4,0.2-0.7,0.5-0.9c0.3-0.2,0.7-0.2,1,0
				l5.2,3.5c0.3,0.2,0.4,0.5,0.4,0.8s-0.2,0.6-0.4,0.8l-5.2,3.5C12.6,18.4,12.4,18.5,12.2,18.5z M13.2,12.4v3.3l2.4-1.6L13.2,12.4z"
				/>
		</g>
		<g>
			<path class="st1" d="M13.9,23.8c-0.7,0-6.4,0-10-1.4c-0.4-0.2-0.8-0.4-1.1-0.7s-0.5-0.7-0.6-1.1C2,19.3,1.6,17.3,1.6,14
				c0-3.3,0.3-5.3,0.6-6.4c0.1-0.4,0.3-0.8,0.6-1.1c0.3-0.3,0.7-0.6,1.1-0.7C7.7,4.2,13.7,4.2,14,4.2c0.2,0,6.3,0,10.1,1.4
				c0.4,0.2,0.8,0.4,1.1,0.7c0.3,0.3,0.5,0.7,0.6,1.1c0.3,1.1,0.6,3.1,0.6,6.4c0,3.3-0.3,5.3-0.6,6.4c-0.1,0.4-0.3,0.8-0.6,1.1
				c-0.3,0.3-0.7,0.6-1.1,0.7C20.3,23.8,14.2,23.7,13.9,23.8C14,23.8,14,23.8,13.9,23.8z M14,6.2c-0.4,0-6,0-9.4,1.3
				c-0.1,0-0.2,0.1-0.3,0.2C4.3,7.8,4.2,8,4.2,8.1C4,8.9,3.6,10.7,3.6,14c0,3.3,0.4,5.1,0.6,5.9c0,0.1,0.1,0.2,0.2,0.3
				c0.1,0.1,0.2,0.2,0.3,0.2c3.4,1.3,9.3,1.3,9.4,1.3c0.1,0,5.9,0,9.4-1.3c0.1,0,0.2-0.1,0.3-0.2c0.1-0.1,0.1-0.2,0.2-0.3
				c0.2-0.8,0.6-2.6,0.6-5.9c0-3.3-0.4-5.1-0.6-5.9c0-0.1-0.1-0.2-0.2-0.3c-0.1-0.1-0.2-0.2-0.3-0.2C19.9,6.2,14.1,6.3,14,6.2
				C14,6.2,14,6.2,14,6.2z"/>
		</g>
	</g>
</g>
</svg>
